<svg width="570" height="570" viewBox="0 0 570 570" fill="none" xmlns="http://www.w3.org/2000/svg">
<g clip-path="url(#clip0_2005_518)">
<path d="M284.999 563.335C438.719 563.335 563.333 438.721 563.333 285.001C563.333 131.281 438.719 6.66602 284.999 6.66602C131.279 6.66602 6.66406 131.281 6.66406 285.001C6.66406 438.721 131.279 563.335 284.999 563.335Z" fill="#F2E6DC"/>
<path d="M114.254 120.498H21.8597C21.8597 120.498 11.0631 149.158 13.0586 158.755C16.7645 176.579 57.0491 202.554 57.0491 220.657C57.0491 238.759 16.7645 264.735 13.0586 282.558C11.0631 292.156 21.8597 320.816 21.8597 320.816H114.254C114.254 320.816 125.05 292.156 123.055 282.558C119.349 264.735 79.0644 238.759 79.0644 220.657C79.0644 202.554 119.349 176.579 123.055 158.755C125.05 149.158 114.254 120.498 114.254 120.498Z" fill="#F7F1EB"/>
<path d="M71.2972 221.62C71.2972 210.915 90.275 196.831 98.877 184.861H39.0383C48.0546 196.85 68.5725 210.991 68.5725 221.62C68.5725 235.046 70.593 287.423 54.2655 300.397C48.6416 304.866 27.6914 315.761 27.6914 315.761H111.516C111.516 315.761 105.617 311.304 89.9423 304.202C69.6037 294.987 71.2972 235.046 71.2972 221.62Z" fill="#EFBC73"/>
<path d="M120.873 321.487H28.4782C28.1992 321.487 27.9489 321.314 27.8506 321.053C27.4065 319.875 17.0083 292.099 19.0196 282.422C20.7928 273.898 30.3809 263.931 40.5314 253.378C51.576 241.896 62.9968 230.024 62.9968 220.657C62.9968 211.291 51.5763 199.418 40.5314 187.936C30.3809 177.384 20.7928 167.416 19.0196 158.892C17.0083 149.216 27.4065 121.439 27.8506 120.262C27.9489 120 28.1989 119.828 28.4782 119.828H120.873C121.151 119.828 121.402 120.001 121.5 120.262C121.944 121.439 132.342 149.216 130.331 158.892C128.558 167.417 118.97 177.384 108.819 187.936C97.7747 199.418 86.3538 211.291 86.3538 220.657C86.3538 230.024 97.7744 241.896 108.819 253.378C118.97 263.931 128.558 273.898 130.331 282.422C132.342 292.099 121.944 319.875 121.5 321.053C121.402 321.314 121.151 321.487 120.873 321.487ZM28.9445 320.146H120.406C121.739 316.524 130.818 291.359 129.017 282.695C127.323 274.549 117.424 264.259 107.852 254.308C96.623 242.635 85.012 230.564 85.012 220.657C85.012 210.75 96.6233 198.679 107.852 187.006C117.424 177.055 127.323 166.765 129.017 158.619C130.818 149.956 121.739 124.79 120.406 121.169H28.9445C27.6115 124.79 18.5323 149.956 20.3338 158.619C22.0275 166.765 31.9259 177.055 41.4984 187.006C52.7274 198.679 64.3383 210.75 64.3383 220.657C64.3383 230.564 52.727 242.635 41.4984 254.308C31.9262 264.259 22.0275 274.549 20.3338 282.695C18.5326 291.359 27.6118 316.524 28.9445 320.146Z" fill="white"/>
<path d="M110.134 305.957C110.071 305.957 110.008 305.948 109.945 305.93C109.59 305.826 109.386 305.453 109.49 305.097C112.664 294.257 113.923 286.511 113.129 282.695C111.833 276.46 105.685 269.067 100.475 263.323C100.226 263.049 100.246 262.625 100.521 262.376C100.795 262.127 101.219 262.147 101.468 262.422C107.124 268.656 113.088 275.908 114.443 282.422C115.293 286.51 114.059 294.266 110.777 305.474C110.692 305.767 110.424 305.957 110.134 305.957Z" fill="white"/>
<path d="M106.139 173.1C105.992 173.1 105.844 173.052 105.72 172.953C105.431 172.722 105.385 172.299 105.616 172.01C109.915 166.643 112.374 162.262 113.131 158.619C114.01 154.394 112.405 145.499 108.49 132.897C108.38 132.543 108.578 132.168 108.931 132.058C109.287 131.948 109.661 132.146 109.771 132.499C112.548 141.438 115.613 153.273 114.445 158.892C113.632 162.801 111.159 167.236 106.663 172.849C106.531 173.014 106.336 173.1 106.139 173.1Z" fill="white"/>
<path d="M123.226 318.798H12.9883V332.13H123.226V318.798Z" fill="#D87355"/>
<path d="M123.226 109.627H12.9883V122.959H123.226V109.627Z" fill="#D87355"/>
<path d="M133.204 312.589L561.883 312.589V8.60843L133.204 8.60843L133.204 312.589Z" fill="#D3BBA3"/>
<path d="M548.434 273.085V22.0586L146.653 22.0586L146.653 273.085L548.434 273.085Z" fill="#F7F1EB"/>
<path d="M302.417 319.029H315.109C315.109 328.55 322.826 336.267 332.347 336.267H362.737C372.258 336.267 379.975 328.55 379.975 319.029H392.666L405.357 386.475V392.115H289.727V386.475L302.417 319.029Z" fill="#D3BBA3"/>
<path d="M405.356 399.836H289.725C289.355 399.836 289.055 399.536 289.055 399.165C289.055 398.795 289.355 398.495 289.725 398.495H405.356C405.727 398.495 406.027 398.795 406.027 399.165C406.027 399.536 405.727 399.836 405.356 399.836Z" fill="#D3BBA3"/>
<path d="M193.478 187.017H172.961V243.273H193.478V187.017Z" fill="#E6D0BE"/>
<path d="M227.337 175.811H206.82V243.273H227.337V175.811Z" fill="#E6D0BE"/>
<path d="M261.193 134.485H240.676V243.273H261.193V134.485Z" fill="#E6D0BE"/>
<path d="M295.052 151.543H274.535V243.273H295.052V151.543Z" fill="#E6D0BE"/>
<path d="M328.958 106.535H308.441V243.273H328.958V106.535Z" fill="#E6D0BE"/>
<path d="M362.814 133.558H342.297V243.274H362.814V133.558Z" fill="#E6D0BE"/>
<path d="M396.673 172.714H376.156V243.273H396.673V172.714Z" fill="#E6D0BE"/>
<path d="M430.528 147.52H410.012V243.273H430.528V147.52Z" fill="#E6D0BE"/>
<path d="M464.411 162.654H443.895V243.273H464.411V162.654Z" fill="#E6D0BE"/>
<path d="M498.271 123.374H477.754V243.272H498.271V123.374Z" fill="#E6D0BE"/>
<path d="M532.173 187.017H511.656V243.273H532.173V187.017Z" fill="#E6D0BE"/>
<path d="M178.013 562.031H328.805V338.384H178.013L178.013 562.031Z" fill="#EFBC73"/>
<path d="M7.95436 562.031H158.746L158.746 338.384H7.95436L7.95436 562.031Z" fill="#EFBC73"/>
<path d="M177.878 543.362H320.023V332.54H177.878L177.878 543.362Z" fill="white"/>
<path d="M17.5659 543.362H159.711L159.711 332.54H17.5659L17.5659 543.362Z" fill="white"/>
<path d="M194.794 386.463C200.335 386.463 204.827 381.972 204.827 376.431C204.827 370.89 200.335 366.398 194.794 366.398C189.253 366.398 184.762 370.89 184.762 376.431C184.762 381.972 189.253 386.463 194.794 386.463Z" fill="#E6D0BE"/>
<path d="M194.794 424.957C200.335 424.957 204.827 420.465 204.827 414.924C204.827 409.383 200.335 404.892 194.794 404.892C189.253 404.892 184.762 409.383 184.762 414.924C184.762 420.465 189.253 424.957 194.794 424.957Z" fill="#E6D0BE"/>
<path d="M194.794 463.449C200.335 463.449 204.827 458.957 204.827 453.416C204.827 447.875 200.335 443.384 194.794 443.384C189.253 443.384 184.762 447.875 184.762 453.416C184.762 458.957 189.253 463.449 194.794 463.449Z" fill="#E6D0BE"/>
<path d="M201.884 499.001C205.801 495.083 205.801 488.731 201.884 484.813C197.966 480.895 191.613 480.895 187.696 484.813C183.778 488.731 183.778 495.083 187.696 499.001C191.613 502.919 197.966 502.919 201.884 499.001Z" fill="#E6D0BE"/>
<path d="M143.005 386.463C148.546 386.463 153.038 381.972 153.038 376.431C153.038 370.89 148.546 366.398 143.005 366.398C137.464 366.398 132.973 370.89 132.973 376.431C132.973 381.972 137.464 386.463 143.005 386.463Z" fill="#E6D0BE"/>
<path d="M143.005 424.957C148.546 424.957 153.038 420.465 153.038 414.924C153.038 409.383 148.546 404.892 143.005 404.892C137.464 404.892 132.973 409.383 132.973 414.924C132.973 420.465 137.464 424.957 143.005 424.957Z" fill="#E6D0BE"/>
<path d="M143.005 463.449C148.546 463.449 153.038 458.957 153.038 453.416C153.038 447.875 148.546 443.384 143.005 443.384C137.464 443.384 132.973 447.875 132.973 453.416C132.973 458.957 137.464 463.449 143.005 463.449Z" fill="#E6D0BE"/>
<path d="M143.964 501.881C149.477 501.336 153.505 496.423 152.959 490.91C152.413 485.396 147.501 481.369 141.987 481.915C136.474 482.46 132.446 487.373 132.992 492.886C133.538 498.4 138.45 502.427 143.964 501.881Z" fill="#E6D0BE"/>
<path d="M141.206 366.562C145.241 355.098 156.173 346.856 169 346.856C181.84 346.856 192.782 355.117 196.807 366.6C197.873 369.645 198.461 372.913 198.461 376.317C198.461 379.81 197.846 383.163 196.724 386.275C196.099 386.397 195.454 386.463 194.794 386.463C193.922 386.463 193.078 386.352 192.272 386.143C193.553 383.121 194.261 379.8 194.261 376.317C194.261 372.912 193.58 369.665 192.354 366.698C188.563 357.527 179.525 351.055 169 351.055C158.456 351.055 149.406 357.55 145.626 366.747C144.413 369.7 143.738 372.931 143.738 376.317C143.738 379.78 144.44 383.083 145.707 386.091C144.847 386.332 143.941 386.463 143.003 386.463C142.419 386.463 141.846 386.41 141.288 386.314C140.158 383.191 139.539 379.825 139.539 376.317C139.539 372.899 140.13 369.617 141.206 366.562Z" fill="#EFBC73"/>
<path d="M141.206 405.055C145.241 393.591 156.173 385.349 169 385.349C181.84 385.349 192.782 393.61 196.807 405.094C197.873 408.138 198.461 411.406 198.461 414.81C198.461 418.304 197.846 421.656 196.724 424.769C196.099 424.891 195.454 424.956 194.794 424.956C193.922 424.956 193.078 424.845 192.272 424.636C193.553 421.614 194.261 418.293 194.261 414.81C194.261 411.405 193.58 408.158 192.354 405.191C188.563 396.02 179.525 389.548 169 389.548C158.456 389.548 149.406 396.043 145.626 405.24C144.413 408.194 143.738 411.423 143.738 414.81C143.738 418.274 144.44 421.576 145.707 424.585C144.847 424.825 143.941 424.956 143.003 424.956C142.419 424.956 141.846 424.903 141.288 424.807C140.158 421.684 139.539 418.318 139.539 414.81C139.539 411.392 140.13 408.111 141.206 405.055Z" fill="#EFBC73"/>
<path d="M141.206 443.547C145.241 432.084 156.173 423.841 169 423.841C181.84 423.841 192.782 432.102 196.807 443.586C197.873 446.63 198.461 449.898 198.461 453.302C198.461 456.796 197.846 460.149 196.724 463.261C196.099 463.383 195.454 463.449 194.794 463.449C193.922 463.449 193.078 463.337 192.272 463.129C193.553 460.107 194.261 456.786 194.261 453.302C194.261 449.898 193.58 446.651 192.354 443.684C188.563 434.513 179.525 428.041 169 428.041C158.456 428.041 149.406 434.536 145.626 443.733C144.413 446.686 143.738 449.916 143.738 453.302C143.738 456.766 144.44 460.069 145.707 463.077C144.847 463.318 143.941 463.449 143.003 463.449C142.419 463.449 141.846 463.396 141.288 463.3C140.158 460.177 139.539 456.811 139.539 453.303C139.539 449.884 140.13 446.602 141.206 443.547Z" fill="#EFBC73"/>
<path d="M141.206 482.04C145.241 470.576 156.173 462.333 169 462.333C181.84 462.333 192.782 470.594 196.807 482.078C197.873 485.123 198.461 488.39 198.461 491.794C198.461 495.288 197.846 498.641 196.724 501.753C196.099 501.875 195.454 501.941 194.794 501.941C193.922 501.941 193.078 501.829 192.272 501.621C193.553 498.599 194.261 495.278 194.261 491.794C194.261 488.39 193.58 485.142 192.354 482.176C188.563 473.005 179.525 466.533 169 466.533C158.456 466.533 149.406 473.027 145.626 482.224C144.413 485.178 143.738 488.408 143.738 491.794C143.738 495.258 144.44 498.56 145.707 501.569C144.847 501.809 143.941 501.941 143.003 501.941C142.419 501.941 141.846 501.888 141.288 501.792C140.158 498.668 139.539 495.303 139.539 491.794C139.539 488.376 140.13 485.095 141.206 482.04Z" fill="#EFBC73"/>
<path d="M56.5194 414.955H69.3125V402.162H56.5194V414.955Z" fill="#D87355"/>
<path d="M30.9101 414.955H43.7031V402.162H30.9101V414.955Z" fill="#E6D0BE"/>
<path d="M107.738 440.564H120.531V427.771H107.738V440.564Z" fill="#E6D0BE"/>
<path d="M82.1288 440.564H94.9219V427.771H82.1288V440.564Z" fill="#D87355"/>
<path d="M56.5194 440.564H69.3125V427.771H56.5194V440.564Z" fill="#E6D0BE"/>
<path d="M30.9101 440.564H43.7031V427.771H30.9101V440.564Z" fill="#E6D0BE"/>
<path d="M107.738 466.173H120.531V453.38H107.738V466.173Z" fill="#D87355"/>
<path d="M82.1288 466.173H94.9219V453.38H82.1288V466.173Z" fill="#E6D0BE"/>
<path d="M56.5194 466.173H69.3125V453.38H56.5194V466.173Z" fill="#E6D0BE"/>
<path d="M30.9101 466.173H43.7031V453.38H30.9101V466.173Z" fill="#D87355"/>
<path d="M107.738 491.782H120.531V478.989H107.738V491.782Z" fill="#E6D0BE"/>
<path d="M82.1288 491.782H94.9219V478.989H82.1288V491.782Z" fill="#E6D0BE"/>
<path d="M56.5194 491.782H69.3125V478.989H56.5194V491.782Z" fill="#D87355"/>
<path d="M30.9101 491.782H43.7031V478.989H30.9101V491.782Z" fill="#F7F1EB"/>
<path d="M107.738 517.392H120.531V504.599H107.738V517.392Z" fill="#E6D0BE"/>
<path d="M82.1288 517.392H94.9219V504.599H82.1288V517.392Z" fill="#D87355"/>
<path d="M56.5194 517.392H69.3125V504.599H56.5194V517.392Z" fill="#E6D0BE"/>
<path d="M30.9101 517.392H43.7031V504.599H30.9101V517.392Z" fill="#E6D0BE"/>
<path d="M56.52 376.432H120.531V354.406H56.52V376.432Z" fill="#F7F1EB"/>
<path d="M356.393 267.49H209.129V332.054H356.393V267.49Z" fill="#8B865C"/>
<path d="M334.416 391.87C334.396 393.304 334.066 444.355 334.066 444.355L362.676 443.003L378.717 391.87H334.416Z" fill="#84524D"/>
<path d="M331.887 439.543L365.223 439.108L383.733 499.061C383.733 499.061 332.83 515.537 332.717 514.461C332.604 513.386 331.887 439.543 331.887 439.543Z" fill="white"/>
<path d="M355.716 457.063H342.241C341.87 457.063 341.57 456.762 341.57 456.392C341.57 456.021 341.87 455.721 342.241 455.721H355.716C356.087 455.721 356.387 456.021 356.387 456.392C356.387 456.762 356.087 457.063 355.716 457.063Z" fill="#363E44"/>
<path d="M355.568 465.468H342.241C341.87 465.468 341.57 465.168 341.57 464.797C341.57 464.427 341.87 464.126 342.241 464.126H355.568C355.939 464.126 356.239 464.427 356.239 464.797C356.239 465.168 355.939 465.468 355.568 465.468Z" fill="#363E44"/>
<path d="M328.684 400.598H381.144L396.136 324.457C399.886 305.411 385.997 287.424 366.622 286.236L337.962 284.477L328.684 400.598Z" fill="#8B865C"/>
<path d="M170.723 300.417L206.73 335.173L237.251 312.371L207.849 271.837L170.723 300.417Z" fill="#84524D"/>
<path d="M200.152 329.987L218.514 371.764L269.445 338.46L233.771 305.326L200.152 329.987Z" fill="#F7F1EB"/>
<path d="M170.724 308.222L215.549 276.09L188.666 234.657C177.859 217.999 154.99 214.396 139.584 226.923C123.918 239.662 123.053 263.281 137.745 277.132L170.724 308.222Z" fill="#8B865C"/>
<path d="M216.644 332.923C216.422 332.923 216.205 332.813 216.077 332.612C215.879 332.299 215.971 331.884 216.284 331.686L231.408 322.089C231.721 321.891 232.135 321.983 232.334 322.296C232.532 322.609 232.439 323.024 232.127 323.222L217.003 332.818C216.891 332.889 216.767 332.923 216.644 332.923Z" fill="#363E44"/>
<path d="M219.926 337.722C219.704 337.722 219.486 337.612 219.358 337.41C219.16 337.098 219.253 336.683 219.565 336.484L234.689 326.888C235.003 326.689 235.417 326.782 235.615 327.095C235.813 327.408 235.721 327.822 235.408 328.02L220.285 337.617C220.172 337.688 220.049 337.722 219.926 337.722Z" fill="#363E44"/>
<path d="M218.761 274.96C218.761 274.96 278.038 275.421 323.473 276.09L313.563 182.439C313.563 182.439 268.442 165.539 218.516 168.758L218.761 274.96Z" fill="white"/>
<path d="M300.781 177.712L310.57 278.598L394.791 280.509C394.791 280.509 398.347 246.55 367.746 212.315C360.653 204.38 352.035 197.954 342.46 193.307C331.837 188.151 314.472 180.24 300.781 177.712Z" fill="#EFBC73"/>
<path d="M235.048 167.906L238.33 275.549C238.33 275.549 157.499 297.172 157.477 243.257C157.467 220.144 163.796 203.066 170.167 191.732C176.462 180.532 187.309 172.661 199.91 170.156C209.274 168.296 221.719 166.803 235.048 167.906Z" fill="#EFBC73"/>
<path d="M200.155 222.892C200.098 222.892 200.04 222.885 199.982 222.869C199.624 222.774 199.412 222.406 199.507 222.048L203.163 208.325C203.259 207.967 203.628 207.755 203.984 207.85C204.342 207.945 204.554 208.313 204.459 208.67L200.803 222.394C200.722 222.694 200.451 222.892 200.155 222.892Z" fill="#363E44"/>
<path d="M168.428 239.397C168.339 239.397 168.248 239.379 168.161 239.341C167.821 239.193 167.666 238.799 167.814 238.459C167.89 238.284 175.684 220.947 198.008 223.013C198.377 223.048 198.649 223.374 198.615 223.743C198.58 224.112 198.264 224.382 197.885 224.349C176.557 222.372 169.339 238.315 169.043 238.994C168.933 239.246 168.686 239.397 168.428 239.397Z" fill="#363E44"/>
<path d="M318.524 248.501C314.447 245.836 299.274 232.036 290.336 235.416C281.334 238.821 276.064 248.061 274.215 257.507C274.236 257.54 274.259 257.577 274.279 257.61C274.912 260.198 276.255 263.973 279.463 267C283.119 270.449 285.696 269.621 290.121 272.661C297.59 277.792 297.478 285.412 300.607 284.695C302.755 284.204 303.012 279.766 302.195 275.658C301.355 271.44 299.037 269.066 299.576 268.612C300.167 268.114 302.21 270.831 305.061 273.976C306.385 275.437 307.551 281.689 310.585 281.45C313.003 281.26 313.417 274.457 310.599 269.222C308.606 265.519 304.798 264.046 305.212 263.399C305.522 262.913 307.77 263.847 309.467 265.229C312.267 267.508 313.529 273.892 316.317 273.617C319.048 273.348 319.305 267.401 317.018 262.422C315.09 258.224 310.765 256.784 311.275 255.977C311.633 255.41 313.703 255.651 317.693 257.423C321.023 258.902 326.545 263.924 328.613 260.671C330.352 257.935 324.677 252.523 318.524 248.501Z" fill="#84524D"/>
<path d="M202.008 229.383C193.269 230.599 185.875 236.557 183.004 244.9C180.265 252.86 180.53 262.824 192.762 270.61C216.999 286.037 282.738 259.437 282.738 259.437L295.07 235.003C264.879 227.73 231.53 225.275 202.008 229.383Z" fill="#84524D"/>
<path d="M410.699 283.89C408.645 288.279 404.236 291.084 399.389 291.084H321.57L356.422 216.598H442.184L410.699 283.89Z" fill="#363E44"/>
<path d="M270.488 283.606C270.488 287.756 273.853 291.12 278.003 291.12H349.759L353.274 283.606H270.488Z" fill="#363E44"/>
<path d="M432.755 251.514C432.481 254.307 432.024 256.549 427.185 256.074C422.347 255.599 414.96 252.588 415.234 249.794C415.508 247.001 423.339 245.483 428.178 245.958C433.016 246.433 433.029 248.72 432.755 251.514Z" fill="#84524D"/>
<path d="M411.934 256.974C412.208 254.181 420.039 252.663 424.878 253.138C429.716 253.613 429.729 255.901 429.455 258.694L411.934 256.974Z" fill="#84524D"/>
<path d="M429.458 258.695C429.184 261.488 428.727 263.73 423.888 263.255C419.05 262.78 411.663 259.768 411.937 256.975L429.458 258.695Z" fill="#84524D"/>
<path d="M408.637 264.156C408.911 261.363 416.742 259.845 421.581 260.32C426.419 260.795 426.432 263.083 426.158 265.876L408.637 264.156Z" fill="#84524D"/>
<path d="M426.158 265.876C425.884 268.67 425.426 270.911 420.587 270.436C415.749 269.962 408.362 266.95 408.636 264.157L426.158 265.876Z" fill="#84524D"/>
<path d="M409.031 270.652C409.249 268.432 415.474 267.225 419.32 267.603C423.166 267.98 423.177 269.799 422.959 272.019L409.031 270.652Z" fill="#84524D"/>
<path d="M422.961 272.02C422.743 274.241 422.379 276.023 418.533 275.645C414.687 275.268 408.815 272.874 409.033 270.653L422.961 272.02Z" fill="#84524D"/>
<path d="M250.983 145.285C253.251 143.604 253.489 140.082 251.514 137.417C249.54 134.752 246.101 133.955 243.833 135.635C241.565 137.315 241.327 140.838 243.302 143.503C245.276 146.167 248.715 146.965 250.983 145.285Z" fill="#84524D"/>
<path d="M275.867 136.18C274.174 139.031 274.768 142.511 277.194 143.953C279.621 145.394 282.961 144.252 284.655 141.4C286.348 138.549 285.754 135.069 283.328 133.628C280.901 132.186 277.561 133.329 275.867 136.18Z" fill="#84524D"/>
<path d="M262.488 182.668C256.566 182.396 251.986 177.375 252.258 171.454L253.252 141.012L274.697 141.996L273.702 172.437C273.431 178.359 268.41 182.939 262.488 182.668Z" fill="#84524D"/>
<path d="M266.33 165.57C249.127 166.586 248.488 137.863 248.488 137.863L278.971 136.832C278.971 136.832 283.01 164.584 266.33 165.57Z" fill="#363E44"/>
<path d="M256.903 140.16C262.782 138.771 266.423 132.88 265.035 127.001C263.646 121.122 257.755 117.481 251.876 118.869C245.997 120.257 242.356 126.149 243.744 132.028C245.132 137.907 251.024 141.548 256.903 140.16Z" fill="#363E44"/>
<path d="M278.654 139.035C279.141 148.594 272.94 143.567 264.805 143.981C256.67 144.395 249.681 150.093 249.195 140.535C248.708 130.976 254.909 125.517 263.044 125.103C271.179 124.689 278.167 129.477 278.654 139.035Z" fill="#84524D"/>
<path d="M278.65 144.348C278.61 144.348 278.57 144.345 278.529 144.337C278.164 144.271 277.923 143.922 277.99 143.557C278.255 142.095 278.351 140.586 278.274 139.07C278.205 137.72 277.999 136.384 277.663 135.097C277.569 134.739 277.784 134.373 278.142 134.279C278.499 134.185 278.866 134.399 278.961 134.758C279.32 136.133 279.539 137.561 279.614 139.002C279.696 140.621 279.593 142.234 279.309 143.798C279.25 144.121 278.968 144.348 278.65 144.348Z" fill="#363E44"/>
<path d="M249.642 145.717C249.351 145.717 249.082 145.525 248.997 145.23C248.57 143.729 248.312 142.161 248.23 140.569C248.156 139.097 248.234 137.626 248.462 136.198C248.521 135.832 248.867 135.582 249.231 135.642C249.596 135.701 249.846 136.045 249.787 136.411C249.573 137.746 249.5 139.122 249.571 140.501C249.647 141.992 249.888 143.459 250.288 144.862C250.39 145.218 250.183 145.589 249.827 145.691C249.765 145.708 249.703 145.717 249.642 145.717Z" fill="#363E44"/>
<path d="M264.947 145.019C264.746 145.019 264.547 144.929 264.415 144.757C264.19 144.463 264.244 144.042 264.538 143.816C264.824 143.597 264.996 143.379 264.999 143.236C265.001 143.154 264.935 143.054 264.785 142.845C264.59 142.575 264.324 142.206 264.21 141.656C264.109 141.166 264.151 140.649 264.334 140.122C264.456 139.771 264.84 139.587 265.188 139.708C265.537 139.83 265.723 140.212 265.601 140.562C265.498 140.858 265.473 141.134 265.524 141.384C265.58 141.654 265.716 141.843 265.874 142.062C266.086 142.357 266.351 142.725 266.34 143.261C266.329 143.842 265.998 144.386 265.356 144.879C265.234 144.973 265.09 145.019 264.947 145.019Z" fill="#363E44"/>
<path d="M262.655 149.253C262.009 149.253 261.042 149.124 260.096 148.512C259.496 148.125 258.984 147.589 258.616 146.963C258.428 146.644 258.535 146.233 258.853 146.045C259.173 145.857 259.583 145.963 259.772 146.283C260.035 146.729 260.399 147.111 260.824 147.386C261.64 147.913 262.485 147.934 262.917 147.901C263.286 147.871 263.609 148.148 263.638 148.517C263.667 148.887 263.391 149.209 263.022 149.238C262.916 149.247 262.793 149.253 262.655 149.253Z" fill="white"/>
<path d="M247.25 135.522C247.25 135.522 255.126 136.689 263.293 127.063C263.293 127.063 278.461 146.898 290.129 122.979C290.129 122.979 283.294 125.996 279.628 121.229C273.794 113.645 259.793 107.52 254.25 121.521L247.25 135.522Z" fill="#363E44"/>
<path d="M273.594 136.641V136.642L273.558 136.64C273.543 136.715 273.498 136.811 273.42 136.813C273.333 136.928 273.299 137.109 273.242 137.23C273.14 137.448 272.808 137.276 272.91 137.058C272.979 136.912 272.487 137.21 272.269 137.307C271.576 137.615 270.871 137.891 270.156 138.145C269.822 138.264 269.488 138.385 269.151 138.492C268.881 138.578 267.99 138.909 267.916 138.87C267.036 139.761 266.566 140.586 266.566 140.586C266.566 140.586 267.92 141.107 269.635 141.111C269.638 141.088 269.643 141.065 269.645 141.041C269.674 140.81 273.572 139.681 273.687 139.85C275.303 138.702 276.188 137.153 276.188 137.153C276.188 137.153 275.078 136.725 273.594 136.641Z" fill="white"/>
<path d="M270.716 137.014C269.549 137.43 268.608 138.169 267.918 138.868C268.045 139.602 268.432 140.294 269.068 140.788C269.231 140.914 269.404 141.022 269.583 141.111C270.356 141.118 271.205 141.021 272.039 140.724C272.643 140.509 273.182 140.205 273.661 139.868C274.242 138.847 274.186 137.597 273.558 136.64C272.687 136.594 271.691 136.666 270.716 137.014Z" fill="#363E44"/>
<path d="M254.272 137.884V137.885L254.307 137.879C254.33 137.952 254.384 138.044 254.462 138.038C254.561 138.143 254.612 138.32 254.681 138.435C254.804 138.641 255.117 138.436 254.993 138.23C254.91 138.092 255.43 138.339 255.656 138.413C256.377 138.65 257.107 138.853 257.844 139.035C258.187 139.119 258.532 139.207 258.878 139.279C259.156 139.337 260.076 139.577 260.145 139.531C261.111 140.329 261.66 141.102 261.66 141.102C261.66 141.102 260.366 141.756 258.66 141.933C258.654 141.911 258.648 141.888 258.643 141.865C258.591 141.637 254.6 140.905 254.502 141.086C252.779 140.107 251.742 138.654 251.742 138.654C251.742 138.654 252.804 138.117 254.272 137.884Z" fill="white"/>
<path d="M257.171 137.965C258.374 138.262 259.385 138.903 260.142 139.528C260.09 140.272 259.773 140.999 259.191 141.554C259.041 141.697 258.88 141.821 258.712 141.928C257.943 142.012 257.088 142.001 256.228 141.789C255.606 141.636 255.039 141.389 254.528 141.101C253.848 140.143 253.777 138.894 254.306 137.879C255.168 137.746 256.166 137.718 257.171 137.965Z" fill="#363E44"/>
<path d="M521.181 138.232C548.21 111.202 548.21 67.3786 521.181 40.3488C494.151 13.3191 450.327 13.3191 423.297 40.3488C396.267 67.3786 396.267 111.202 423.297 138.232C450.327 165.262 494.151 165.262 521.181 138.232Z" fill="white"/>
<path d="M472.245 152.305C437.496 152.305 409.227 124.036 409.227 89.2877C409.227 54.5397 437.496 26.27 472.245 26.27C506.993 26.27 535.263 54.5397 535.263 89.2877C535.263 124.036 506.993 152.305 472.245 152.305ZM472.245 27.6115C438.236 27.6115 410.568 55.2795 410.568 89.2877C410.568 123.296 438.236 150.964 472.245 150.964C506.253 150.964 533.921 123.296 533.921 89.2877C533.921 55.2792 506.253 27.6115 472.245 27.6115Z" fill="#F2E6DC"/>
<path d="M509.541 119.028C509.397 119.028 509.253 118.982 509.13 118.886L471.833 89.8176C471.67 89.6904 471.574 89.4954 471.574 89.2886V50.7157C471.574 50.3452 471.874 50.0449 472.245 50.0449C472.616 50.0449 472.916 50.3452 472.916 50.7157V88.961L509.954 117.829C510.247 118.056 510.298 118.478 510.071 118.77C509.939 118.94 509.741 119.028 509.541 119.028Z" fill="#D87355"/>
<path d="M471.531 503.654L472.565 499.841C474.285 493.501 479.339 488.612 485.732 487.103L524.783 477.886C524.783 477.886 518.534 513.62 487.276 511.362C487.276 511.362 474.943 508.978 471.531 503.654Z" fill="#8B865C"/>
<path d="M512.355 516.641V522.367C512.355 544.388 494.504 562.24 472.482 562.24C450.461 562.24 432.609 544.388 432.609 522.367V516.641H512.355Z" fill="#EFBC73"/>
<path d="M561.427 423.428C561.427 423.428 568.428 468.67 540.976 474.088C517.236 478.773 500.5 463.062 500.693 462.277C500.695 462.269 500.697 462.261 500.699 462.251C502.07 456.659 505.8 451.933 510.923 449.307L561.427 423.428Z" fill="#8B865C"/>
<path d="M486.166 452.834L486.233 446.586C486.344 436.198 480.757 426.583 471.677 421.536L416.218 390.708C416.218 390.708 410.351 447.774 458.891 457.788C458.891 457.788 478.683 459.468 486.166 452.834Z" fill="#8B865C"/>
<path d="M468.861 488.685L468.774 487.816C467.993 480.092 462.57 473.63 455.098 471.521L422.345 462.278C422.345 462.278 419.458 482.321 442.165 489.695C456.957 494.498 468.861 488.685 468.861 488.685Z" fill="#8B865C"/>
<path d="M471.53 515.762C471.19 515.762 470.898 515.504 470.863 515.159L468.542 492.199C467.969 486.525 463.865 481.794 458.33 480.425L435.736 474.837C435.377 474.749 435.157 474.385 435.246 474.026C435.335 473.665 435.699 473.446 436.059 473.535L458.652 479.123C464.736 480.628 469.247 485.828 469.877 492.064L472.198 515.024C472.235 515.393 471.967 515.722 471.598 515.759C471.575 515.761 471.552 515.762 471.53 515.762Z" fill="#D3BBA3"/>
<path d="M482.362 515.762C482.348 515.762 482.335 515.762 482.321 515.761C481.951 515.738 481.669 515.42 481.692 515.051L485.308 455.901C485.852 446.983 480.709 438.606 472.509 435.058L441.717 421.732C441.377 421.585 441.221 421.19 441.368 420.85C441.516 420.51 441.911 420.355 442.25 420.501L473.042 433.827C481.758 437.599 487.225 446.503 486.646 455.982L483.03 515.132C483.009 515.488 482.714 515.762 482.362 515.762Z" fill="#D3BBA3"/>
<path d="M491.734 515.762C491.697 515.762 491.658 515.759 491.62 515.752C491.255 515.689 491.009 515.343 491.072 514.978L499.658 464.924C500.568 459.613 504.038 455.107 508.94 452.869L549.904 434.171C550.241 434.016 550.639 434.166 550.793 434.502C550.946 434.84 550.798 435.237 550.46 435.391L509.497 454.089C504.999 456.142 501.815 460.277 500.979 465.15L492.394 515.204C492.339 515.531 492.055 515.762 491.734 515.762Z" fill="#D3BBA3"/>
<path d="M462.342 513.825C461.293 507.129 457.423 501.204 451.713 497.552L445.547 493.608L445.253 497.159C444.467 506.669 452.387 514.626 461.899 513.864C462.045 513.852 462.193 513.839 462.342 513.825Z" fill="#8B865C"/>
</g>
<defs>
<clipPath id="clip0_2005_518">
<rect width="570" height="570" fill="white"/>
</clipPath>
</defs>
</svg>
