<svg width="570" height="570" viewBox="0 0 570 570" fill="none" xmlns="http://www.w3.org/2000/svg">
<g clip-path="url(#clip0_2005_365)">
<path d="M285 570C442.401 570 570 442.401 570 285C570 127.599 442.401 0 285 0C127.599 0 0 127.599 0 285C0 442.401 127.599 570 285 570Z" fill="#F2E6DC"/>
<path d="M277.188 304.683L315.436 289.584L320.469 488.878L294.712 488.717L277.188 304.683Z" fill="#776E42"/>
<path d="M532.57 490.444H299.105L307.606 370.099L299.105 246.724C299.105 246.724 333.545 188.932 411.664 188.932C496.576 188.932 532.57 246.724 532.57 246.724L524.07 370.099L532.57 490.444Z" fill="#8B865C"/>
<path d="M313.406 490.891H261.066V326.835C261.066 312.932 272.337 301.663 286.239 301.663C301.243 301.663 313.406 313.826 313.406 328.83V490.891Z" fill="#9E9569"/>
<path d="M520.939 547.128C520.852 547.128 520.764 547.117 520.675 547.095C519.793 546.876 517.956 546.419 512.266 519.536C509.495 506.445 507.143 493.296 507.12 493.165C507.054 492.791 507.302 492.435 507.675 492.368C508.05 492.302 508.406 492.551 508.472 492.924C512.77 517.006 518.491 543.204 520.868 545.636C523.016 541.624 521.911 505.054 520.622 481.03C520.602 480.65 520.892 480.327 521.271 480.307C521.639 480.278 521.973 480.577 521.994 480.956C522.331 487.23 525.187 542.379 521.849 546.645C521.603 546.96 521.281 547.128 520.939 547.128Z" fill="#363E44"/>
<path d="M271.658 545.252C271.316 545.252 270.994 545.084 270.748 544.77C267.41 540.502 270.266 485.354 270.603 479.08C270.624 478.7 270.944 478.414 271.325 478.43C271.704 478.451 271.995 478.774 271.974 479.153C270.683 503.21 269.577 539.847 271.726 543.763C274.102 541.348 279.826 515.139 284.124 491.047C284.191 490.674 284.545 490.424 284.921 490.492C285.294 490.558 285.543 490.915 285.476 491.289C285.453 491.42 283.102 504.568 280.331 517.659C274.64 544.544 272.804 545 271.921 545.22C271.833 545.241 271.745 545.252 271.658 545.252Z" fill="#363E44"/>
<path d="M507.424 439.26H285.266L295.027 411.606H498.263L507.424 439.26Z" fill="#9E9569"/>
<path d="M502.503 448.661H285.266V490.443H502.503V448.661Z" fill="#776E42"/>
<path d="M251.153 478.985L244.148 513.786L289.273 524.064L300.629 479.455L251.153 478.985Z" fill="#E2A18D"/>
<path d="M196.488 548.162H294.923V505.956H235.117C213.783 505.956 196.488 523.251 196.488 544.585V548.162Z" fill="#E6D0BE"/>
<path d="M242.243 515.05C242.075 515.05 241.906 514.989 241.774 514.865L233.088 506.725C232.812 506.465 232.797 506.031 233.057 505.754C233.316 505.477 233.75 505.463 234.028 505.723L242.713 513.863C242.99 514.122 243.004 514.557 242.744 514.833C242.609 514.977 242.426 515.05 242.243 515.05Z" fill="#363E44"/>
<path d="M232.368 517.826C232.2 517.826 232.031 517.765 231.899 517.641L223.213 509.501C222.937 509.242 222.922 508.807 223.182 508.53C223.44 508.254 223.875 508.24 224.153 508.499L232.838 516.639C233.115 516.898 233.129 517.333 232.869 517.609C232.734 517.754 232.551 517.826 232.368 517.826Z" fill="#363E44"/>
<path d="M462.547 325.939L386.148 316.768L385.345 340.867L294.713 342.366C281.96 342.577 270.713 350.769 266.6 362.841L221.621 494.87H312.606L325.863 408.294C363.586 407.991 410.19 407.843 431.381 408.88C484.793 411.494 462.547 325.939 462.547 325.939Z" fill="#2D353A"/>
<path d="M294.715 488.717L287.711 523.518L332.835 533.796L344.192 489.187L294.715 488.717Z" fill="#E2A18D"/>
<path d="M240.051 557.895H338.486V515.688H278.68C257.346 515.688 240.051 532.983 240.051 554.317V557.895Z" fill="white"/>
<path d="M285.806 524.782C285.638 524.782 285.469 524.721 285.336 524.597L276.651 516.456C276.374 516.197 276.36 515.762 276.619 515.486C276.879 515.208 277.313 515.194 277.59 515.454L286.275 523.595C286.552 523.854 286.566 524.289 286.307 524.565C286.172 524.709 285.989 524.782 285.806 524.782Z" fill="#363E44"/>
<path d="M275.93 527.558C275.762 527.558 275.593 527.496 275.461 527.372L266.776 519.232C266.499 518.973 266.485 518.538 266.744 518.262C267.003 517.985 267.438 517.971 267.715 518.23L276.4 526.37C276.677 526.629 276.691 527.064 276.432 527.341C276.296 527.484 276.114 527.558 275.93 527.558Z" fill="#363E44"/>
<path d="M506.11 335.672L425.966 314.084L422.387 338.242C420.777 346.406 419.588 350.442 411.269 350.611L338.275 352.099C325.523 352.309 314.275 360.502 310.162 372.574L265.184 504.603H356.168L369.425 418.027C407.148 417.724 453.752 417.576 474.943 418.613C528.356 421.227 506.11 335.672 506.11 335.672Z" fill="#363E44"/>
<path d="M298.941 406.226C298.873 406.226 298.803 406.216 298.735 406.194C298.373 406.081 298.172 405.695 298.285 405.333C299.283 402.154 300.216 399.037 301.118 396.024C307.824 373.607 313.121 355.901 333.737 351.684C334.107 351.609 334.471 351.847 334.547 352.219C334.623 352.591 334.384 352.954 334.012 353.03C314.202 357.082 309.008 374.44 302.434 396.417C301.53 399.435 300.597 402.556 299.596 405.745C299.504 406.038 299.233 406.226 298.941 406.226Z" fill="#E6D0BE"/>
<path d="M351.866 207.878C351.867 207.877 351.868 207.876 351.867 207.875C338.937 172.791 330.437 147.651 327.507 139.994C327.2 139.191 326.665 137.774 325.497 136.188C321.166 130.313 315.074 131.551 307.702 127.451C299.337 122.8 297.26 115.444 294.975 116.313C293.386 116.917 293.388 119.912 295.617 125.522L295.616 125.522C293.432 121.454 290.23 116.067 287.986 117.28C285.469 118.82 288.488 125.591 290.514 129.598C288.062 124.748 285.306 122.903 284.223 123.891C282.519 125.447 283.545 129.651 287.035 135.935L287.035 135.935C283.413 132.269 281.988 131.92 281.244 133.027C279.885 135.048 282.852 140.16 286.167 144.278C289.9 148.914 294.403 151.214 297.276 152.597C297.277 152.597 297.278 152.598 297.278 152.598C303.786 178.11 307.938 194.523 312.774 215.234C313.764 219.471 318.172 221.951 322.308 220.602C333.491 216.953 339.722 214.699 351.866 207.878Z" fill="#E2A18D"/>
<path d="M313.587 132.789C310.887 123.711 311.836 119.864 313.289 119.483C315.731 118.84 321.209 125.646 326.826 138.417C322.997 137.179 317.416 134.026 313.587 132.789Z" fill="#E2A18D"/>
<path d="M311.984 149.171C311.687 149.171 311.414 148.978 311.325 148.679C310.874 147.156 309.885 144.96 307.733 143.147C304.685 140.579 301.182 140.422 299.818 140.471C299.449 140.51 299.12 140.19 299.106 139.811C299.092 139.432 299.388 139.113 299.767 139.099C301.284 139.044 305.203 139.22 308.618 142.096C311.03 144.129 312.137 146.586 312.642 148.289C312.75 148.653 312.542 149.035 312.179 149.143C312.114 149.162 312.048 149.171 311.984 149.171Z" fill="#363E44"/>
<path d="M321.73 133.854C321.613 133.854 321.495 133.824 321.388 133.763C319.666 132.772 317.69 132.197 315.597 131.59C314.585 131.295 313.538 130.991 312.447 130.623C312.088 130.501 311.895 130.112 312.017 129.752C312.138 129.392 312.529 129.2 312.887 129.322C313.95 129.681 314.982 129.981 315.98 130.271C318.155 130.902 320.207 131.499 322.073 132.572C322.402 132.761 322.515 133.181 322.326 133.51C322.198 133.731 321.967 133.854 321.73 133.854Z" fill="#363E44"/>
<path d="M301.896 132.111C301.774 132.111 301.65 132.079 301.539 132.011C300.518 131.388 299.551 130.668 298.666 129.872C297.379 128.715 296.252 127.387 295.312 125.925C295.107 125.606 295.2 125.181 295.519 124.976C295.838 124.77 296.262 124.863 296.468 125.183C297.34 126.541 298.39 127.776 299.585 128.851C300.407 129.591 301.305 130.259 302.254 130.839C302.578 131.036 302.68 131.458 302.482 131.782C302.353 131.995 302.127 132.111 301.896 132.111Z" fill="#363E44"/>
<path d="M296.497 135.548C296.375 135.548 296.252 135.516 296.14 135.447C295.118 134.824 294.152 134.104 293.267 133.308C291.983 132.153 290.854 130.825 289.914 129.362C289.709 129.043 289.801 128.617 290.12 128.413C290.44 128.207 290.864 128.3 291.069 128.619C291.943 129.979 292.992 131.214 294.186 132.287C295.008 133.026 295.906 133.695 296.856 134.275C297.179 134.473 297.282 134.895 297.084 135.219C296.955 135.431 296.729 135.548 296.497 135.548Z" fill="#363E44"/>
<path d="M293.157 142.577C293.035 142.577 292.911 142.545 292.8 142.477C291.781 141.856 290.815 141.136 289.928 140.338C288.641 139.181 287.513 137.854 286.574 136.391C286.369 136.072 286.461 135.647 286.781 135.442C287.099 135.235 287.525 135.329 287.73 135.649C288.602 137.008 289.651 138.242 290.846 139.317C291.671 140.058 292.568 140.727 293.515 141.305C293.839 141.502 293.941 141.925 293.743 142.248C293.614 142.46 293.388 142.577 293.157 142.577Z" fill="#363E44"/>
<path d="M486.984 194.952C486.984 194.952 437.794 185.091 398.399 195.21L384.359 347.193C391.454 358.403 463.991 369.114 513.649 358.377L486.984 194.952Z" fill="white"/>
<path d="M428.009 190.329L407.619 362.851L380.106 346.074L388.552 248.239C388.552 248.239 309.173 250.815 302.246 188.146L340.276 170.713C340.276 170.713 342.597 190.418 371.208 193.58C399.819 196.743 407.248 190.7 428.009 190.329Z" fill="#84524D"/>
<path d="M460.83 190.715C460.428 191.882 472.709 364.864 472.709 364.864L509.617 363.522L515.583 288.992C515.583 288.992 525.563 294.947 539.509 286.975C553.455 279.003 548.161 236.988 525.138 213.968C499.311 188.146 460.83 190.715 460.83 190.715Z" fill="#84524D"/>
<path d="M383.387 215.928L388.817 212.254L429.225 229.344L423.954 231.26L383.387 215.928Z" fill="#F2E6DC"/>
<path d="M431.778 230.782L475.379 217.845L466.915 214.332L427.625 229.504L431.778 230.782Z" fill="#F2E6DC"/>
<path d="M382.374 215.129L426.455 229.397L426.135 299.139L381.043 273.904L382.374 215.129Z" fill="#EFBC73"/>
<path d="M433.162 229.184H425.922V299.032H433.162V229.184Z" fill="#FFD092"/>
<path d="M432.578 229.184L476.978 215.928L476.819 283.007L433.164 299.032L432.578 229.184Z" fill="#EFBC73"/>
<path d="M465.378 270.232C472.708 267.145 479.421 261.235 483.796 254.735C485.549 252.132 486.985 249.251 488.237 246.356C485.311 244.423 483.13 242.994 482.07 242.322C481.352 241.866 480.089 241.057 478.223 240.489C471.31 238.385 467.206 242.97 458.928 244.075C449.535 245.328 443.537 240.716 442.236 242.756C441.331 244.176 443.104 246.552 448.192 249.689L448.191 249.69C444.052 247.751 438.324 245.367 437.259 247.657C436.171 250.368 442.572 253.959 446.551 255.942C441.735 253.542 438.456 253.706 438.181 255.131C437.747 257.374 441.048 260.105 447.535 263.031L447.535 263.031C442.491 262.262 441.153 262.828 441.217 264.147C441.333 266.555 446.712 268.86 451.779 270.169C457.401 271.621 462.272 270.831 465.378 270.232Z" fill="#E2A18D"/>
<path d="M469.418 243.197C475.783 236.126 473.282 230.016 474.523 229.198C476.611 227.822 479.771 233.187 483.618 244.287C479.635 244.338 473.401 243.146 469.418 243.197Z" fill="#E2A18D"/>
<path d="M454.956 251.429C454.364 251.429 453.773 251.401 453.185 251.347C451.482 251.188 449.8 250.801 448.188 250.196C447.833 250.062 447.653 249.666 447.786 249.311C447.92 248.955 448.315 248.778 448.67 248.909C450.169 249.472 451.731 249.832 453.312 249.978C454.407 250.08 455.514 250.081 456.606 249.978C456.975 249.941 457.318 250.22 457.353 250.598C457.388 250.976 457.111 251.31 456.733 251.346C456.144 251.401 455.55 251.429 454.956 251.429Z" fill="#363E44"/>
<path d="M452.702 257.349C452.11 257.349 451.519 257.321 450.931 257.267C449.228 257.108 447.547 256.722 445.934 256.116C445.579 255.982 445.399 255.586 445.532 255.231C445.666 254.876 446.061 254.697 446.417 254.829C447.915 255.392 449.477 255.752 451.058 255.898C452.15 256.001 453.259 256 454.352 255.898C454.724 255.862 455.064 256.14 455.1 256.518C455.134 256.896 454.857 257.231 454.479 257.266C453.889 257.321 453.295 257.349 452.702 257.349Z" fill="#363E44"/>
<path d="M454.199 264.906C453.608 264.906 453.017 264.88 452.431 264.825C450.729 264.667 449.047 264.28 447.434 263.674C447.079 263.541 446.899 263.145 447.032 262.79C447.166 262.434 447.562 262.257 447.917 262.388C449.415 262.952 450.977 263.311 452.558 263.457C453.648 263.559 454.755 263.558 455.852 263.456C456.233 263.42 456.564 263.7 456.6 264.078C456.634 264.455 456.357 264.789 455.978 264.825C455.388 264.879 454.793 264.906 454.199 264.906Z" fill="#363E44"/>
<path d="M525.124 249.735L472.802 240.449C471.498 240.218 470.225 240.994 469.832 242.259L461.582 268.874L518.226 285.13C528.157 287.24 537.872 280.738 539.708 270.752C541.517 260.914 534.973 251.483 525.124 249.735Z" fill="#E2A18D"/>
<path d="M435.594 195.777C440.564 203.308 451.548 204.594 455.327 193.258L457.376 160.442L436.677 158.659L435.594 195.777Z" fill="#E2A18D"/>
<path d="M446.214 141.629C445.339 141.439 436.933 139.743 431.135 144.944C426.821 148.814 425.71 154.304 425.239 163.793C424.684 174.968 425.914 181.726 428.847 184.291C433.481 188.343 449.503 182.393 456.327 173.384C461.253 166.88 461.847 157.826 458.328 150.403C454.818 143 446.773 141.751 446.214 141.629Z" fill="#E2A18D"/>
<path d="M435.405 186.475C435.065 186.475 434.77 186.224 434.725 185.878C434.675 185.502 434.94 185.157 435.316 185.108C441.608 184.284 450.984 179.648 455.782 173.315C456.01 173.013 456.44 172.952 456.744 173.182C457.046 173.411 457.106 173.842 456.876 174.144C451.673 181.014 441.976 185.622 435.494 186.469C435.464 186.473 435.434 186.475 435.405 186.475Z" fill="#363E44"/>
<path d="M443.248 161.076C443.248 161.076 441.852 164.209 438.97 166.427C438.364 166.893 435.76 161.108 436.556 160.937C440.04 160.187 443.248 161.076 443.248 161.076Z" fill="white"/>
<path d="M427.867 168.327C427.867 168.327 429.912 163.739 434.159 161.737C434.947 161.365 435.755 161.109 436.55 160.938C438.205 162.18 439.183 164.224 438.979 166.416C438.37 166.886 437.697 167.315 436.954 167.666C432.708 169.668 427.867 168.327 427.867 168.327Z" fill="#363E44"/>
<path d="M433.889 137.105C437.884 134.278 443.549 133.526 448.966 134.427L442.622 136.192L452.707 135.326C456.948 136.677 460.722 139.064 462.983 142.27C468.967 150.754 468.233 158.509 458.173 175.552C457.708 170.092 457.904 162.032 454.318 160.204C452 159.023 449.585 159.429 448.451 159.71C447.78 154.269 447.68 149.213 442.876 148.263C437.781 147.255 429.232 151.707 428.663 152.181C428.628 151.065 426.781 142.134 433.889 137.105Z" fill="#363E44"/>
<path d="M458.239 166.089C460.306 162.793 459.724 158.706 456.939 156.959C454.154 155.211 450.22 156.466 448.153 159.762C446.086 163.057 446.668 167.144 449.453 168.892C452.238 170.639 456.172 169.384 458.239 166.089Z" fill="#E2A18D"/>
<path d="M455.344 165.81C455.18 165.81 455.016 165.752 454.885 165.634C454.603 165.379 454.58 164.945 454.834 164.664C454.967 164.516 455.09 164.353 455.198 164.18C456.045 162.829 455.846 161.172 454.755 160.486C454.5 160.328 454.215 160.232 453.906 160.201C453.529 160.165 453.252 159.83 453.288 159.452C453.325 159.074 453.668 158.799 454.038 158.835C454.561 158.885 455.048 159.049 455.484 159.323C457.218 160.411 457.611 162.917 456.362 164.91C456.21 165.15 456.04 165.377 455.854 165.583C455.719 165.733 455.532 165.81 455.344 165.81Z" fill="#363E44"/>
<path d="M448.988 156.037C448.1 155.91 448.208 166.171 444.794 169.876C439.937 175.145 432.239 174.767 425.32 173.858C423.617 176.966 416.693 190.051 420.955 194.501C425.351 199.091 441.284 194.118 447.997 183.259C453.924 173.669 450.405 156.239 448.988 156.037Z" fill="#363E44"/>
<path d="M431.517 179.769C430.425 179.769 429.376 179.129 428.849 178.094C428.676 177.756 428.81 177.343 429.148 177.171C429.486 176.997 429.899 177.132 430.072 177.471C430.407 178.128 431.109 178.498 431.779 178.37C432.607 178.213 432.944 177.322 432.948 177.314C433.078 176.96 433.472 176.775 433.825 176.902C434.18 177.03 434.367 177.416 434.242 177.772C434.218 177.839 433.65 179.412 432.037 179.72C431.864 179.752 431.689 179.769 431.517 179.769Z" fill="#E2A18D"/>
<path d="M425.974 164.786C423.186 167.628 420.875 169.307 421.524 171.118C422.372 173.483 426.081 173.837 426.309 173.82L425.974 164.786Z" fill="#E2A18D"/>
<path d="M548.937 490.57H496.598V325.828C496.598 311.926 507.868 300.656 521.77 300.656C536.774 300.656 548.937 312.82 548.937 327.824V490.57Z" fill="#9E9569"/>
<path d="M496.597 490.572C496.596 490.572 496.596 490.572 496.596 490.572C496.216 490.571 495.91 490.263 495.91 489.884L496.182 356.134C496.183 355.756 496.49 355.449 496.869 355.449C496.87 355.449 496.87 355.449 496.87 355.449C497.25 355.45 497.557 355.759 497.556 356.137L497.283 489.887C497.283 490.265 496.976 490.572 496.597 490.572Z" fill="#E6D0BE"/>
<path d="M111.658 295.484C107.761 301.026 109.798 309.174 109.798 309.174C109.798 309.174 118.154 308.334 122.051 302.792C125.948 297.249 123.912 289.102 123.912 289.102C123.912 289.102 115.556 289.941 111.658 295.484Z" fill="#776E42"/>
<path d="M89.8356 316.724C93.5855 322.531 102.215 323.629 102.215 323.629C102.215 323.629 104.766 315.312 101.016 309.505C97.2659 303.698 88.6361 302.6 88.6361 302.6C88.6361 302.6 86.0858 310.917 89.8356 316.724Z" fill="#776E42"/>
<path d="M88.5168 371.604C82.9171 377.774 84.0562 387.929 84.0562 387.929C84.0562 387.929 94.2738 388.08 99.8735 381.91C105.473 375.74 104.334 365.585 104.334 365.585C104.334 365.585 94.1162 365.434 88.5168 371.604Z" fill="#776E42"/>
<path d="M108.679 349.911C116.13 347.937 120.206 338.924 120.206 338.924C120.206 338.924 112.201 333.112 104.75 335.087C97.2986 337.062 93.2227 346.075 93.2227 346.075C93.2227 346.075 101.228 351.886 108.679 349.911Z" fill="#776E42"/>
<path d="M88.9828 471.358C88.6669 471.358 88.3825 471.138 88.3125 470.817C85.3756 457.326 81.716 426.101 81.7902 410.241C82.0082 363.442 98.2065 326.769 111.756 304.245C111.952 303.921 112.374 303.815 112.699 304.011C113.024 304.206 113.129 304.629 112.933 304.954C99.472 327.329 83.3806 363.761 83.1638 410.248C83.09 426.027 86.732 457.099 89.6546 470.525C89.7353 470.896 89.5004 471.261 89.1298 471.342C89.0803 471.353 89.0311 471.358 88.9828 471.358Z" fill="#363E44"/>
<path d="M98.7255 416.13C94.3611 423.183 84.3322 424.885 84.3322 424.885C84.3322 424.885 81.3788 415.151 85.7432 408.097C90.1076 401.043 100.137 399.342 100.137 399.342C100.137 399.342 103.09 409.076 98.7255 416.13Z" fill="#8B865C"/>
<path d="M31.6957 284.073C34.7949 290.064 30.5277 298.428 30.5277 298.428C30.5277 298.428 21.2354 297.079 18.1363 291.087C15.0371 285.096 19.3043 276.732 19.3043 276.732C19.3043 276.732 28.5966 278.082 31.6957 284.073Z" fill="#8B865C"/>
<path d="M58.2241 307.49C54.1865 314.015 44.4223 315.289 44.4223 315.289C44.4223 315.289 41.2042 305.983 45.2415 299.457C49.2792 292.932 59.0433 291.658 59.0433 291.658C59.0433 291.658 62.2615 300.964 58.2241 307.49Z" fill="#8B865C"/>
<path d="M82.7219 350.471C78.3578 357.524 68.3283 359.226 68.3283 359.226C68.3283 359.226 65.3749 349.492 69.7393 342.438C74.1034 335.384 84.1329 333.683 84.1329 333.683C84.1329 333.683 87.0863 343.417 82.7219 350.471Z" fill="#8B865C"/>
<path d="M61.6045 388.45C55.3784 382.969 55.375 372.797 55.375 372.797C55.375 372.797 65.4659 371.51 71.6916 376.991C77.9177 382.472 77.9212 392.644 77.9212 392.644C77.9212 392.644 67.8303 393.931 61.6045 388.45Z" fill="#8B865C"/>
<path d="M41.8107 341.588C34.1562 341.047 28.4883 332.995 28.4883 332.995C28.4883 332.995 35.2311 325.819 42.8856 326.359C50.5401 326.9 56.208 334.952 56.208 334.952C56.208 334.952 49.4655 342.128 41.8107 341.588Z" fill="#8B865C"/>
<path d="M77.1384 478.638C77.0895 478.638 77.0394 478.633 76.9895 478.622C76.6192 478.54 76.3853 478.174 76.4672 477.803C82.5815 450.128 82.9534 422.155 77.5723 394.66C68.6837 349.244 46.1504 316.626 28.8118 297.259C28.5589 296.977 28.5828 296.542 28.8653 296.289C29.1485 296.036 29.582 296.061 29.835 296.343C47.2879 315.838 69.9714 348.673 78.9201 394.395C84.3376 422.077 83.9635 450.239 77.8081 478.099C77.7377 478.42 77.4536 478.638 77.1384 478.638Z" fill="#363E44"/>
<path d="M34.2516 349.252C38.2765 353.327 37.7186 360.404 37.7186 360.404C37.7186 360.404 30.6354 360.874 26.6105 356.799C22.5856 352.724 23.1435 345.647 23.1435 345.647C23.1435 345.647 30.2267 345.177 34.2516 349.252Z" fill="#776E42"/>
<path d="M55.4163 363.904C53.103 369.27 46.0627 371.393 46.0627 371.393C46.0627 371.393 42.7729 364.817 45.0859 359.451C47.3989 354.085 54.4395 351.962 54.4395 351.962C54.4395 351.962 57.7296 358.538 55.4163 363.904Z" fill="#776E42"/>
<path d="M75.1182 411.819C73.1693 418.587 65.3606 422.281 65.3606 422.281C65.3606 422.281 60.7118 415 62.6611 408.232C64.6103 401.464 72.4187 397.771 72.4187 397.771C72.4187 397.771 77.0671 405.051 75.1182 411.819Z" fill="#776E42"/>
<path d="M63.2379 457.078C58.3932 451.966 59.1709 443.363 59.1709 443.363C59.1709 443.363 67.8032 443.049 72.6476 448.162C77.4922 453.274 76.7145 461.877 76.7145 461.877C76.7145 461.877 68.0826 462.191 63.2379 457.078Z" fill="#776E42"/>
<path d="M44.3505 394.209C37.8625 393.605 33.2031 386.662 33.2031 386.662C33.2031 386.662 39.0629 380.697 45.5509 381.301C52.039 381.904 56.6983 388.847 56.6983 388.847C56.6983 388.847 50.8386 394.812 44.3505 394.209Z" fill="#776E42"/>
<path d="M76.9428 479.095C76.9316 479.095 76.9203 479.095 76.9091 479.094C76.5304 479.076 76.2379 478.754 76.256 478.375C76.8587 465.842 76.0868 453.251 73.9629 440.953C67.2808 402.256 48.7789 374.154 34.4345 357.395C34.1881 357.106 34.2214 356.673 34.5096 356.426C34.798 356.18 35.2312 356.214 35.4779 356.501C49.9344 373.392 68.5809 401.714 75.3163 440.719C77.4573 453.117 78.2351 465.808 77.628 478.441C77.6103 478.809 77.3069 479.095 76.9428 479.095Z" fill="#363E44"/>
<path d="M101.114 466.282H47.1992V555.055H101.114V466.282Z" fill="#D87355"/>
<path d="M260.856 13.2075H48.6523V276.138H260.856V13.2075Z" fill="#F7F1EB"/>
<path d="M176.218 231.694H77.5938V158.323L126.906 123.089L176.218 158.323V231.694Z" fill="#D3BBA3"/>
<path d="M176.217 155.508C176.079 155.508 175.939 155.467 175.818 155.38L126.905 120.432L77.9925 155.38C77.6832 155.6 77.2539 155.529 77.0343 155.221C76.8138 154.912 76.8852 154.484 77.1935 154.263L126.505 119.029C126.744 118.858 127.065 118.858 127.304 119.029L176.616 154.263C176.925 154.483 176.996 154.912 176.776 155.221C176.642 155.408 176.431 155.508 176.217 155.508Z" fill="#BC8271"/>
<path d="M153.01 202.625H44.6719V279.919H153.01V202.625Z" fill="#E6D0BE"/>
<path d="M193.7 277.016H115.656V223.351L156.47 217.34L193.7 223.351V277.016Z" fill="#D3BBA3"/>
<path d="M193.7 223.351H115.656L154.679 198.434L193.7 223.351Z" fill="#BC8271"/>
<path d="M183.304 229.667H126.051V267.504H183.304V229.667Z" fill="#F7F1EB"/>
<path d="M142.788 266.891C142.409 266.891 142.102 266.584 142.102 266.204V231.304C142.102 230.924 142.409 230.617 142.788 230.617C143.168 230.617 143.475 230.924 143.475 231.304V266.204C143.475 266.584 143.168 266.891 142.788 266.891Z" fill="white"/>
<path d="M166.566 266.891C166.186 266.891 165.879 266.584 165.879 266.204V231.304C165.879 230.924 166.186 230.617 166.566 230.617C166.945 230.617 167.253 230.924 167.253 231.304V266.204C167.253 266.584 166.945 266.891 166.566 266.891Z" fill="white"/>
<path d="M70.4704 223.351H52.9805V274.898H70.4704V223.351Z" fill="#BC8271"/>
<path d="M91.4587 223.351H73.9688V274.898H91.4587V223.351Z" fill="#BC8271"/>
<path d="M163.759 161.418H128.84V189.881H163.759V161.418Z" fill="#F7F1EB"/>
<path d="M141.945 190.568C141.565 190.568 141.258 190.261 141.258 189.882V161.419C141.258 161.04 141.565 160.732 141.945 160.732C142.324 160.732 142.631 161.04 142.631 161.419V189.882C142.631 190.261 142.324 190.568 141.945 190.568Z" fill="white"/>
<path d="M127.359 161.418H90.0508V189.881H127.359V161.418Z" fill="#F7F1EB"/>
<path d="M103.386 190.568C103.007 190.568 102.699 190.261 102.699 189.882V161.419C102.699 161.04 103.007 160.732 103.386 160.732C103.765 160.732 104.073 161.04 104.073 161.419V189.882C104.073 190.261 103.765 190.568 103.386 190.568Z" fill="white"/>
<path d="M41.0117 7.33203V281.267H272.109V7.33203H41.0117ZM255.763 264.921H57.3576V23.1142H255.763V264.921Z" fill="white"/>
<path d="M157.683 16.3501H146.41V269.993H157.683V16.3501Z" fill="white"/>
<path d="M209.029 98.4903C226.591 98.4903 240.828 84.2534 240.828 66.6914C240.828 49.1294 226.591 34.8926 209.029 34.8926C191.467 34.8926 177.23 49.1294 177.23 66.6914C177.23 84.2534 191.467 98.4903 209.029 98.4903Z" fill="#EFBC73"/>
<path d="M412.624 72.8537C412.245 72.8537 411.938 72.5466 411.938 72.1669V1.12869C411.938 0.749005 412.245 0.441895 412.624 0.441895C413.004 0.441895 413.311 0.749005 413.311 1.12869V72.1669C413.311 72.5466 413.004 72.8537 412.624 72.8537Z" fill="#E6D0BE"/>
<path d="M374.07 98.5803C373.69 98.5803 373.383 98.2732 373.383 97.8935V1.12869C373.383 0.749005 373.69 0.441895 374.07 0.441895C374.449 0.441895 374.756 0.749005 374.756 1.12869V97.8935C374.756 98.2732 374.449 98.5803 374.07 98.5803Z" fill="#E6D0BE"/>
<path d="M400.981 93.5098H424.266V50.8249H400.981V93.5098Z" fill="#D3BBA3"/>
<path d="M362.426 119.237H385.711V76.5519H362.426V119.237Z" fill="#D3BBA3"/>
</g>
<defs>
<clipPath id="clip0_2005_365">
<rect width="570" height="570" fill="white"/>
</clipPath>
</defs>
</svg>
