<svg width="43" height="43" viewBox="0 0 43 43" fill="none" xmlns="http://www.w3.org/2000/svg">
<rect width="43" height="43" rx="5" fill="#F5F4F6"/>
<g clip-path="url(#clip0_2005_228)">
<path d="M12.4766 15.3908C12.5034 15.2721 12.5283 15.1529 12.5576 15.0348C12.8664 13.7885 13.9955 12.8962 15.2793 12.8954C19.4136 12.893 23.548 12.8928 27.6824 12.8954C29.2273 12.8964 30.4853 14.1439 30.4923 15.6875C30.5002 17.4295 30.4951 19.1715 30.4937 20.9134C30.4933 21.3434 30.1943 21.6551 29.7911 21.6555C29.3883 21.6559 29.0877 21.3435 29.0874 20.9148C29.0859 19.2197 29.0869 17.5246 29.0866 15.8296C29.0864 14.8899 28.5005 14.3024 27.5636 14.3024C23.5113 14.3023 19.4591 14.3023 15.4068 14.3024C14.4691 14.3024 13.8844 14.8889 13.8843 15.8299C13.8841 18.6863 13.8835 21.5427 13.8847 24.3991C13.8851 25.1161 14.3258 25.678 15.0042 25.8235C15.1345 25.8514 15.272 25.8545 15.4062 25.8546C19.4585 25.8561 23.5107 25.8565 27.563 25.8554C28.4666 25.8552 29.0249 25.3321 29.0875 24.4351C29.1146 24.0484 29.431 23.7578 29.813 23.7689C30.1933 23.78 30.4887 24.0886 30.4939 24.4803C30.511 25.7796 29.492 26.999 28.2005 27.2135C27.9821 27.2497 27.7574 27.2607 27.5355 27.2616C26.345 27.2661 25.1546 27.2638 23.9641 27.2638C23.8944 27.2638 23.8247 27.2638 23.724 27.2638C23.8495 27.7624 23.97 28.2411 24.0926 28.7283C24.7426 28.7283 25.3814 28.7248 26.0201 28.7296C26.4047 28.7325 26.7021 29.0097 26.728 29.3741C26.7557 29.7646 26.4711 30.0983 26.08 30.1331C26.045 30.1362 26.0097 30.1354 25.9745 30.1354C22.9837 30.1354 19.9929 30.1358 17.0021 30.1351C16.5576 30.135 16.2429 29.842 16.2418 29.4329C16.2406 29.0225 16.5514 28.7299 16.9975 28.7283C17.6187 28.7259 18.24 28.7276 18.8773 28.7276C18.9988 28.2487 19.1192 27.7745 19.2462 27.2741C19.1631 27.2701 19.0968 27.2642 19.0305 27.2641C17.8108 27.2636 16.5908 27.2516 15.3712 27.2668C13.9625 27.2844 12.8651 26.332 12.5645 25.1457C12.5315 25.0157 12.5058 24.884 12.4766 24.753C12.4766 21.6323 12.4766 18.5115 12.4766 15.3908ZM22.6242 28.7211C22.6169 28.6686 22.6149 28.6225 22.6039 28.5786C22.5001 28.165 22.398 27.7509 22.2844 27.34C22.2743 27.3036 22.1869 27.268 22.1349 27.2671C21.7723 27.2608 21.4095 27.2637 21.0468 27.2637C20.6996 27.2637 20.6987 27.2635 20.6158 27.5929C20.5222 27.9652 20.4303 28.3379 20.3349 28.7211C21.1087 28.7211 21.8619 28.7211 22.6242 28.7211Z" fill="#423F49"/>
<path d="M19.8054 19.5608C20.2503 19.9017 20.5782 20.3216 20.78 20.8369C20.9445 21.2569 20.7996 21.654 20.4248 21.8095C20.04 21.9692 19.6544 21.7888 19.4772 21.3661C19.014 20.2616 17.603 20.0537 16.8915 20.9892C16.7972 21.1131 16.7287 21.2599 16.6653 21.4036C16.4962 21.7864 16.1121 21.962 15.7429 21.8156C15.3754 21.6699 15.2125 21.275 15.3571 20.8837C15.5557 20.3467 15.8925 19.9125 16.3553 19.5562C15.9484 18.9957 15.8066 18.378 15.967 17.7075C16.0855 17.2126 16.3549 16.8064 16.7629 16.4978C17.5927 15.8703 18.7303 15.9124 19.504 16.5858C20.2177 17.2071 20.601 18.4141 19.8054 19.5608ZM18.084 17.4621C17.656 17.4596 17.3091 17.8027 17.3107 18.2267C17.3123 18.645 17.6518 18.9843 18.071 18.9867C18.5004 18.989 18.845 18.6481 18.8438 18.2221C18.8426 17.8032 18.504 17.4644 18.084 17.4621Z" fill="#423F49"/>
<path d="M24.7458 20.0379C25.1547 19.5802 25.5576 19.1311 25.9585 18.68C26.1546 18.4593 26.3954 18.3639 26.6837 18.4356C27.2042 18.565 27.3886 19.1774 27.0272 19.5939C26.5854 20.1031 26.1308 20.6012 25.6816 21.1039C25.5605 21.2394 25.4421 21.3776 25.3167 21.509C25.0282 21.8113 24.6197 21.8331 24.311 21.554C23.9197 21.2001 23.533 20.841 23.1507 20.4774C22.8631 20.2039 22.8468 19.7813 23.1006 19.4957C23.3601 19.2037 23.789 19.1742 24.0938 19.4379C24.3144 19.6289 24.5239 19.8329 24.7458 20.0379Z" fill="#423F49"/>
<path d="M25.0802 22.7063C25.7192 22.7063 26.3584 22.702 26.9975 22.708C27.3275 22.7111 27.5871 22.9343 27.6626 23.2567C27.7331 23.5576 27.5868 23.8874 27.3006 24.0234C27.1882 24.0768 27.0541 24.1087 26.9296 24.1093C25.6866 24.1154 24.4436 24.1153 23.2006 24.1118C22.7664 24.1105 22.4614 23.813 22.4609 23.4077C22.4605 23 22.7638 22.708 23.198 22.706C23.8254 22.7033 24.4528 22.7053 25.0802 22.7053C25.0802 22.7056 25.0802 22.7059 25.0802 22.7063Z" fill="#423F49"/>
<path d="M18.0736 22.7066C18.7185 22.7066 19.3635 22.7021 20.0084 22.7084C20.3422 22.7117 20.6232 22.9607 20.6747 23.2763C20.7306 23.6191 20.5595 23.9347 20.244 24.0559C20.1633 24.0869 20.0737 24.1098 19.9882 24.11C18.7159 24.1134 17.4435 24.1164 16.1712 24.11C15.8012 24.1081 15.5131 23.8395 15.4702 23.4926C15.4284 23.1542 15.6351 22.8328 15.9668 22.7366C16.0549 22.711 16.1515 22.707 16.2443 22.7067C16.854 22.7042 17.4638 22.7054 18.0736 22.7054C18.0736 22.7058 18.0736 22.7062 18.0736 22.7066Z" fill="#423F49"/>
</g>
<defs>
<clipPath id="clip0_2005_228">
<rect width="19" height="19" fill="white" transform="translate(12 12)"/>
</clipPath>
</defs>
</svg>
