<svg width="19" height="19" viewBox="0 0 19 19" fill="none" xmlns="http://www.w3.org/2000/svg">
<path d="M9.94539 3.73721e-05C10.2595 0.0599319 10.5776 0.103906 10.887 0.182207C13.0974 0.741705 14.7534 2.68802 14.9629 4.96208C15.2193 7.74495 13.4101 10.2417 10.6752 10.8519C10.2746 10.9413 9.85473 10.973 9.443 10.979C7.86066 11.002 6.31513 11.2162 4.83461 11.7995C3.99594 12.1299 3.20929 12.5541 2.52414 13.1469C1.8404 13.7385 1.49811 14.4941 1.48556 15.3968C1.47937 15.842 1.48263 16.2873 1.48497 16.7326C1.48742 17.2004 1.7975 17.5147 2.2636 17.5148C7.08737 17.516 11.9111 17.516 16.7349 17.5149C17.2011 17.5148 17.5169 17.2008 17.514 16.7339C17.5104 16.1532 17.5279 15.5695 17.4755 14.9926C17.4098 14.2689 17.0612 13.6669 16.519 13.1837C15.965 12.6901 15.3315 12.3211 14.6587 12.014C14.2704 11.8367 14.1004 11.4801 14.212 11.1064C14.3301 10.7111 14.7559 10.4562 15.1334 10.6165C16.3236 11.1224 17.4163 11.7766 18.1932 12.8501C18.6289 13.4521 18.8779 14.132 18.9664 14.8704C18.9714 14.9117 18.9885 14.9516 19 14.9922C19 15.6849 19 16.3776 19 17.0703C18.987 17.1098 18.9706 17.1486 18.9615 17.189C18.775 18.0165 18.2872 18.5829 17.4915 18.8789C17.355 18.9297 17.2109 18.9601 17.0703 19C12.0234 19 6.97656 19 1.92969 19C1.89013 18.987 1.85135 18.9703 1.8109 18.9616C1.15644 18.8205 0.638504 18.4752 0.311384 17.8903C0.170183 17.6379 0.101568 17.3449 0 17.0703C0 16.3776 0 15.6849 0 14.9922C0.0107988 14.9576 0.0273121 14.9237 0.0316168 14.8884C0.17742 13.6978 0.716657 12.7211 1.63422 11.9535C2.64905 11.1045 3.81187 10.5313 5.06728 10.137C5.41188 10.0287 5.76283 9.94067 6.11147 9.84319C6.10523 9.82293 6.10505 9.80864 6.09785 9.80151C6.07592 9.77988 6.0512 9.76114 6.02775 9.74103C4.55332 8.47819 3.87374 6.88134 4.04062 4.94345C4.2298 2.74647 5.84491 0.8111 7.9705 0.223213C8.3253 0.125096 8.69295 0.0732539 9.05465 0C9.35164 3.71094e-05 9.64851 3.73721e-05 9.94539 3.73721e-05ZM13.5077 5.4989C13.511 3.29542 11.7213 1.4935 9.52082 1.48464C7.30791 1.47573 5.49924 3.26767 5.49245 5.47575C5.48562 7.68773 7.27978 9.49451 9.48839 9.49989C11.6991 9.50523 13.5044 7.70817 13.5077 5.4989Z" fill="#423F49"/>
</svg>
