<?xml version="1.0" encoding="utf-8"?>
<!-- Generator: Adobe Illustrator 26.0.0, SVG Export Plug-In . SVG Version: 6.00 Build 0)  -->
<svg version="1.1" id="Layer_1" xmlns="http://www.w3.org/2000/svg" xmlns:xlink="http://www.w3.org/1999/xlink" x="0px" y="0px"
	 viewBox="0 0 595.28 841.89" style="enable-background:new 0 0 595.28 841.89;" xml:space="preserve">
<style type="text/css">
	.st0{fill:#FFFFFF;}
</style>
<g>
	<path d="M524.29,160.25c-36.82,83.99-73.64,167.98-111.51,254.37c-39.12-73.15-77.34-144.59-115.55-216.04
		c-0.77,0.17-1.55,0.34-2.32,0.51c0,3.58,0,7.16,0,10.73c0.03,43.9-0.19,87.8,0.25,131.7c0.14,13.69,1.06,27.53,3.38,41
		c4.01,23.38,10.39,28.59,33.79,31.28c2.52,0.29,5,0.93,7.42,3.56c-32.88,0-65.76,0-98.64,0c-0.19-0.52-0.38-1.04-0.58-1.57
		c2.72-0.66,5.41-1.65,8.16-1.93c21.68-2.15,28.54-8.16,32.72-29.57c1.16-5.96,2.09-12.09,2.11-18.14
		c0.15-60.3,0.14-120.61,0-180.91c-0.01-5.68-0.86-11.42-1.93-17.02c-4.24-22.3-10.65-28.09-33.06-30.54
		c-2.48-0.27-4.91-0.88-7.37-1.34c-0.01-1.14-0.02-2.27-0.02-3.41c9.88,0,19.95,1.23,29.6-0.26c18.21-2.81,27.29,4.78,35.55,20.94
		c35.04,68.59,71.69,136.35,107.77,204.4c1.78,3.35,3.67,6.64,6.75,12.19c2.68-5.68,4.75-9.8,6.6-14.03
		c30.85-70.55,61.79-141.07,92.34-211.75c3.62-8.39,7.77-12.36,17.55-11.76c15.59,0.97,31.29,0.21,46.94,0.3
		c3.51,0.02,7.02,0.48,10.54,0.74c0.06,0.98,0.11,1.95,0.17,2.93c-3.41,0.61-6.81,1.25-10.23,1.81
		c-18.58,3.08-23.27,7.47-25.86,26.3c-1.51,10.94-2.59,22.03-2.64,33.06c-0.26,54.2-0.21,108.41,0.01,162.61
		c0.04,9.12,1.04,18.3,2.38,27.34c2.51,17.01,7.72,22.02,24.65,25.15c4.16,0.77,8.31,1.57,12.04,4.85c-35.74,0-71.48,0-107.22,0
		c-0.19-0.71-0.39-1.42-0.58-2.13c3.88-0.83,7.74-1.8,11.65-2.48c18.08-3.14,22.58-7.57,25.08-25.7c0.99-7.17,1.92-14.42,1.93-21.64
		c0.14-68.3,0.09-136.59,0.09-204.89C525.58,160.71,524.93,160.48,524.29,160.25z"/>
	<path d="M0.74,121.37c2.44-0.39,4.87-1.12,7.31-1.11c40.46,0.07,80.93-0.34,121.36,0.69c14.31,0.37,28.96,2.84,42.71,6.89
		c57.25,16.86,79.1,86.82,42.1,134c-17.37,22.14-40.4,35.77-68.75,35.51c-23.32-0.22-46.6-4.23-72.11-6.78
		c1.51,33.87,2.26,70.38,5.16,106.73c1.33,16.68,8.49,21.41,25.57,24.22c4.64,0.76,9.29,1.51,13.94,2.26
		c-0.13,0.99-0.27,1.97-0.4,2.96c-39.01,0-78.01,0-117.02,0c-0.2-0.66-0.4-1.32-0.6-1.98c4.28-1.02,8.51-2.31,12.85-3.01
		c18.74-3.05,23.56-7.11,26.72-25.71c1.91-11.24,3.2-22.74,3.26-34.13c0.3-60.68,0.22-121.37,0-182.05
		c-0.03-8.74-1.09-17.53-2.38-26.19c-2.82-18.89-9.8-25.36-29.08-27.76c-3.54-0.44-7.1-0.67-10.66-0.99
		C0.72,123.72,0.73,122.55,0.74,121.37z M74.7,130.55c0,46.93-0.16,92.68,0.33,138.43c0.03,3.24,4.32,8.6,7.44,9.29
		c16.25,3.59,32.76,8.34,49.17,8.29c31.72-0.09,54.24-16.84,60.76-45.6c3.8-16.74,4.24-34.87,2.66-52.05
		c-2.34-25.44-17.75-41.96-42-50.64C128.01,129.31,102.25,129.79,74.7,130.55z"/>
	<path d="M234.7,570.25c-2.34,2.37-4.67,4.73-7.01,7.1c2.61,1.64,5.03,3.92,7.87,4.76c3.21,0.94,7.17-0.27,10.15,0.99
		c4.76,2.01,8.99,5.29,13.45,8.03c-3.24,4.64-6.35,9.37-9.8,13.85c-0.74,0.96-2.65,1.03-1.86,0.75c1.16-4.56,2.52-9.86,3.87-15.17
		c-7.63-0.29-15.25-0.57-22.88-0.86c0.22,5.38,0.43,10.75,0.64,15.79c-9.07-0.77-10.56-4.57-6.43-15.35
		c2.84-7.42,4.65-16.69,2.8-24.11c-2.36-9.44-2.94-16.44,6.27-21.33c7.58-4.02,17.49-1.06,20.9,5.7c4.19,8.32,1.28,15.18-8.97,21.17
		c1.51-5.68,4.47-11.48,4-16.99c-0.3-3.5-5.7-6.56-8.81-9.82c-3.05,3.31-8.3,6.42-8.62,9.97
		C229.83,559.74,233.05,565.06,234.7,570.25z"/>
	<path d="M335.84,521.98c1.68,0.09,4.24,0.21,8.75,0.44c0,19.84,0,39.29,0,60.69c1.32-1.45,0.6-0.34,0.36-0.44
		c-7.67-2.99-14.92,1.12-22.3,1.15c-9.62,0.04-12.38-7.68-13.68-15.54c-1.83-11.1,3.36-20.63,13.11-23.78
		c4.57-1.48,9.53-1.73,15.6-2.76C337.09,535.46,336.51,529.25,335.84,521.98z M338.76,555.03c-2.52-2.49-5.61-8.19-9.68-9.01
		c-7.92-1.59-14,7.12-13.65,18.36c0.23,7.4-0.17,17.72,10.38,16.65C338.66,579.73,335.65,567.15,338.76,555.03z"/>
	<path d="M84.34,583.07c0-19.52,0-38.79,0-58.95c7.04,0.42,15.41,0.4,23.61,1.54c9.84,1.36,14.7,7.76,13.66,17.64
		c-1.03,9.77-7.13,14.71-16.84,15.13c-3.77,0.17-7.55,0.03-13.22,0.03c0.65,8.19,1.28,16.15,1.95,24.61
		C91.04,583.07,86.79,583.07,84.34,583.07z M91.78,527.68c0,5.43-0.09,11.05,0.02,16.67c0.11,5.51-1.4,11.95,7.66,12.12
		c7.67,0.15,13.35-1.86,15.33-10.18C118.06,532.59,109.01,524.76,91.78,527.68z"/>
	<path d="M460.34,698c-4.76,0.26-10.01,1.81-14.08,0.26c-2.13-0.81-4.15-9.36-2.86-10.45c6.11-5.17,13.38-8.98,20.24-13.28
		c1.29,0.59,2.58,1.18,3.88,1.78c-1.59-4.53-3.18-9.07-4.76-13.6c-5.31,1.86-10.63,3.73-15.94,5.59c-0.63-0.33-1.26-0.65-1.89-0.98
		c2.97-2.31,5.62-5.71,8.98-6.69c7.52-2.2,14.97-1.1,17.76,7.5c1.59,4.9,0.97,10.5,1.46,15.77c0.43,4.61,1.03,9.2,1.73,15.37
		c-5.71,6.45-6.86-3.19-10.4-5.65c0.74-4.3,1.48-8.59,2.37-13.73c-9.23-0.74-16.33,1.16-17.7,10.31
		C447.9,698.39,454.17,698.83,460.34,698z"/>
	<path d="M83.39,700.01c-0.73,0-3.97,0-5.39,0c0-19.63,0-38.78,0-60.56c3.38,3.91,6.21,6.29,7.9,9.31
		c6.29,11.27,12.12,22.81,18.34,34.12c1.16,2.11,3.35,3.65,6.36,6.81c-0.36,0.86-1.76,4.16-4.06,9.6
		c-8.02-14.68-15.12-27.68-22.23-40.68c-0.93,0.13-1.86,0.26-2.79,0.39C82.13,672.31,82.73,685.64,83.39,700.01z"/>
	<path d="M293.3,697.89c-5.15,0.16-10.55,1.25-15.32-0.01c-1.75-0.46-3.82-8.7-2.69-9.61c6.54-5.3,13.99-9.47,23.55-15.56
		c-0.57-1.36-1.97-9.21-4.41-9.55c-4.69-0.65-9.97,2.96-16.28,5.26c0.48-1.43,0.87-5.16,1.95-5.37c5.73-1.12,12.26-3.1,17.26-1.3
		c3.56,1.28,6.42,7.81,7.31,12.44c1.52,7.87,1.23,16.08,1.89,27.26c-4.12-3.33-7.53-6.09-10.95-8.86c1.18-3.99,2.35-7.98,3.69-12.49
		c-10.11-0.86-17.13,1.29-17.88,10.78C280.74,699.58,287.61,698.41,293.3,697.89z"/>
	<path d="M171.91,697.89c-5.15,0.16-10.55,1.25-15.32-0.01c-1.75-0.46-3.82-8.7-2.69-9.61c6.54-5.3,13.99-9.47,23.55-15.56
		c-0.57-1.36-1.98-9.22-4.41-9.55c-4.71-0.64-10,2.96-16.28,5.26c0.48-1.43,0.87-5.16,1.95-5.37c5.73-1.12,12.26-3.1,17.26-1.3
		c3.56,1.28,6.42,7.81,7.31,12.44c1.52,7.87,1.23,16.08,1.89,27.26c-4.12-3.33-7.53-6.09-10.95-8.86c1.18-3.99,2.35-7.98,3.69-12.49
		c-10.11-0.86-17.13,1.29-17.88,10.78C159.34,699.58,166.22,698.41,171.91,697.89z"/>
	<path d="M375.29,693.12c-2.32,8.43-8.93,9.47-15.21,6.73c-3-1.31-6.2-7.35-5.66-10.65c1.99-12.14,12.85-10.58,23.07-12.28
		c-0.32-4.76-0.66-9.69-1.04-15.29c8.34,3.05,7.54,10,7.8,16.57c0.26,6.52,0.86,13.02,1.43,21.36c-5.84,6.38-6.57-4.76-10.67-6.12
		c0.96-4.23,1.92-8.46,2.89-12.69c-0.93-0.95-1.87-1.9-2.8-2.85c-4.72,3.23-9.97,5.95-13.86,9.97c-1.3,1.34,0.86,6.02,1.44,9.18
		C366.87,695.74,371.08,694.43,375.29,693.12z"/>
	<path d="M138.05,641.4c0,20.16,0,39.26,0,58.73c-2.53,0-6.63,0-8.48,0c0-16.66,1.29-33.38-0.49-49.77
		C128.04,640.79,131.54,640.94,138.05,641.4z"/>
	<path d="M413.51,680.41c-1.56,6.09-3.11,12.17-4.67,18.26c1.07,0.45,2.13,0.9,3.2,1.35c-3.31,0.2-6.62,0.4-8.63,0.52
		c0-10.64,0-20.92,0-31.19c0-9.92,0-19.83,0-30.23c-0.31,0,2.25,0,6.08,0c0,10.17-0.41,20.32,0.23,30.4
		c0.21,3.35,3.13,6.52,4.81,9.78C414.2,679.66,413.86,680.04,413.51,680.41z"/>
	<path d="M138.43,545.42c13.23-5.14,20.98,0.48,21.55,16.8c-8.18,0-16.37,0-24.37,0c-2.01,14.11,0.89,17.86,14.71,20.47
		c-11.86,2.12-19.22-1.59-22.18-11.2c-3.52-11.4,0.51-21.34,10.72-26.42c-1.59,4.56-3.2,9.12-4.96,14.14c7.99,0,14.05,0,20.79,0
		C153.14,548.34,149.86,541.82,138.43,545.42z"/>
	<path d="M429.56,580.54c-5.57,0.46-11.31,1.87-16.59,0.85c-1.71-0.33-4.14-9.37-2.88-10.43c6.13-5.16,13.39-8.97,20.26-13.25
		c1.05,0.77,2.1,1.55,3.14,2.32c-0.6-4.85-1.19-9.7-1.94-15.78c15.44,8.82,2.04,26.3,11.42,35.98c-0.37,0.98-0.73,1.96-1.1,2.94
		c-3.51-1.46-7.01-2.92-10.52-4.39c0.65-5.03,1.3-10.06,2.02-15.58c-9.89-0.55-17.18,1.31-17.18,11.24
		C416.18,584.4,423.91,581.01,429.56,580.54z"/>
	<path d="M285.26,580.54c-5.57,0.46-11.31,1.87-16.59,0.85c-1.71-0.33-4.14-9.37-2.88-10.43c6.13-5.16,13.39-8.97,20.26-13.25
		c1.05,0.77,2.1,1.55,3.14,2.32c-0.6-4.85-1.19-9.7-1.94-15.78c15.44,8.82,2.04,26.3,11.42,35.98c-0.37,0.98-0.73,1.96-1.1,2.94
		c-3.51-1.46-7.01-2.92-10.52-4.39c0.65-5.03,1.3-10.06,2.08-16.03c-9.64,0.35-17.32,1.53-17.26,11.69
		C271.93,584.41,279.61,581.01,285.26,580.54z"/>
	<path class="st0" d="M234.7,570.25c-1.65-5.19-4.87-10.51-4.42-15.51c0.32-3.55,5.57-6.66,8.62-9.97c3.11,3.26,8.51,6.32,8.81,9.82
		c0.47,5.51-2.49,11.31-4,16.99C240.7,571.14,237.7,570.69,234.7,570.25z"/>
	<path d="M221.02,667.97c-1.88-1.65-3.66-4.52-5.65-4.68c-3.25-0.26-6.65,1.25-9.98,2.01c0.84,3.28,0.91,7.11,2.76,9.67
		c1.58,2.2,5.84,2.34,7.75,4.45c3.27,3.6,7.63,8,7.69,12.13c0.05,2.98-5.75,7.84-9.61,8.66c-5.4,1.14-13.04,3.3-16.7-8.27
		c3.39,2.55,4.87,4.59,6.26,4.54c4.76-0.19,9.48-1.11,14.22-1.76c-2.2-3.75-3.85-8.01-6.76-11.08c-2.48-2.63-7.72-3.13-9.36-5.95
		c-1.97-3.39-3.32-10.51-1.55-12.01c3.87-3.28,9.79-4.8,15.07-5.44c2.35-0.28,5.17,3.31,7.78,5.14
		C222.29,666.24,221.66,667.1,221.02,667.97z"/>
	<path d="M175.15,542.82c11.76,0.57,8.15,9.99,8.54,16.19c0.48,7.67-0.51,15.43-0.9,23.95c-1.23,0-4.75,0-7.64,0
		C175.15,569.93,175.15,557.06,175.15,542.82z"/>
	<path d="M459.19,542.91c11.92,0.16,8.03,9.92,8.52,15.95c0.62,7.65-0.53,15.43-0.99,24.42c-1.1,0.06-4.59,0.24-7.53,0.4
		C459.19,570.08,459.19,557.21,459.19,542.91z"/>
	<path d="M333.11,700.09c-2.21,0-5.15,0-8.57,0c0-12.95,0-25.88,0-39.02c6.69-1.18,9.13,2.14,8.65,12.26
		C332.79,682.09,333.11,690.88,333.11,700.09z"/>
	<path d="M395.43,583.22c-7.81,1.63-7.63-5.24-7.58-12.11c0.06-8.92,0.01-17.84,0.01-27.6c4.87-2.09,7.8-0.57,7.63,6.59
		C395.24,560.38,395.43,570.66,395.43,583.22z"/>
	<path d="M231.42,661.23c3.18-0.15,6.11-0.29,8.72-0.41c0.83,1,1.54,1.49,1.72,2.13c3.84,13.75,7.61,27.51,11.4,41.27
		c-1.25,0.35-2.49,0.69-3.74,1.04C243.56,690.77,237.6,676.27,231.42,661.23z"/>
	<path class="st0" d="M429.56,580.54c-5.65,0.46-13.39,3.86-13.38-6.1c0.01-9.93,7.3-11.79,17.18-11.24
		c-0.72,5.52-1.37,10.55-2.02,15.58C430.75,579.37,430.16,579.96,429.56,580.54z"/>
	<path d="M493.88,583.29c-2.23,0-5.55,0-7.63,0c0-10.78,0.51-21.18-0.32-31.47c-0.24-2.93-4.35-5.55-6.27-7.81
		c9.47-0.42,12.17,1.69,12.91,11.78C493.21,564.69,493.43,573.62,493.88,583.29z"/>
	<path class="st0" d="M460.34,698c-6.17,0.83-12.45,0.39-11.23-7.8c1.36-9.15,8.47-11.05,17.7-10.31
		c-0.89,5.14-1.63,9.43-2.37,13.73C463.08,695.08,461.71,696.54,460.34,698z"/>
	<path d="M209.98,583.18c-1.72,0-5.05,0-8.38,0c-0.11-13.43,7.79-28.52-7.05-39.95c9.34-0.84,13.66,3.73,14.07,12.9
		C209.01,565,209.51,573.87,209.98,583.18z"/>
	<path class="st0" d="M285.26,580.54c-5.65,0.46-13.33,3.86-13.4-6.1c-0.06-10.16,7.62-11.34,17.26-11.69
		c-0.77,5.97-1.43,11-2.08,16.03C286.46,579.37,285.86,579.96,285.26,580.54z"/>
	<path d="M496.22,651.98c4.84,17.03-3.23,33.36,4.61,47.68c-8.14,1.59-8.64,1.27-9.04-7.79c-0.43-9.81-1.13-19.64-0.9-29.45
		C490.96,659.49,493.75,656.62,496.22,651.98z"/>
	<path d="M362.99,541.85c1.92,2.64,5.09,5.09,5.5,7.95c0.86,5.97,0.25,12.16,0.29,18.26c0.05,7.77,1.19,14.74,11.93,14.35
		c-13.86,2.56-17.09-0.02-17.55-13.11c-0.16-4.57,0.14-9.17-0.32-13.71c-0.4-4-1.57-7.92-2.4-11.87
		C361.29,543.1,362.14,542.47,362.99,541.85z"/>
	<path class="st0" d="M171.91,697.89c-5.69,0.51-12.57,1.69-11.88-7.02c0.75-9.49,7.77-11.64,17.88-10.78
		c-1.33,4.51-2.51,8.5-3.69,12.49C173.45,694.36,172.68,696.12,171.91,697.89z"/>
	<path class="st0" d="M293.3,697.89c-5.69,0.51-12.57,1.69-11.88-7.02c0.75-9.49,7.77-11.64,17.88-10.78
		c-1.33,4.51-2.51,8.5-3.69,12.49C294.84,694.36,294.07,696.12,293.3,697.89z"/>
	<path d="M414.54,679.29c7.53,6.45,15.07,12.89,24.54,21c-16.75,0.52-18.58-12.77-25.57-19.89
		C413.86,680.04,414.2,679.66,414.54,679.29z"/>
	<path class="st0" d="M74.7,130.55c27.55-0.76,53.31-1.24,78.37,7.73c24.25,8.67,39.66,25.2,42,50.64
		c1.58,17.18,1.14,35.31-2.66,52.05c-6.53,28.76-29.05,45.51-60.76,45.6c-16.41,0.05-32.93-4.7-49.17-8.29
		c-3.12-0.69-7.4-6.04-7.44-9.29C74.54,223.23,74.7,177.48,74.7,130.55z"/>
	<path class="st0" d="M338.76,555.03c-3.11,12.12-0.09,24.7-12.96,26c-10.55,1.07-10.15-9.25-10.38-16.65
		c-0.35-11.23,5.74-19.94,13.65-18.36C333.14,546.84,336.24,552.54,338.76,555.03z"/>
	<path class="st0" d="M91.78,527.68c17.23-2.92,26.28,4.91,23.02,18.61c-1.98,8.33-7.66,10.33-15.33,10.18
		c-9.06-0.17-7.56-6.61-7.66-12.12C91.7,538.73,91.78,533.11,91.78,527.68z"/>
	<path class="st0" d="M375.29,693.12c-4.21,1.31-8.42,2.62-12.62,3.93c-0.58-3.15-2.74-7.84-1.44-9.18
		c3.9-4.02,9.14-6.74,13.86-9.97c0.93,0.95,1.87,1.9,2.8,2.85c-0.96,4.23-1.93,8.47-2.89,12.69
		C375.01,693.44,375.29,693.12,375.29,693.12z"/>
	<path class="st0" d="M138.43,545.42c11.43-3.6,14.71,2.92,16.26,13.8c-6.74,0-12.8,0-20.79,0c1.76-5.02,3.37-9.59,4.96-14.14
		C138.85,545.09,138.43,545.42,138.43,545.42z"/>
</g>
</svg>
