<?xml version="1.0" encoding="utf-8"?>
<!-- Generator: Adobe Illustrator 26.0.0, SVG Export Plug-In . SVG Version: 6.00 Build 0)  -->
<svg version="1.1" id="Layer_1" xmlns="http://www.w3.org/2000/svg" xmlns:xlink="http://www.w3.org/1999/xlink" x="0px" y="0px"
	 viewBox="0 0 595.28 841.89" style="enable-background:new 0 0 595.28 841.89;" xml:space="preserve">
<style type="text/css">
	.st0{fill:#FFFFFF;}
</style>
<g>
	<path d="M375.07,333.54c-12.03,27.45-24.07,54.9-36.44,83.13c-12.79-23.9-25.27-47.25-37.76-70.6c-0.25,0.06-0.51,0.11-0.76,0.17
		c0,1.17,0,2.34,0,3.51c0.01,14.35-0.06,28.69,0.08,43.04c0.04,4.47,0.35,9,1.1,13.4c1.31,7.64,3.4,9.34,11.04,10.22
		c0.82,0.09,1.63,0.3,2.42,1.16c-10.74,0-21.49,0-32.23,0c-0.06-0.17-0.13-0.34-0.19-0.51c0.89-0.22,1.77-0.54,2.67-0.63
		c7.08-0.7,9.33-2.67,10.69-9.66c0.38-1.95,0.68-3.95,0.69-5.93c0.05-19.71,0.05-39.41,0-59.12c0-1.86-0.28-3.73-0.63-5.56
		c-1.39-7.29-3.48-9.18-10.8-9.98c-0.81-0.09-1.61-0.29-2.41-0.44c0-0.37,0-0.74-0.01-1.11c3.23,0,6.52,0.4,9.67-0.09
		c5.95-0.92,8.92,1.56,11.62,6.84c11.45,22.41,23.43,44.56,35.22,66.8c0.58,1.1,1.2,2.17,2.21,3.98c0.88-1.86,1.55-3.2,2.16-4.58
		c10.08-23.06,20.19-46.1,30.18-69.2c1.18-2.74,2.54-4.04,5.74-3.84c5.09,0.32,10.22,0.07,15.34,0.1c1.15,0.01,2.3,0.16,3.44,0.24
		c0.02,0.32,0.04,0.64,0.05,0.96c-1.11,0.2-2.23,0.41-3.34,0.59c-6.07,1.01-7.6,2.44-8.45,8.59c-0.49,3.58-0.85,7.2-0.86,10.8
		c-0.08,17.71-0.07,35.43,0,53.14c0.01,2.98,0.34,5.98,0.78,8.93c0.82,5.56,2.52,7.2,8.06,8.22c1.36,0.25,2.72,0.51,3.93,1.59
		c-11.68,0-23.36,0-35.04,0c-0.06-0.23-0.13-0.46-0.19-0.7c1.27-0.27,2.53-0.59,3.81-0.81c5.91-1.02,7.38-2.47,8.19-8.4
		c0.32-2.34,0.63-4.71,0.63-7.07c0.05-22.32,0.03-44.64,0.03-66.96C375.49,333.69,375.28,333.62,375.07,333.54z"/>
	<path d="M203.98,320.83c0.8-0.13,1.59-0.37,2.39-0.36c13.22,0.02,26.45-0.11,39.66,0.23c4.68,0.12,9.46,0.93,13.96,2.25
		c18.71,5.51,25.85,28.37,13.76,43.79c-5.67,7.24-13.2,11.69-22.47,11.6c-7.62-0.07-15.23-1.38-23.57-2.22
		c0.49,11.07,0.74,23,1.69,34.88c0.43,5.45,2.77,7,8.36,7.91c1.52,0.25,3.04,0.49,4.55,0.74c-0.04,0.32-0.09,0.64-0.13,0.97
		c-12.75,0-25.49,0-38.24,0c-0.07-0.22-0.13-0.43-0.2-0.65c1.4-0.33,2.78-0.75,4.2-0.98c6.12-1,7.7-2.32,8.73-8.4
		c0.63-3.67,1.05-7.43,1.06-11.15c0.1-19.83,0.07-39.66,0-59.49c-0.01-2.86-0.36-5.73-0.78-8.56c-0.92-6.17-3.2-8.29-9.5-9.07
		c-1.16-0.14-2.32-0.22-3.48-0.32C203.97,321.6,203.97,321.22,203.98,320.83z M228.15,323.83c0,15.34-0.05,30.29,0.11,45.24
		c0.01,1.06,1.41,2.81,2.43,3.04c5.31,1.17,10.71,2.72,16.07,2.71c10.36-0.03,17.72-5.5,19.86-14.9c1.24-5.47,1.39-11.39,0.87-17.01
		c-0.76-8.31-5.8-13.71-13.72-16.55C245.57,323.43,237.15,323.59,228.15,323.83z"/>
	<path d="M280.43,467.52c-0.76,0.77-1.53,1.55-2.29,2.32c0.85,0.54,1.64,1.28,2.57,1.56c1.05,0.31,2.34-0.09,3.32,0.33
		c1.56,0.66,2.94,1.73,4.4,2.63c-1.06,1.52-2.08,3.06-3.2,4.53c-0.24,0.31-0.87,0.34-0.61,0.25c0.38-1.49,0.82-3.22,1.27-4.96
		c-2.49-0.09-4.98-0.19-7.48-0.28c0.07,1.76,0.14,3.51,0.21,5.16c-2.96-0.25-3.45-1.49-2.1-5.02c0.93-2.43,1.52-5.46,0.91-7.88
		c-0.77-3.09-0.96-5.37,2.05-6.97c2.48-1.31,5.72-0.35,6.83,1.86c1.37,2.72,0.42,4.96-2.93,6.92c0.49-1.86,1.46-3.75,1.31-5.55
		c-0.1-1.14-1.86-2.14-2.88-3.21c-1,1.08-2.71,2.1-2.82,3.26C278.84,464.09,279.89,465.83,280.43,467.52z"/>
	<path d="M313.49,451.75c0.55,0.03,1.39,0.07,2.86,0.14c0,6.48,0,12.84,0,19.83c0.43-0.47,0.2-0.11,0.12-0.14
		c-2.51-0.98-4.87,0.37-7.29,0.38c-3.14,0.01-4.05-2.51-4.47-5.08c-0.6-3.63,1.1-6.74,4.28-7.77c1.49-0.48,3.11-0.57,5.1-0.9
		C313.89,456.16,313.7,454.13,313.49,451.75z M314.44,462.55c-0.82-0.81-1.83-2.68-3.16-2.94c-2.59-0.52-4.58,2.33-4.46,6
		c0.07,2.42-0.06,5.79,3.39,5.44C314.41,470.62,313.42,466.51,314.44,462.55z"/>
	<path d="M231.3,471.71c0-6.38,0-12.68,0-19.26c2.3,0.14,5.04,0.13,7.72,0.5c3.22,0.45,4.8,2.53,4.46,5.77
		c-0.34,3.19-2.33,4.81-5.5,4.95c-1.23,0.05-2.47,0.01-4.32,0.01c0.21,2.68,0.42,5.28,0.64,8.04
		C233.49,471.71,232.1,471.71,231.3,471.71z M233.73,453.61c0,1.77-0.03,3.61,0.01,5.45c0.04,1.8-0.46,3.9,2.5,3.96
		c2.51,0.05,4.36-0.61,5.01-3.33C242.32,455.22,239.36,452.66,233.73,453.61z"/>
	<path d="M354.17,509.27c-1.56,0.09-3.27,0.59-4.6,0.08c-0.7-0.26-1.36-3.06-0.94-3.41c2-1.69,4.37-2.94,6.61-4.34
		c0.42,0.19,0.84,0.39,1.27,0.58c-0.52-1.48-1.04-2.96-1.56-4.44c-1.74,0.61-3.47,1.22-5.21,1.83c-0.21-0.11-0.41-0.21-0.62-0.32
		c0.97-0.75,1.84-1.87,2.94-2.19c2.46-0.72,4.89-0.36,5.8,2.45c0.52,1.6,0.32,3.43,0.48,5.15c0.14,1.51,0.34,3.01,0.57,5.02
		c-1.87,2.11-2.24-1.04-3.4-1.85c0.24-1.4,0.48-2.81,0.77-4.49c-3.02-0.24-5.34,0.38-5.78,3.37
		C350.11,509.4,352.16,509.54,354.17,509.27z"/>
	<path d="M230.99,509.93c-0.24,0-1.3,0-1.76,0c0-6.41,0-12.67,0-19.79c1.1,1.28,2.03,2.05,2.58,3.04c2.06,3.68,3.96,7.45,5.99,11.15
		c0.38,0.69,1.1,1.19,2.08,2.23c-0.12,0.28-0.58,1.36-1.33,3.14c-2.62-4.8-4.94-9.05-7.26-13.29c-0.3,0.04-0.61,0.08-0.91,0.13
		C230.57,500.88,230.77,505.23,230.99,509.93z"/>
	<path d="M299.59,509.24c-1.68,0.05-3.45,0.41-5.01,0c-0.57-0.15-1.25-2.84-0.88-3.14c2.14-1.73,4.57-3.1,7.7-5.09
		c-0.19-0.44-0.64-3.01-1.44-3.12c-1.53-0.21-3.26,0.97-5.32,1.72c0.16-0.47,0.29-1.68,0.64-1.75c1.87-0.36,4.01-1.01,5.64-0.43
		c1.16,0.42,2.1,2.55,2.39,4.06c0.5,2.57,0.4,5.26,0.62,8.91c-1.35-1.09-2.46-1.99-3.58-2.89c0.38-1.3,0.77-2.61,1.2-4.08
		c-3.3-0.28-5.6,0.42-5.84,3.52C295.48,509.79,297.73,509.4,299.59,509.24z"/>
	<path d="M259.91,509.24c-1.68,0.05-3.45,0.41-5.01,0c-0.57-0.15-1.25-2.84-0.88-3.14c2.14-1.73,4.57-3.1,7.7-5.09
		c-0.19-0.44-0.65-3.01-1.44-3.12c-1.54-0.21-3.27,0.97-5.32,1.72c0.16-0.47,0.29-1.68,0.64-1.75c1.87-0.36,4.01-1.01,5.64-0.43
		c1.16,0.42,2.1,2.55,2.39,4.06c0.5,2.57,0.4,5.26,0.62,8.91c-1.35-1.09-2.46-1.99-3.58-2.89c0.38-1.3,0.77-2.61,1.2-4.08
		c-3.3-0.28-5.6,0.42-5.84,3.52C255.81,509.79,258.05,509.4,259.91,509.24z"/>
	<path d="M326.38,507.68c-0.76,2.75-2.92,3.09-4.97,2.2c-0.98-0.43-2.03-2.4-1.85-3.48c0.65-3.97,4.2-3.46,7.54-4.01
		c-0.11-1.56-0.22-3.17-0.34-5c2.73,1,2.46,3.27,2.55,5.42c0.08,2.13,0.28,4.26,0.47,6.98c-1.91,2.09-2.15-1.56-3.49-2
		c0.31-1.38,0.63-2.76,0.94-4.15c-0.31-0.31-0.61-0.62-0.92-0.93c-1.54,1.05-3.26,1.94-4.53,3.26c-0.42,0.44,0.28,1.97,0.47,3
		C323.63,508.53,325,508.11,326.38,507.68z"/>
	<path d="M248.85,490.78c0,6.59,0,12.83,0,19.19c-0.83,0-2.17,0-2.77,0c0-5.44,0.42-10.91-0.16-16.26
		C245.58,490.58,246.72,490.63,248.85,490.78z"/>
	<path d="M338.87,503.52c-0.51,1.99-1.02,3.98-1.53,5.97c0.35,0.15,0.7,0.29,1.05,0.44c-1.08,0.06-2.16,0.13-2.82,0.17
		c0-3.48,0-6.84,0-10.19c0-3.24,0-6.48,0-9.88c-0.1,0,0.73,0,1.99,0c0,3.32-0.13,6.64,0.08,9.93c0.07,1.09,1.02,2.13,1.57,3.2
		C339.09,503.28,338.98,503.4,338.87,503.52z"/>
	<path d="M248.97,459.41c4.32-1.68,6.86,0.16,7.04,5.49c-2.67,0-5.35,0-7.96,0c-0.66,4.61,0.29,5.84,4.81,6.69
		c-3.88,0.69-6.28-0.52-7.25-3.66c-1.15-3.73,0.17-6.97,3.5-8.63c-0.52,1.49-1.04,2.98-1.62,4.62c2.61,0,4.59,0,6.79,0
		C253.78,460.37,252.71,458.23,248.97,459.41z"/>
	<path d="M344.11,470.89c-1.82,0.15-3.7,0.61-5.42,0.28c-0.56-0.11-1.35-3.06-0.94-3.41c2-1.69,4.38-2.93,6.62-4.33
		c0.34,0.25,0.68,0.51,1.03,0.76c-0.19-1.58-0.39-3.17-0.63-5.16c5.05,2.88,0.67,8.59,3.73,11.76c-0.12,0.32-0.24,0.64-0.36,0.96
		c-1.15-0.48-2.29-0.96-3.44-1.43c0.21-1.64,0.43-3.29,0.66-5.09c-3.23-0.18-5.61,0.43-5.62,3.67
		C339.74,472.15,342.27,471.04,344.11,470.89z"/>
	<path d="M296.96,470.89c-1.82,0.15-3.7,0.61-5.42,0.28c-0.56-0.11-1.35-3.06-0.94-3.41c2-1.69,4.38-2.93,6.62-4.33
		c0.34,0.25,0.68,0.51,1.03,0.76c-0.19-1.58-0.39-3.17-0.63-5.16c5.05,2.88,0.67,8.59,3.73,11.76c-0.12,0.32-0.24,0.64-0.36,0.96
		c-1.15-0.48-2.29-0.96-3.44-1.43c0.21-1.64,0.43-3.29,0.68-5.24c-3.15,0.12-5.66,0.5-5.64,3.82
		C292.6,472.15,295.11,471.04,296.96,470.89z"/>
	<path class="st0" d="M280.43,467.52c-0.54-1.69-1.59-3.43-1.44-5.07c0.1-1.16,1.82-2.18,2.82-3.26c1.02,1.06,2.78,2.07,2.88,3.21
		c0.15,1.8-0.81,3.7-1.31,5.55C282.4,467.81,281.41,467.67,280.43,467.52z"/>
	<path d="M275.96,499.46c-0.61-0.54-1.2-1.48-1.85-1.53c-1.06-0.08-2.17,0.41-3.26,0.66c0.27,1.07,0.3,2.32,0.9,3.16
		c0.52,0.72,1.91,0.77,2.53,1.45c1.07,1.18,2.49,2.61,2.51,3.96c0.02,0.97-1.88,2.56-3.14,2.83c-1.76,0.37-4.26,1.08-5.46-2.7
		c1.11,0.83,1.59,1.5,2.04,1.48c1.55-0.06,3.1-0.36,4.65-0.57c-0.72-1.22-1.26-2.62-2.21-3.62c-0.81-0.86-2.52-1.02-3.06-1.94
		c-0.64-1.11-1.09-3.44-0.51-3.93c1.27-1.07,3.2-1.57,4.92-1.78c0.77-0.09,1.69,1.08,2.54,1.68
		C276.38,498.89,276.17,499.17,275.96,499.46z"/>
	<path d="M260.97,458.56c3.84,0.18,2.66,3.26,2.79,5.29c0.16,2.51-0.17,5.04-0.29,7.83c-0.4,0-1.55,0-2.5,0
		C260.97,467.42,260.97,463.21,260.97,458.56z"/>
	<path d="M353.79,458.59c3.9,0.05,2.63,3.24,2.78,5.21c0.2,2.5-0.17,5.04-0.32,7.98c-0.36,0.02-1.5,0.08-2.46,0.13
		C353.79,467.47,353.79,463.26,353.79,458.59z"/>
	<path d="M312.59,509.95c-0.72,0-1.68,0-2.8,0c0-4.23,0-8.46,0-12.75c2.19-0.38,2.98,0.7,2.83,4.01
		C312.49,504.07,312.59,506.95,312.59,509.95z"/>
	<path d="M332.96,471.76c-2.55,0.53-2.49-1.71-2.48-3.96c0.02-2.92,0-5.83,0-9.02c1.59-0.68,2.55-0.19,2.49,2.15
		C332.9,464.3,332.96,467.66,332.96,471.76z"/>
	<path d="M279.36,497.26c1.04-0.05,2-0.09,2.85-0.13c0.27,0.33,0.5,0.49,0.56,0.7c1.25,4.49,2.49,8.99,3.72,13.49
		c-0.41,0.11-0.81,0.23-1.22,0.34C283.33,506.91,281.38,502.17,279.36,497.26z"/>
	<path class="st0" d="M344.11,470.89c-1.85,0.15-4.37,1.26-4.37-1.99c0-3.25,2.38-3.85,5.62-3.67c-0.23,1.8-0.45,3.45-0.66,5.09
		C344.5,470.5,344.31,470.7,344.11,470.89z"/>
	<path d="M365.13,471.79c-0.73,0-1.82,0-2.49,0c0-3.52,0.17-6.92-0.11-10.28c-0.08-0.96-1.42-1.81-2.05-2.55
		c3.09-0.14,3.98,0.55,4.22,3.85C364.91,465.71,364.99,468.63,365.13,471.79z"/>
	<path class="st0" d="M354.17,509.27c-2.02,0.27-4.07,0.13-3.67-2.55c0.45-2.99,2.77-3.61,5.78-3.37c-0.29,1.68-0.53,3.08-0.77,4.49
		C355.07,508.32,354.62,508.79,354.17,509.27z"/>
	<path d="M272.36,471.75c-0.56,0-1.65,0-2.74,0c-0.04-4.39,2.54-9.32-2.3-13.05c3.05-0.27,4.46,1.22,4.6,4.22
		C272.04,465.81,272.2,468.71,272.36,471.75z"/>
	<path class="st0" d="M296.96,470.89c-1.85,0.15-4.36,1.26-4.38-1.99c-0.02-3.32,2.49-3.71,5.64-3.82c-0.25,1.95-0.47,3.6-0.68,5.24
		C297.35,470.5,297.15,470.7,296.96,470.89z"/>
	<path d="M365.9,494.23c1.58,5.57-1.05,10.9,1.51,15.58c-2.66,0.52-2.82,0.42-2.95-2.55c-0.14-3.21-0.37-6.42-0.29-9.62
		C364.18,496.69,365.09,495.75,365.9,494.23z"/>
	<path d="M322.36,458.24c0.63,0.86,1.66,1.66,1.8,2.6c0.28,1.95,0.08,3.97,0.1,5.97c0.02,2.54,0.39,4.82,3.9,4.69
		c-4.53,0.84-5.59-0.01-5.73-4.28c-0.05-1.49,0.05-3-0.1-4.48c-0.13-1.31-0.51-2.59-0.79-3.88
		C321.8,458.65,322.08,458.45,322.36,458.24z"/>
	<path class="st0" d="M259.91,509.24c-1.86,0.17-4.11,0.55-3.88-2.29c0.24-3.1,2.54-3.8,5.84-3.52c-0.44,1.48-0.82,2.78-1.2,4.08
		C260.42,508.08,260.17,508.66,259.91,509.24z"/>
	<path class="st0" d="M299.59,509.24c-1.86,0.17-4.11,0.55-3.88-2.29c0.24-3.1,2.54-3.8,5.84-3.52c-0.44,1.48-0.82,2.78-1.2,4.08
		C300.09,508.08,299.84,508.66,299.59,509.24z"/>
	<path d="M339.2,503.16c2.46,2.11,4.92,4.21,8.02,6.86c-5.48,0.17-6.07-4.17-8.36-6.5C338.98,503.4,339.09,503.28,339.2,503.16z"/>
	<path class="st0" d="M228.15,323.83c9-0.25,17.42-0.41,25.61,2.52c7.92,2.83,12.96,8.23,13.72,16.55
		c0.52,5.61,0.37,11.54-0.87,17.01c-2.13,9.4-9.49,14.87-19.86,14.9c-5.36,0.02-10.76-1.54-16.07-2.71
		c-1.02-0.23-2.42-1.98-2.43-3.04C228.1,354.12,228.15,339.17,228.15,323.83z"/>
	<path class="st0" d="M314.44,462.55c-1.02,3.96-0.03,8.07-4.24,8.5c-3.45,0.35-3.32-3.02-3.39-5.44c-0.11-3.67,1.87-6.52,4.46-6
		C312.6,459.87,313.62,461.74,314.44,462.55z"/>
	<path class="st0" d="M233.73,453.61c5.63-0.96,8.59,1.61,7.52,6.08c-0.65,2.72-2.5,3.38-5.01,3.33c-2.96-0.06-2.47-2.16-2.5-3.96
		C233.7,457.22,233.73,455.39,233.73,453.61z"/>
	<path class="st0" d="M326.38,507.68c-1.38,0.43-2.75,0.86-4.13,1.29c-0.19-1.03-0.9-2.56-0.47-3c1.27-1.31,2.99-2.2,4.53-3.26
		c0.31,0.31,0.61,0.62,0.92,0.93c-0.31,1.38-0.63,2.77-0.94,4.15C326.29,507.78,326.38,507.68,326.38,507.68z"/>
	<path class="st0" d="M248.97,459.41c3.74-1.18,4.81,0.96,5.31,4.51c-2.2,0-4.18,0-6.79,0c0.58-1.64,1.1-3.13,1.62-4.62
		C249.11,459.3,248.97,459.41,248.97,459.41z"/>
</g>
</svg>
