<svg width="43" height="43" viewBox="0 0 43 43" fill="none" xmlns="http://www.w3.org/2000/svg">
<rect width="43" height="43" rx="5" fill="#F5F4F6"/>
<g clip-path="url(#clip0_2005_251)">
<path d="M18.495 30.996C18.2463 30.9293 17.9917 30.8793 17.7502 30.7926C17.1938 30.5931 16.7432 30.2341 16.3881 29.7712C15.9673 29.2226 15.5495 28.668 15.1798 28.0846C14.7075 27.339 14.2736 26.5683 13.8439 25.7968C13.4604 25.1083 13.4387 24.395 13.7295 23.6554C14.3044 22.1929 15.0035 20.7896 15.7235 19.3961C16.4117 18.0641 18.0744 17.8821 19.0268 18.6247C19.1052 18.6859 19.1622 18.6845 19.2351 18.6198C19.9951 17.9446 21.2192 17.9529 22.0059 18.6533C22.0435 18.6867 22.1484 18.6938 22.1904 18.6659C23.1344 18.037 24.3648 18.2733 25.0034 19.0711C25.0778 19.1641 25.1381 19.1173 25.21 19.0824C26.3533 18.5286 27.6992 19.0701 28.1252 20.267C28.2005 20.4786 28.2456 20.7125 28.248 20.9367C28.2605 22.0683 28.257 23.2002 28.253 24.3319C28.2516 24.7423 27.9704 25.0519 27.5841 25.0909C27.2079 25.1288 26.8621 24.8717 26.7861 24.4928C26.7716 24.4208 26.772 24.3452 26.771 24.2713C26.7688 24.1173 26.7704 23.9633 26.7704 23.7947C26.7117 23.7999 26.6645 23.7988 26.6198 23.8089C25.9923 23.9515 25.4184 23.8301 24.8987 23.4552C24.811 23.3918 24.751 23.3609 24.6433 23.437C23.8213 24.0176 22.914 24.0121 22.0936 23.4324C22.0589 23.408 22.023 23.3851 21.9912 23.3639C20.6729 24.1233 20.0089 24.0535 18.8766 23.0342C18.6982 23.3887 18.5213 23.74 18.3374 24.105C18.3935 24.1403 18.4422 24.1747 18.4942 24.2031C19.64 24.8302 20.6045 25.6877 21.5253 26.5984C21.8411 26.9106 21.8367 27.3649 21.54 27.6615C21.2506 27.9508 20.8155 27.9495 20.4876 27.6565C19.99 27.2117 19.5121 26.7423 18.9906 26.3275C18.572 25.9945 18.1077 25.7166 17.6521 25.4327C16.8753 24.9488 16.644 24.1776 17.0522 23.3577C17.4734 22.5119 17.9039 21.6707 18.3187 20.8219C18.3891 20.6777 18.4368 20.5043 18.433 20.3458C18.4255 20.0279 18.2021 19.7807 17.9076 19.704C17.5974 19.6233 17.2692 19.7424 17.0905 20.0016C17.0625 20.0422 17.0345 20.0837 17.0134 20.128C16.4281 21.3604 15.8423 22.5924 15.2611 23.8266C15.1878 23.9824 15.1459 24.1527 15.0775 24.311C14.9647 24.572 15.0003 24.8244 15.1296 25.06C15.8195 26.3171 16.5251 27.564 17.4136 28.6976C17.8472 29.2507 18.3752 29.5331 19.1007 29.5205C20.7205 29.4923 22.3412 29.5116 23.9616 29.5117C24.661 29.5117 25.2859 29.3026 25.8218 28.8462C26.1424 28.5732 26.3854 28.2426 26.5529 27.8561C26.6384 27.6585 26.7565 27.4897 26.9606 27.3953C27.2353 27.2683 27.5497 27.3139 27.7727 27.517C28.0076 27.731 28.0815 28.0538 27.9524 28.3665C27.5757 29.2791 26.9541 29.9782 26.0942 30.4619C25.6042 30.7375 25.0784 30.9083 24.5173 30.9658C24.4883 30.9687 24.4608 30.9856 24.4326 30.996C22.4534 30.996 20.4742 30.996 18.495 30.996ZM21.2409 20.9927C21.2409 20.7519 21.2451 20.511 21.2399 20.2704C21.2316 19.8871 20.951 19.6031 20.5893 19.6044C20.228 19.6057 19.9476 19.8916 19.9437 20.2749C19.9388 20.7565 19.9384 21.2382 19.9438 21.7197C19.9481 22.1016 20.2323 22.3869 20.5939 22.3857C20.9552 22.3845 21.2324 22.0997 21.24 21.7151C21.2448 21.4744 21.2409 21.2335 21.2409 20.9927ZM24.0241 21.0886C24.0241 20.8787 24.0278 20.6687 24.0233 20.4589C24.0149 20.0746 23.737 19.7902 23.3755 19.7899C23.0141 19.7895 22.7316 20.075 22.7269 20.4573C22.7216 20.8771 22.7217 21.297 22.7268 21.7168C22.7314 22.0995 23.0127 22.3853 23.374 22.3858C23.7353 22.3863 24.0146 22.1017 24.0232 21.7183C24.028 21.5085 24.0241 21.2985 24.0241 21.0886ZM26.7693 21.3718C26.7693 21.2361 26.7742 21.1003 26.7683 20.965C26.7532 20.6142 26.4754 20.3451 26.1358 20.3469C25.8025 20.3488 25.5251 20.6113 25.5124 20.9537C25.5022 21.2307 25.5015 21.5088 25.513 21.7857C25.5271 22.1268 25.8098 22.3874 26.143 22.3853C26.4756 22.3832 26.7498 22.1197 26.7676 21.7785C26.7746 21.6433 26.7688 21.5074 26.7693 21.3718Z" fill="#423F49"/>
<path d="M21.6503 11.9961C22.0932 12.1473 22.2591 12.4619 22.2489 12.9215C22.2313 13.7059 22.2496 14.4911 22.2419 15.2758C22.236 15.8819 21.6167 16.2369 21.1153 15.9285C20.8878 15.7885 20.7646 15.5776 20.7629 15.3129C20.7576 14.4478 20.7542 13.5825 20.7643 12.7175C20.7688 12.3337 21.0134 12.1195 21.3534 11.9961C21.4524 11.9961 21.5513 11.9961 21.6503 11.9961Z" fill="#423F49"/>
<path d="M24.4727 15.5759C24.4837 15.532 24.4981 15.4332 24.5331 15.3424C24.8333 14.5649 25.1333 13.7874 25.4417 13.0132C25.5904 12.64 25.948 12.4502 26.3011 12.5368C26.7605 12.6495 26.9936 13.0869 26.8212 13.5463C26.5827 14.182 26.3308 14.8128 26.0819 15.4445C26.0074 15.6337 25.9376 15.8269 25.8411 16.0049C25.6809 16.3001 25.3345 16.4327 25.0162 16.3427C24.6918 16.2509 24.4707 15.9613 24.4727 15.5759Z" fill="#423F49"/>
<path d="M18.507 15.5845C18.4959 15.9269 18.2706 16.2188 17.936 16.3095C17.6284 16.393 17.2811 16.2566 17.1259 15.9731C17.0406 15.8171 16.9783 15.6477 16.9143 15.481C16.6709 14.8473 16.4282 14.2133 16.191 13.5773C16.0262 13.1356 16.1987 12.7165 16.598 12.5652C16.9982 12.4135 17.4038 12.6111 17.5741 13.0516C17.8614 13.794 18.1431 14.5386 18.4241 15.2834C18.4608 15.3803 18.4798 15.484 18.507 15.5845Z" fill="#423F49"/>
<path d="M12.9783 14.7051C13.2189 14.7111 13.4007 14.7927 13.5496 14.9452C13.9727 15.3786 14.399 15.8089 14.815 16.249C15.1228 16.5746 15.1175 17.0218 14.8191 17.3126C14.5194 17.6047 14.0723 17.5999 13.7563 17.2841C13.3237 16.8516 12.8978 16.4122 12.4774 15.9678C12.2541 15.7317 12.1941 15.4493 12.3298 15.146C12.4584 14.8587 12.6958 14.7245 12.9783 14.7051Z" fill="#423F49"/>
<path d="M28.6717 17.4132C28.3991 17.396 28.1679 17.2648 28.035 16.9886C27.9053 16.7191 27.9409 16.4601 28.1161 16.2219C28.1668 16.1529 28.2319 16.0938 28.2945 16.0345C28.6801 15.6693 29.0642 15.3027 29.4539 14.942C29.793 14.6282 30.2366 14.6275 30.5314 14.9317C30.8312 15.2411 30.8107 15.6955 30.4728 16.0201C30.0677 16.4094 29.6562 16.792 29.2474 17.1774C29.0937 17.3223 28.9159 17.4113 28.6717 17.4132Z" fill="#423F49"/>
</g>
<defs>
<clipPath id="clip0_2005_251">
<rect width="19" height="19" fill="white" transform="translate(12 12)"/>
</clipPath>
</defs>
</svg>
