<svg width="43" height="43" viewBox="0 0 43 43" fill="none" xmlns="http://www.w3.org/2000/svg">
<rect width="43" height="43" rx="5" fill="#F5F4F6"/>
<g clip-path="url(#clip0_2005_219)">
<path d="M31 25.6895C31 25.9369 31 26.1842 31 26.4316C30.987 26.4525 30.9733 26.473 30.961 26.4943C30.7754 26.8165 30.4638 26.9695 30.142 26.8962C29.7893 26.8159 29.5738 26.5482 29.5518 26.163C29.5272 25.7334 29.2101 25.425 28.7979 25.4299C28.4029 25.4345 28.0781 25.7543 28.0686 26.148C28.0584 26.5683 28.368 26.8885 28.8085 26.9134C29.2502 26.9383 29.5627 27.2593 29.551 27.6762C29.5394 28.0915 29.204 28.3994 28.7658 28.397C27.8882 28.3922 27.0494 27.8051 26.7342 26.9713C26.477 26.2911 26.5503 25.6377 26.9112 25C26.2684 24.2032 25.625 23.4057 24.9756 22.6007C24.1628 23.1951 23.2613 23.5395 22.279 23.6793C22.279 24.6564 22.2813 25.6084 22.276 26.5604C22.2753 26.6805 22.3491 26.6969 22.4279 26.7316C23.2399 27.0905 23.7774 27.9123 23.7624 28.7692C23.7556 29.1571 23.4698 29.4722 23.0916 29.5089C22.72 29.5449 22.3828 29.3004 22.2977 28.9284C22.2814 28.8569 22.2832 28.7813 22.2762 28.7077C22.2415 28.347 21.9556 28.0603 21.6005 28.0299C21.2406 27.9993 20.9185 28.2273 20.8209 28.5816C20.6934 29.045 21.0305 29.4845 21.5344 29.5118C22.0782 29.5413 22.4166 30.0392 22.2256 30.5267C22.1271 30.7782 21.9244 30.9074 21.6854 30.9961C21.537 30.9961 21.3886 30.9961 21.2401 30.9961C21.2004 30.9831 21.1615 30.966 21.1208 30.9577C20.1464 30.7598 19.4322 29.9815 19.3186 28.9925C19.2104 28.0502 19.7574 27.1212 20.6622 26.7288C20.7763 26.6793 20.7974 26.6166 20.7968 26.5064C20.7926 25.7891 20.7946 25.0718 20.7946 24.3544C20.7946 24.1329 20.7946 23.9113 20.7946 23.677C19.7922 23.5407 18.8909 23.1772 18.0727 22.5887C17.4565 23.3606 16.8512 24.1187 16.2463 24.877C16.2158 24.9152 16.188 24.9556 16.157 24.9976C16.3733 25.3655 16.496 25.7567 16.4883 26.1812C16.479 26.6927 15.974 27.0458 15.4984 26.8672C15.1675 26.743 15.0172 26.4872 15.0022 26.1351C14.9853 25.7389 14.667 25.437 14.2799 25.4299C13.8977 25.4229 13.5706 25.7062 13.5255 26.0833C13.4797 26.466 13.7381 26.8197 14.1249 26.8988C14.1909 26.9124 14.2601 26.9098 14.3277 26.9159C14.6865 26.9481 14.9737 27.2361 15.0032 27.5928C15.0323 27.9451 14.8111 28.2743 14.4659 28.3617C14.3373 28.3942 14.1954 28.4006 14.0628 28.3872C12.7453 28.2539 11.8444 27.0594 12.0752 25.76C12.2992 24.4984 13.5791 23.6929 14.8431 24.0268C14.9714 24.0608 15.0316 24.0257 15.1031 23.9337C15.3457 23.6212 15.5951 23.314 15.8417 23.0046C16.2228 22.5268 16.6037 22.0488 16.9785 21.5787C16.9714 21.5508 16.9709 21.5376 16.9649 21.5279C16.952 21.5069 16.9366 21.4873 16.9216 21.4677C15.8966 20.1276 15.4657 18.6157 15.7547 16.9545C16.1661 14.5902 17.5549 13.0241 19.8274 12.2603C20.2327 12.124 20.6695 12.0817 21.0918 11.9961C21.3886 11.9961 21.6855 11.9961 21.9824 11.9961C22.2008 12.0315 22.42 12.0629 22.6376 12.1029C26.1952 12.7562 28.3249 16.5809 27.0115 19.9539C26.7812 20.5454 26.4636 21.0856 26.0684 21.5772C26.0836 21.6017 26.0917 21.6184 26.1031 21.6325C26.7235 22.4021 27.346 23.1699 27.9622 23.9428C28.0398 24.0402 28.1021 24.0601 28.2247 24.027C29.2207 23.7579 30.2397 24.1831 30.7432 25.0806C30.8503 25.2715 30.9155 25.4859 31 25.6895ZM25.08 20.4081C26.3751 18.6725 26.2042 15.9719 24.236 14.4157C22.322 12.9024 19.5347 13.2625 18.0477 15.2163C16.6489 17.0541 17.1103 19.3615 17.9645 20.3367C18.1923 20.0875 18.4026 19.8107 18.6601 19.5887C18.9224 19.3625 19.2311 19.1903 19.5195 18.9944C18.7747 17.8692 19.051 16.5503 19.8892 15.7901C20.7615 14.9988 22.0603 14.9349 22.9961 15.636C23.4576 15.9818 23.7662 16.4356 23.9079 16.9943C24.0912 17.7174 23.9499 18.3884 23.5402 19.0138C24.1647 19.3612 24.7624 19.7219 25.08 20.4081ZM21.5399 20.0646C20.8896 20.0683 20.3001 20.2448 19.7555 20.6033C19.4193 20.8245 19.2484 21.0994 19.314 21.5001C19.3248 21.566 19.367 21.6535 19.4207 21.6819C20.8301 22.4278 22.2432 22.4279 23.6548 21.6853C23.6951 21.6641 23.7445 21.6308 23.7576 21.5922C23.851 21.3173 23.7359 20.9429 23.506 20.7531C22.9343 20.2811 22.2714 20.0686 21.5399 20.0646ZM21.5337 16.6362C21.0021 16.6374 20.5696 17.0745 20.5725 17.6076C20.5753 18.1316 21.0051 18.5613 21.5294 18.5643C22.0622 18.5672 22.4997 18.1342 22.5007 17.6026C22.5019 17.0712 22.0653 16.635 21.5337 16.6362Z" fill="#423F49"/>
</g>
<defs>
<clipPath id="clip0_2005_219">
<rect width="19" height="19" fill="white" transform="translate(12 12)"/>
</clipPath>
</defs>
</svg>
