<svg width="43" height="43" viewBox="0 0 43 43" fill="none" xmlns="http://www.w3.org/2000/svg">
<rect width="43" height="43" rx="5" fill="#F5F4F6"/>
<g clip-path="url(#clip0_2005_241)">
<path d="M17.6648 30.9961C17.3191 30.9961 16.9734 30.9961 16.6277 30.9961C16.5428 30.986 16.458 30.9716 16.3727 30.9664C15.5221 30.9139 14.6806 30.8005 13.8745 30.5138C13.0586 30.2236 12.3011 29.8513 12.0352 28.918C12.0352 26.8522 12.0352 24.7865 12.0352 22.7207C12.1359 22.4363 12.248 22.1614 12.4648 21.9375C12.8676 21.5213 13.3729 21.2833 13.904 21.0945C14.8138 20.7712 15.7608 20.6535 16.7198 20.6209C17.9793 20.5782 19.2203 20.693 20.4257 21.0869C20.5355 21.1228 20.6435 21.164 20.7759 21.2112C20.7759 21.1187 20.7759 21.047 20.7759 20.9752C20.7759 18.7926 20.7756 16.6101 20.7768 14.4275C20.7769 14.3105 20.7784 14.1914 20.7991 14.0769C20.901 13.5133 21.2741 13.1558 21.7379 12.8781C22.5103 12.4155 23.3707 12.2297 24.2479 12.1095C24.6196 12.0586 24.9948 12.0331 25.3685 11.9961C25.7141 11.9961 26.0598 11.9961 26.4055 11.9961C26.4905 12.0062 26.5752 12.0206 26.6605 12.0258C27.5111 12.0783 28.3526 12.1917 29.1587 12.4784C29.9746 12.7686 30.7321 13.1409 30.998 14.0742C30.998 19.0221 30.998 23.9701 30.998 28.918C30.8166 29.6018 30.3234 29.9983 29.7233 30.287C29.0282 30.6215 28.2832 30.7839 27.524 30.8831C27.1526 30.9316 26.7784 30.9591 26.4054 30.9961C26.0597 30.9961 25.714 30.9961 25.3684 30.9961C24.9951 30.9591 24.62 30.9348 24.2489 30.8825C23.3239 30.7523 22.4175 30.5578 21.6125 30.0431C21.5682 30.0148 21.4777 30.0072 21.4365 30.0336C20.61 30.5628 19.6808 30.7626 18.7289 30.8871C18.3756 30.9333 18.0196 30.9603 17.6648 30.9961ZM22.2574 27.5734C22.2574 27.8585 22.2676 28.1616 22.2533 28.4636C22.2454 28.6295 22.3099 28.7262 22.4426 28.8085C22.8966 29.0901 23.4019 29.2271 23.9172 29.3256C25.1596 29.5632 26.4069 29.5743 27.654 29.3615C28.2512 29.2597 28.8378 29.1205 29.3599 28.789C29.4751 28.7158 29.5199 28.6264 29.5198 28.4849C29.5159 24.3844 29.5167 20.2839 29.5162 16.1834C29.5162 16.1256 29.5096 16.0678 29.5067 16.021C27.0823 16.7977 24.675 16.7962 22.2574 16.0179C22.2574 16.2123 22.2574 16.4036 22.2574 16.5951C22.2574 17.2139 22.2816 17.2499 22.858 17.4834C22.8923 17.4973 22.9273 17.5092 22.9622 17.5215C24.1354 17.9332 25.3478 18.0108 26.5766 17.946C26.8045 17.9339 27.0315 17.9022 27.2594 17.8962C27.673 17.8853 27.9935 18.1686 28.0314 18.5643C28.068 18.9462 27.8086 19.282 27.4088 19.3583C27.2761 19.3837 27.1396 19.3899 27.0045 19.4016C25.6977 19.5147 24.4032 19.4445 23.1277 19.126C22.8383 19.0538 22.5559 18.9536 22.2574 18.8624C22.2574 19.1544 22.2762 19.434 22.2517 19.7098C22.2307 19.9464 22.3282 20.0826 22.5235 20.1774C22.5623 20.1963 22.6 20.2174 22.6388 20.2362C23.3789 20.5955 24.1742 20.7463 24.983 20.7806C25.7266 20.8121 26.4736 20.7675 27.2191 20.7528C27.6685 20.7439 28.0019 21.0217 28.032 21.4383C28.0623 21.8565 27.7531 22.1949 27.3028 22.2347C27.0877 22.2537 26.8726 22.276 26.657 22.287C25.2858 22.3568 23.9325 22.2625 22.6166 21.8345C22.5015 21.7971 22.3879 21.7552 22.2574 21.7097C22.2574 22.0648 22.265 22.3986 22.2539 22.7318C22.2491 22.8755 22.2962 22.9755 22.4194 23.0308C22.7273 23.1689 23.0291 23.3322 23.3506 23.4259C24.4106 23.7349 25.4987 23.7932 26.5958 23.7276C26.8359 23.7132 27.0757 23.6834 27.3159 23.6811C27.6393 23.678 27.9116 23.8953 28.0009 24.2039C28.1403 24.6851 27.8236 25.1134 27.2795 25.1602C26.8616 25.1962 26.442 25.2342 26.0232 25.2335C24.7716 25.2317 23.5346 25.1189 22.352 24.6624C22.3267 24.6526 22.2961 24.6563 22.2574 24.6527C22.2574 24.8679 22.2574 25.0717 22.2574 25.2754C22.2574 25.8944 22.2693 25.9126 22.844 26.1539C22.8894 26.173 22.9361 26.1891 22.9826 26.2054C24.0345 26.5757 25.1242 26.6655 26.2283 26.6366C26.5858 26.6272 26.9424 26.5837 27.2999 26.5748C27.6843 26.5653 27.9971 26.8624 28.0316 27.2447C28.0649 27.6144 27.81 27.9592 27.441 28.0273C27.2717 28.0585 27.0985 28.0709 26.9265 28.0849C25.9135 28.1674 24.9025 28.146 23.9024 27.9605C23.3537 27.8588 22.8144 27.7062 22.2574 27.5734ZM13.5166 27.531C13.5166 27.8532 13.5263 28.1676 13.5125 28.481C13.5057 28.6341 13.5678 28.7223 13.6856 28.7973C14.1419 29.0881 14.6539 29.2255 15.1752 29.3255C16.4239 29.5648 17.6775 29.5744 18.9304 29.3593C19.5211 29.2579 20.1017 29.1181 20.6182 28.7896C20.7331 28.7166 20.7799 28.628 20.7792 28.4861C20.7734 27.2615 20.776 26.0369 20.7755 24.8123C20.7755 24.7539 20.7701 24.6955 20.7677 24.6458C18.3489 25.4607 15.9422 25.4394 13.5166 24.6705C13.5166 24.9827 13.5265 25.3028 13.5124 25.622C13.5056 25.7759 13.5608 25.8774 13.689 25.9325C14.0048 26.068 14.3163 26.2266 14.6457 26.3153C15.8025 26.6269 16.9836 26.6655 18.1722 26.5721C18.3075 26.5615 18.443 26.5429 18.5781 26.545C18.943 26.5508 19.2457 26.8341 19.29 27.2006C19.3332 27.5576 19.0926 27.9083 18.7362 27.9928C18.6173 28.0211 18.4926 28.0275 18.37 28.0379C16.7506 28.1746 15.1533 28.0943 13.6041 27.5463C13.5817 27.5384 13.5568 27.5378 13.5166 27.531ZM20.7565 22.8989C20.6015 22.807 20.4805 22.7224 20.3492 22.6597C19.7403 22.3691 19.0864 22.2469 18.4242 22.1667C17.5878 22.0655 16.7497 22.0631 15.9129 22.1657C15.2316 22.2492 14.5613 22.3804 13.9392 22.6876C13.8053 22.7537 13.684 22.8454 13.5418 22.9348C13.6103 22.9907 13.6452 23.0262 13.6863 23.0515C13.7702 23.1031 13.8546 23.1554 13.9437 23.1967C14.5898 23.496 15.2783 23.6245 15.98 23.698C17.2305 23.8289 18.4682 23.7757 19.6832 23.4274C20.0566 23.3204 20.4202 23.1858 20.7565 22.8989ZM29.4938 14.2875C29.3381 14.1952 29.2179 14.1105 29.087 14.0486C28.4779 13.7603 27.8249 13.6369 27.1629 13.557C26.3147 13.4546 25.4647 13.4541 24.6165 13.5566C23.9483 13.6373 23.289 13.7605 22.6755 14.0548C22.5465 14.1167 22.4289 14.2026 22.2857 14.2897C22.633 14.5769 23.0103 14.7106 23.397 14.8078C25.054 15.2242 26.7145 15.2251 28.3718 14.8091C28.7596 14.7118 29.1369 14.5768 29.4938 14.2875Z" fill="#423F49"/>
<path d="M16.4045 11.9961C17.0103 12.0742 17.4454 12.4319 17.846 12.8596C18.2049 13.2427 18.5891 13.6019 18.95 13.9833C19.3753 14.4329 19.1774 15.1142 18.5895 15.2437C18.304 15.3065 18.0714 15.1976 17.8705 14.998C17.577 14.7065 17.2808 14.4178 16.9601 14.1026C16.9601 14.1847 16.9601 14.2477 16.9601 14.3108C16.9601 15.6465 16.9609 16.9823 16.9595 18.318C16.9591 18.6881 16.7781 18.9649 16.4734 19.0751C15.9959 19.2477 15.497 18.9102 15.4822 18.3922C15.4701 17.972 15.4788 17.5512 15.4787 17.1307C15.4785 16.1908 15.4787 15.2508 15.4787 14.3109C15.4787 14.2509 15.4787 14.191 15.4787 14.0943C15.4101 14.156 15.3652 14.1928 15.3243 14.2338C15.0538 14.505 14.7914 14.7847 14.5124 15.0468C14.2021 15.3384 13.7658 15.3305 13.4788 15.0464C13.1908 14.7614 13.1722 14.3193 13.4649 14.0118C13.9462 13.5064 14.4423 13.015 14.9364 12.5219C15.2397 12.2194 15.6208 12.0719 16.0342 11.9961C16.1576 11.9961 16.2811 11.9961 16.4045 11.9961Z" fill="#423F49"/>
</g>
<defs>
<clipPath id="clip0_2005_241">
<rect width="19" height="19" fill="white" transform="translate(12 12)"/>
</clipPath>
</defs>
</svg>
