<svg width="19" height="15" viewBox="0 0 19 15" fill="none" xmlns="http://www.w3.org/2000/svg">
<path d="M0 8.77078C0.0472038 8.42284 0.0824245 8.0728 0.143525 7.72733C0.554189 5.40472 1.69273 3.51011 3.51782 2.03185C4.80887 0.986121 6.28631 0.34391 7.92705 0.104538C9.71301 -0.156027 11.4416 0.0679078 13.0964 0.805574C13.4987 0.984886 13.6688 1.38421 13.5121 1.76366C13.3554 2.1427 12.9479 2.31685 12.5446 2.14973C11.9212 1.8915 11.2856 1.67999 10.6191 1.5701C10.4345 1.53968 10.2479 1.52168 10.0406 1.49519C10.0406 1.86524 10.0456 2.22217 10.0392 2.57897C10.0319 2.99432 9.73347 3.30079 9.33592 3.31357C8.92476 3.32682 8.59693 3.01469 8.58777 2.58806C8.58007 2.23089 8.58618 1.87341 8.58618 1.48665C5.99926 1.79536 4.02832 3.04424 2.60227 5.22582C2.93238 5.38494 3.24595 5.53799 3.56129 5.68739C3.76742 5.78504 3.92776 5.92612 3.99852 6.1485C4.0901 6.43633 4.02262 6.69302 3.80779 6.89914C3.5797 7.11796 3.30308 7.16276 3.01695 7.03835C2.66775 6.88649 2.32771 6.71339 1.98343 6.54933C1.22147 8.40763 1.21901 10.9998 2.4659 13.1614C2.72229 13.0366 2.97831 12.9048 3.24066 12.7872C3.36582 12.7311 3.50074 12.6782 3.63515 12.6655C3.96412 12.6343 4.25846 12.8433 4.36207 13.1548C4.46564 13.466 4.36298 13.8288 4.07365 13.9823C3.52853 14.2714 2.97293 14.5429 2.40917 14.7935C2.09615 14.9326 1.75953 14.7911 1.55946 14.4855C0.849715 13.4014 0.365374 12.2256 0.148082 10.945C0.0853405 10.575 0.0486163 10.2007 0 9.82834C0 9.47583 0 9.12333 0 8.77078Z" fill="#423F49"/>
<path d="M9.316 11.5194C8.43335 11.5212 7.6481 10.9997 7.30273 10.1823C6.96483 9.38259 7.12248 8.41884 7.75017 7.82372C8.13974 7.45436 8.5822 7.13638 9.02271 6.82645C10.9559 5.4663 12.8973 4.11808 14.8348 2.76401C15.1008 2.57817 15.3789 2.52578 15.6694 2.68664C15.9242 2.82768 16.0597 3.05828 16.0351 3.34844C16.0228 3.49236 15.9671 3.64934 15.8846 3.76795C14.368 5.94925 12.8456 8.12662 11.3199 10.3015C11.1671 10.5193 10.9996 10.7313 10.8119 10.9188C10.4141 11.316 9.88072 11.5183 9.316 11.5194ZM12.4216 6.25617C12.412 6.24507 12.4023 6.23398 12.3927 6.22292C12.1166 6.41726 11.8383 6.60868 11.5647 6.80644C10.6801 7.44568 9.79661 8.08629 8.91423 8.72859C8.65579 8.91672 8.5371 9.17103 8.60704 9.4901C8.67128 9.78323 8.85864 9.97652 9.14993 10.0409C9.47147 10.112 9.73141 9.99575 9.92738 9.72979C10.0678 9.53929 10.2189 9.35664 10.3562 9.16404C11.0463 8.19591 11.7334 7.22567 12.4216 6.25617Z" fill="#423F49"/>
<path d="M16.1624 13.1687C16.5242 12.5283 16.7859 11.8659 16.9503 11.1658C17.3506 9.46135 17.2076 7.80319 16.5175 6.19385C16.4263 5.98111 16.3764 5.7685 16.4642 5.5416C16.5705 5.26669 16.8272 5.07806 17.1202 5.07477C17.4529 5.07107 17.7016 5.22696 17.8161 5.53443C18.0145 6.06761 18.2325 6.60007 18.3609 7.15185C18.9696 9.7691 18.5217 12.2106 17.0771 14.4708C16.8534 14.8209 16.4913 14.933 16.1134 14.7599C15.6124 14.5306 15.1146 14.294 14.6209 14.0495C14.2307 13.8564 14.0845 13.4367 14.2627 13.0676C14.4398 12.7005 14.8558 12.56 15.2539 12.7401C15.5562 12.8768 15.8542 13.0229 16.1624 13.1687Z" fill="#423F49"/>
</svg>
