<svg width="19" height="19" viewBox="0 0 19 19" fill="none" xmlns="http://www.w3.org/2000/svg">
<path d="M10.0566 -0.00390625C10.4044 0.0436309 10.7585 0.0641523 11.0985 0.14468C11.6978 0.286697 12.2937 0.448754 12.881 0.634227C13.3089 0.769379 13.4982 1.20463 13.3463 1.60189C13.1985 1.98864 12.7818 2.17542 12.3676 2.01933C11.3787 1.64668 10.3595 1.46355 9.30198 1.48244C6.16684 1.53843 3.24314 3.55503 2.0792 6.46956C0.446686 10.5574 2.29796 15.0776 6.33394 16.8581C9.56461 18.2834 13.501 17.3324 15.7033 14.5554C17.5648 12.2081 17.9604 9.58456 17.0604 6.7454C17.0146 6.60123 16.9725 6.44311 16.9844 6.29604C17.0132 5.94206 17.2922 5.67806 17.6345 5.64021C17.969 5.60321 18.3055 5.78872 18.4035 6.12441C18.583 6.73931 18.7401 7.36153 18.8822 7.98626C18.9502 8.2851 18.9625 8.5966 19 8.90238C19 9.29823 19 9.69403 19 10.0899C18.9895 10.1377 18.9759 10.185 18.9688 10.2333C18.9043 10.6729 18.8635 11.1173 18.7735 11.5515C18.0093 15.2373 14.8626 18.2483 11.1551 18.8496C10.8027 18.9068 10.4476 18.9476 10.0938 18.9961C9.6979 18.9961 9.3021 18.9961 8.90625 18.9961C8.86491 18.986 8.82405 18.9725 8.78212 18.9664C8.34864 18.9031 7.91094 18.8612 7.48199 18.7754C3.8 18.0392 0.748311 14.8715 0.148438 11.1701C0.0903242 10.8114 0.0490586 10.45 0 10.0898C0 9.694 0 9.29819 0 8.90234C0.0606367 8.48152 0.106318 8.05792 0.184285 7.64037C0.890736 3.8574 4.05075 0.765816 7.84448 0.142342C8.1969 0.0844138 8.55226 0.0444102 8.90625 -0.00390625C9.2897 -0.00390625 9.67319 -0.00390625 10.0566 -0.00390625Z" fill="#423F49"/>
<path d="M19.0002 3.63281C18.8904 3.98799 18.6316 4.15665 18.2859 4.25651C17.1597 4.58188 16.0378 4.92188 14.9167 5.26447C14.7996 5.30025 14.6809 5.37231 14.594 5.45874C13.091 6.95395 11.5922 8.45328 10.0947 9.95402C9.87408 10.1751 9.62696 10.2958 9.3112 10.2104C8.7851 10.0682 8.58504 9.45037 8.92745 9.02655C8.97388 8.96907 9.0282 8.91778 9.08064 8.86538C10.5446 7.40108 12.0099 5.93808 13.4702 4.47011C13.5567 4.38313 13.6287 4.26434 13.6648 4.14722C14.0192 2.99754 14.3717 1.84715 14.708 0.69208C14.8076 0.350192 14.9809 0.104453 15.3264 -0.00390625C15.4254 -0.00390625 15.5243 -0.00390625 15.6233 -0.00390625C16.1776 0.237824 16.3129 0.531025 16.138 1.11379C16.0443 1.42566 15.9494 1.73715 15.8413 2.09467C15.9206 2.01993 15.9658 1.97948 16.0086 1.93673C16.3234 1.6226 16.6362 1.30643 16.9527 0.994039C17.285 0.665992 17.7387 0.653004 18.0421 0.958637C18.3447 1.2636 18.3277 1.71333 17.9978 2.04835C17.7595 2.29042 17.5199 2.53129 17.2766 2.76839C17.1818 2.86079 17.0755 2.94135 16.9744 3.0273C16.9889 3.04496 17.0034 3.06266 17.0179 3.08033C17.3474 2.98158 17.6774 2.88435 18.0063 2.78356C18.2242 2.71677 18.4308 2.7325 18.6318 2.84416C18.8292 2.95386 18.9215 3.13904 19.0003 3.3359C19.0002 3.43487 19.0002 3.53384 19.0002 3.63281Z" fill="#423F49"/>
<path d="M9.59186 2.96924C10.026 3.02687 10.4872 3.07237 10.9421 3.15278C11.4207 3.23739 11.6915 3.62196 11.6002 4.03829C11.5052 4.4715 11.1276 4.69612 10.6516 4.60257C8.37052 4.15425 6.23569 5.09995 5.12983 7.04852C3.42919 10.0453 5.28102 13.8995 8.67905 14.4355C11.4816 14.8776 14.0324 13.0093 14.4599 10.1967C14.5538 9.57924 14.5152 8.96411 14.388 8.35325C14.2942 7.90245 14.5377 7.51833 14.9666 7.43023C15.3639 7.34866 15.7402 7.61337 15.8396 8.04432C16.6656 11.625 14.2772 15.2418 10.6634 15.8828C7.16361 16.5036 3.85535 14.2595 3.13164 10.7739C2.39981 7.24906 4.79912 3.71885 8.34625 3.1117C8.74681 3.04312 9.15483 3.01811 9.59186 2.96924Z" fill="#423F49"/>
<path d="M9.48809 13.2158C7.68962 13.2079 6.15897 11.9067 5.83556 10.1024C5.52993 8.3972 6.54179 6.63057 8.17683 6.01474C8.71098 5.81357 9.20884 6.07489 9.27107 6.58904C9.31275 6.93368 9.11859 7.24547 8.76071 7.38085C8.17082 7.60398 7.73601 7.99348 7.47342 8.56656C6.95738 9.69272 7.46003 11.0161 8.59368 11.529C9.70963 12.0338 11.0039 11.5309 11.5114 10.3951C11.7119 9.94655 12.0356 9.75332 12.419 9.8533C12.8536 9.96659 13.1082 10.4071 12.9389 10.8204C12.3913 12.1572 11.4068 12.9562 9.96751 13.1716C9.80901 13.1953 9.64796 13.2015 9.48809 13.2158Z" fill="#423F49"/>
</svg>
