<svg width="19" height="19" viewBox="0 0 19 19" fill="none" xmlns="http://www.w3.org/2000/svg">
<path d="M5.66479 18.9961C5.31912 18.9961 4.97342 18.9961 4.62775 18.9961C4.54279 18.986 4.45805 18.9716 4.37275 18.9664C3.52212 18.9139 2.68064 18.8005 1.87453 18.5138C1.0586 18.2236 0.301082 17.8513 0.0351562 16.918C0.0351562 14.8522 0.0351562 12.7865 0.0351562 10.7207C0.13586 10.4363 0.248045 10.1614 0.464823 9.93747C0.867638 9.52133 1.37286 9.28331 1.90405 9.09453C2.81379 8.7712 3.76082 8.65353 4.71979 8.62094C5.9793 8.57816 7.22034 8.69305 8.42571 9.08689C8.53549 9.12277 8.64353 9.16404 8.7759 9.21117C8.7759 9.11873 8.7759 9.04696 8.7759 8.97519C8.7759 6.79264 8.77556 4.61005 8.77679 2.4275C8.77686 2.31049 8.77838 2.19137 8.79908 2.07685C8.90105 1.51335 9.27408 1.15576 9.73786 0.878072C10.5103 0.415504 11.3707 0.229698 12.2479 0.109537C12.6196 0.0586233 12.9948 0.0331289 13.3685 -0.00390625C13.7141 -0.00390625 14.0598 -0.00390625 14.4055 -0.00390625C14.4905 0.00622461 14.5752 0.0205857 14.6605 0.0258182C15.5111 0.0782537 16.3526 0.191734 17.1587 0.478404C17.9746 0.768562 18.7321 1.14092 18.998 2.07422C18.998 7.02212 18.998 11.9701 18.998 16.918C18.8166 17.6018 18.3234 17.9983 17.7233 18.287C17.0282 18.6215 16.2832 18.7839 15.524 18.8831C15.1526 18.9316 14.7784 18.9591 14.4054 18.9961C14.0597 18.9961 13.714 18.9961 13.3684 18.9961C12.9951 18.9591 12.62 18.9348 12.2489 18.8825C11.3239 18.7523 10.4175 18.5578 9.61253 18.0431C9.56823 18.0148 9.47767 18.0072 9.43645 18.0336C8.61001 18.5628 7.68082 18.7626 6.7289 18.8871C6.37556 18.9333 6.0196 18.9603 5.66479 18.9961ZM10.2574 15.5734C10.2574 15.8585 10.2676 16.1616 10.2533 16.4636C10.2454 16.6295 10.3099 16.7262 10.4426 16.8085C10.8966 17.0901 11.4019 17.2271 11.9172 17.3256C13.1596 17.5632 14.4069 17.5743 15.654 17.3615C16.2512 17.2597 16.8378 17.1205 17.3599 16.789C17.4751 16.7158 17.5199 16.6264 17.5198 16.4849C17.5159 12.3844 17.5167 8.28392 17.5162 4.1834C17.5162 4.12562 17.5096 4.06785 17.5067 4.02101C15.0823 4.79771 12.675 4.79623 10.2574 4.01793C10.2574 4.21228 10.2574 4.40365 10.2574 4.59506C10.2574 5.21389 10.2816 5.24989 10.858 5.48338C10.8923 5.49726 10.9273 5.50921 10.9622 5.52146C12.1354 5.93322 13.3478 6.01078 14.5766 5.94595C14.8045 5.93393 15.0315 5.90216 15.2594 5.89615C15.673 5.88528 15.9935 6.16864 16.0314 6.56427C16.068 6.94623 15.8086 7.28204 15.4088 7.35833C15.2761 7.38368 15.1396 7.38988 15.0045 7.40157C13.6977 7.51468 12.4032 7.44454 11.1277 7.12603C10.8383 7.05378 10.5559 6.95362 10.2574 6.86237C10.2574 7.15442 10.2762 7.43404 10.2517 7.7098C10.2307 7.94641 10.3282 8.08256 10.5235 8.17745C10.5623 8.1963 10.6 8.21738 10.6388 8.23619C11.3789 8.59549 12.1742 8.7463 12.983 8.78059C13.7266 8.81209 14.4736 8.76752 15.2191 8.75279C15.6685 8.74392 16.0019 9.02165 16.032 9.43828C16.0623 9.8565 15.7531 10.1949 15.3028 10.2347C15.0877 10.2537 14.8726 10.276 14.657 10.287C13.2858 10.3568 11.9325 10.2625 10.6166 9.83453C10.5015 9.79709 10.3879 9.75519 10.2574 9.70973C10.2574 10.0648 10.265 10.3986 10.2539 10.7318C10.2491 10.8755 10.2962 10.9755 10.4194 11.0308C10.7273 11.1689 11.0291 11.3322 11.3506 11.4259C12.4106 11.7349 13.4987 11.7932 14.5958 11.7276C14.8359 11.7132 15.0757 11.6834 15.3159 11.6811C15.6393 11.678 15.9116 11.8953 16.0009 12.2039C16.1403 12.6851 15.8236 13.1134 15.2795 13.1602C14.8616 13.1962 14.442 13.2342 14.0232 13.2335C12.7716 13.2317 11.5346 13.1189 10.352 12.6624C10.3267 12.6526 10.2961 12.6563 10.2574 12.6527C10.2574 12.8679 10.2574 13.0717 10.2574 13.2754C10.2574 13.8944 10.2693 13.9126 10.844 14.1539C10.8894 14.173 10.9361 14.1891 10.9826 14.2054C12.0345 14.5757 13.1242 14.6655 14.2283 14.6366C14.5858 14.6272 14.9424 14.5837 15.2999 14.5748C15.6843 14.5653 15.9971 14.8624 16.0316 15.2447C16.0649 15.6144 15.81 15.9592 15.441 16.0273C15.2717 16.0585 15.0985 16.0709 14.9265 16.0849C13.9135 16.1674 12.9025 16.146 11.9024 15.9605C11.3537 15.8588 10.8144 15.7062 10.2574 15.5734ZM1.51664 15.531C1.51664 15.8532 1.5263 16.1676 1.51249 16.481C1.50575 16.6341 1.56779 16.7223 1.68556 16.7973C2.1419 17.0881 2.6539 17.2255 3.17523 17.3255C4.42386 17.5648 5.67753 17.5744 6.93042 17.3593C7.52112 17.2579 8.10167 17.1181 8.61816 16.7896C8.73308 16.7166 8.77986 16.628 8.77919 16.4861C8.77342 15.2615 8.77601 14.0369 8.77549 12.8123C8.77545 12.7539 8.77012 12.6955 8.76768 12.6458C6.34886 13.4607 3.94223 13.4394 1.51664 12.6705C1.51664 12.9827 1.52645 13.3028 1.51242 13.622C1.50564 13.7759 1.56082 13.8774 1.68901 13.9325C2.00482 14.068 2.31627 14.2266 2.64571 14.3153C3.80249 14.6269 4.98364 14.6655 6.17223 14.5721C6.30745 14.5615 6.44301 14.5429 6.57812 14.545C6.94301 14.5508 7.24571 14.8341 7.29001 15.2006C7.33319 15.5576 7.0926 15.9083 6.73623 15.9928C6.61727 16.0211 6.4926 16.0275 6.37005 16.0379C4.7506 16.1746 3.15334 16.0943 1.60412 15.5463C1.58175 15.5384 1.55682 15.5378 1.51664 15.531ZM8.75645 10.8989C8.60145 10.807 8.48053 10.7224 8.34916 10.6597C7.74034 10.3691 7.08642 10.2469 6.42419 10.1667C5.58782 10.0655 4.74975 10.0631 3.91293 10.1657C3.2316 10.2492 2.56127 10.3804 1.93919 10.6876C1.80534 10.7537 1.68405 10.8454 1.54179 10.9348C1.6103 10.9907 1.64519 11.0262 1.6863 11.0515C1.77019 11.1031 1.8546 11.1554 1.94375 11.1967C2.58982 11.496 3.27827 11.6245 3.98001 11.698C5.23049 11.8289 6.46819 11.7757 7.68316 11.4274C8.05664 11.3204 8.42019 11.1858 8.75645 10.8989ZM17.4938 2.28749C17.3381 2.1952 17.2179 2.11055 17.087 2.04858C16.4779 1.76035 15.8249 1.63688 15.1629 1.55699C14.3147 1.4546 13.4647 1.45408 12.6165 1.55658C11.9483 1.63729 11.289 1.7605 10.6755 2.05481C10.5465 2.11671 10.4289 2.20258 10.2857 2.28975C10.633 2.5769 11.0103 2.71061 11.397 2.8078C13.054 3.22424 14.7145 3.22505 16.3718 2.80906C16.7596 2.71176 17.1369 2.57679 17.4938 2.28749Z" fill="#423F49"/>
<path d="M4.40455 -0.00390625C5.01033 0.074209 5.4454 0.431944 5.84599 0.859555C6.20488 1.24267 6.58914 1.60189 6.94996 1.98326C7.37533 2.43292 7.17736 3.11425 6.58951 3.24368C6.30396 3.30655 6.07136 3.19759 5.87048 2.99802C5.57703 2.70653 5.28085 2.41781 4.9601 2.10264C4.9601 2.18466 4.9601 2.24774 4.9601 2.31083C4.9601 3.64654 4.96092 4.98229 4.95951 6.31801C4.9591 6.68806 4.77807 6.9649 4.4734 7.07508C3.99592 7.24767 3.49699 6.9102 3.48218 6.39215C3.47014 5.972 3.47877 5.55122 3.4787 5.13073C3.47851 4.19079 3.47866 3.25081 3.47866 2.31087C3.47866 2.25093 3.47866 2.19104 3.47866 2.09426C3.41011 2.15597 3.36518 2.19282 3.32429 2.23379C3.05381 2.50498 2.7914 2.78471 2.51244 3.04682C2.20214 3.33839 1.76581 3.33048 1.47877 3.04641C1.19081 2.76145 1.17218 2.31925 1.46488 2.01184C1.94618 1.50637 2.44229 1.01497 2.93644 0.521934C3.23966 0.219418 3.62077 0.0718711 4.03422 -0.00390625C4.15762 -0.00390625 4.2811 -0.00390625 4.40455 -0.00390625Z" fill="#423F49"/>
</svg>
