<svg width="134" height="137" viewBox="0 0 134 137" fill="none" xmlns="http://www.w3.org/2000/svg">
<path d="M62.8331 76.1115C62.8331 76.1115 62.6713 76.2762 62.4873 76.3879L58.3724 69.1083C58.799 68.7573 58.9736 68.2041 58.9143 67.6697C58.8208 66.7872 57.9049 66.1629 56.8737 66.2745C55.8425 66.3831 55.1291 67.185 55.179 68.0734C55.235 69.1424 56.1508 69.4469 57.1696 69.4653L59.4655 74.4024L60.7363 77.1336C60.5399 77.1801 60.3097 77.2268 60.1941 77.2329C56.5838 75.0298 53.0637 73.1286 49.6867 71.7398C49.5031 71.6653 49.3908 71.4851 49.4002 71.2862C49.5235 68.7637 49.423 66.456 48.741 64.0544C48.6961 63.8967 48.7343 63.7272 48.8476 63.6085C49.61 62.8093 52.7527 59.8402 57.3469 59.8619C57.671 60.2844 58.0198 60.7039 58.3905 61.117C59.6116 62.4811 61.0724 63.792 62.6894 65.0692C62.8077 65.1655 62.8734 65.3115 62.867 65.464C62.6555 69.1176 62.6277 72.675 62.8331 76.1115Z" fill="#9B3A38"/>
<path opacity="0.4" d="M60.7363 77.1336C60.5399 77.1801 60.3097 77.2268 60.1941 77.2329C56.5838 75.0298 53.0637 73.1286 49.6867 71.7398C49.5031 71.6653 49.3908 71.4851 49.4002 71.2862C49.5235 68.7637 49.423 66.456 48.741 64.0544C48.6961 63.8967 48.7343 63.7272 48.8476 63.6085C49.61 62.8093 52.7527 59.8402 57.3469 59.8619C57.671 60.2844 58.0198 60.7039 58.3905 61.117C55.867 61.471 53.1542 63.2499 52.3124 63.8388C52.1515 63.9511 52.0818 64.1477 52.1287 64.3379C52.6864 66.6081 52.7279 69.5605 52.7266 70.472C52.7263 70.6458 52.8218 70.8049 52.9749 70.8878L59.4652 74.4028L60.7363 77.1336Z" fill="white"/>
<path d="M71.1809 5.19109C71.1437 5.278 71.0626 5.34953 70.9474 5.37125C70.3274 5.48924 69.7108 5.65704 69.1002 5.87463C69.0972 5.87463 69.0908 5.87463 69.0878 5.87764C68.7419 5.99864 68.3961 6.13869 68.0566 6.29077C63.0258 8.54328 58.8204 13.9464 58.9792 20.1758C59.1847 28.1453 66.5988 31.8488 64.6488 37.898L66.2312 35.4527C66.3465 35.2755 66.6206 35.3594 66.6206 35.5707C66.7078 46.5384 61.4775 47.7407 58.3251 58.2207C58.2785 58.3668 58.1351 58.4661 57.9856 58.4507C57.5902 58.4136 56.7614 58.3731 55.6649 58.5252C54.9203 58.6278 54.0513 58.8204 53.1106 59.159C50.2168 56.1233 47.8898 52.5378 46.1763 48.6605C44.4538 44.7582 43.3385 40.5637 42.8368 36.2853C42.3352 32.0133 42.438 27.648 43.2262 23.3883C44.0175 19.141 45.5064 14.9682 47.9333 11.3269C45.3415 14.8566 43.6408 18.9949 42.6378 23.2639C41.6378 27.5483 41.3295 31.9915 41.6408 36.4003C41.9585 40.809 42.8992 45.19 44.5128 49.3471C46.0235 53.2494 48.1388 56.9529 50.8552 60.2092C49.74 60.8556 48.5845 61.7287 47.4441 62.9092C47.3412 63.0179 47.1793 63.0429 47.0453 62.9744C32.2829 55.0794 28.1056 43.22 29.8841 34.6759C29.934 34.4335 30.233 34.3373 30.42 34.5017L31.7501 35.6699C31.7501 35.6699 29.2859 19.7062 37.6066 10.7891C47.0547 0.660345 59.7426 -0.0542791 71.0131 4.75222C71.1997 4.83378 71.2496 5.03901 71.1809 5.19109Z" fill="#FFB031"/>
<path opacity="0.4" d="M58.9803 20.1762C59.1857 28.1457 66.5999 31.8492 64.6499 37.8985L66.2323 35.4531C66.3476 35.2759 66.6217 35.3598 66.6217 35.5711C66.7088 46.5388 61.4786 47.7411 58.3261 58.2211C58.2796 58.3672 58.1361 58.4665 57.9867 58.4511C57.5912 58.414 56.7625 58.3736 55.666 58.5257C54.5008 51.5101 59.3948 44.423 59.8091 41.6578L59.0678 42.1548C59.7997 37.0408 44.3426 16.1522 68.058 6.29053C63.0265 8.5437 58.8215 13.9468 58.9803 20.1762Z" fill="white"/>
<path d="M75.2442 24.277C73.6007 19.7463 81.2415 11.6715 73.279 6.61531C73.27 6.60963 73.2613 6.60629 73.2505 6.60595C72.9493 6.59626 68.0471 6.51671 63.9721 11.1761C65.9285 11.7511 67.7311 12.818 69.3722 15.7774C69.3722 15.7774 66.9767 12.2284 63.1705 12.1729C62.7147 12.7872 62.2743 13.4671 61.8585 14.2245C61.8397 14.2586 61.8611 14.3017 61.8993 14.3087C70.9405 15.9205 68.1966 22.3925 75.1748 24.3502C75.2197 24.3629 75.2599 24.3202 75.2442 24.277Z" fill="#F0923D"/>
<path d="M74.6282 51.6274C74.2455 52.9476 73.2338 55.7443 71.3263 56.6952C71.1912 56.7624 71.1872 56.956 71.3199 57.0282C73.2462 58.0777 74.2492 60.8015 74.6289 62.0897C74.6825 62.2719 74.9406 62.2719 74.9945 62.0897C75.3739 60.8015 76.3772 58.0777 78.3031 57.0282C78.4359 56.956 78.4318 56.7624 78.2968 56.6952C76.3889 55.7443 75.3772 52.9476 74.9948 51.6274C74.9412 51.4445 74.6812 51.4445 74.6282 51.6274Z" fill="#9B3A38"/>
<path d="M79.9327 48.3394C79.7236 49.0613 79.1703 50.5905 78.1271 51.1106C78.053 51.1474 78.051 51.2534 78.1234 51.2928C79.1767 51.8667 79.7253 53.3561 79.9327 54.0607C79.9622 54.1603 80.1033 54.1603 80.1325 54.0607C80.3399 53.3561 80.8885 51.8667 81.9418 51.2928C82.0141 51.2534 82.0121 51.1474 81.9381 51.1106C80.8949 50.5905 80.3416 49.0613 80.1325 48.3394C80.104 48.2391 79.9619 48.2391 79.9327 48.3394Z" fill="#9B3A38"/>
<path d="M69.8221 47.1171C69.7042 47.5235 69.3928 48.3849 68.8054 48.6777C68.7638 48.6984 68.7625 48.7579 68.8034 48.7803C69.3965 49.1035 69.7055 49.9421 69.8221 50.3389C69.8385 50.3951 69.918 50.3951 69.9347 50.3389C70.0517 49.9421 70.3607 49.1035 70.9535 48.7803C70.9944 48.7579 70.993 48.6984 70.9515 48.6777C70.364 48.3849 70.0524 47.5235 69.9347 47.1171C69.9186 47.0606 69.8385 47.0606 69.8221 47.1171Z" fill="#9B3A38"/>
<path d="M88.8009 5.8586C88.6662 5.71153 88.8703 5.49928 89.0251 5.62529C92.7591 8.66262 95.9551 12.4159 98.4859 16.6007C101.348 21.4202 103.249 26.8471 104.068 32.4585C104.844 38.0712 104.585 43.8581 103.198 49.4039C102.517 52.1785 101.537 54.8799 100.324 57.4713C99.1022 60.0591 97.6257 62.5259 95.9387 64.8389C94.2389 67.1428 92.3234 69.2871 90.2249 71.2341C88.1156 73.1687 85.8338 74.9168 83.3992 76.4176C78.5339 79.4232 73.0895 81.4798 67.4786 82.406C61.869 83.3472 56.1123 83.1584 50.6371 81.92C45.8603 80.807 41.2937 78.9054 37.2618 76.2635C37.0949 76.1542 37.2364 75.8965 37.4173 75.9801C41.7648 77.9856 46.3359 79.3687 50.9934 79.969C56.3117 80.6612 61.7145 80.4553 66.873 79.2881C72.0315 78.131 76.9518 76.0613 81.3362 73.1861C83.5278 71.7498 85.5972 70.1294 87.4896 68.3234C89.3931 66.5302 91.1307 64.5631 92.6719 62.454C94.2262 60.3539 95.5781 58.1064 96.7202 55.7573C102.533 43.7992 102.435 29.5087 96.742 17.5306C94.7316 13.302 92.0265 9.38459 88.8009 5.8586Z" fill="#423F49"/>
<path d="M97.1714 30.8812C96.8282 29.1896 96.3922 27.5264 95.8564 25.9026C95.3222 24.2781 94.6603 22.7028 93.9076 21.182C93.1603 19.6585 92.3088 18.1915 91.3621 16.794C90.4241 15.3911 89.3882 14.0581 88.2736 12.7994C80.8976 4.31946 76.6821 2.57435 72.4194 0.266021C72.2599 0.165746 72.3219 -0.0147478 72.5089 0.000961919C74.2894 0.185467 76.0246 0.692525 77.6805 1.3637C79.3383 2.03788 80.9291 2.88018 82.4238 3.86822C83.9211 4.85292 85.3058 6.00742 86.5477 7.29796C87.787 8.59183 88.9264 9.97028 90.0089 11.3825C91.0886 12.7974 92.0755 14.2794 92.9509 15.8216C93.8115 17.3729 94.5608 18.9796 95.1932 20.6251C95.8115 22.276 96.3379 23.9569 96.7032 25.6706C97.0742 27.3823 97.3175 29.1131 97.4489 30.8448C97.4576 30.9758 97.2233 30.9952 97.1714 30.8812Z" fill="#423F49"/>
<path d="M2.502 113C2.34067 113 2.26 112.919 2.26 112.758V98.832C2.26 98.6707 2.34067 98.59 2.502 98.59H6.352C8.18533 98.59 9.54933 98.9787 10.444 99.756C11.3533 100.533 11.808 101.67 11.808 103.166C11.808 104.662 11.346 105.799 10.422 106.576C9.51267 107.353 8.156 107.742 6.352 107.742H4.482V112.758C4.482 112.919 4.40133 113 4.24 113H2.502ZM4.482 105.872H6.308C7.43733 105.872 8.266 105.659 8.794 105.234C9.322 104.809 9.586 104.141 9.586 103.232C9.586 102.264 9.31467 101.567 8.772 101.142C8.244 100.702 7.41533 100.482 6.286 100.482H4.482V105.872ZM18.4252 113.264C16.9292 113.264 15.7925 112.927 15.0152 112.252C14.2525 111.577 13.8712 110.573 13.8712 109.238V106.312C13.8712 104.889 14.2525 103.811 15.0152 103.078C15.7779 102.33 16.9072 101.956 18.4032 101.956C19.8845 101.956 21.0065 102.315 21.7692 103.034C22.5319 103.753 22.9132 104.801 22.9132 106.18V107.896C22.9132 108.057 22.8399 108.138 22.6932 108.138H16.0712V108.842C16.0712 109.737 16.2619 110.389 16.6432 110.8C17.0245 111.211 17.6405 111.416 18.4912 111.416C19.1365 111.416 19.6352 111.313 19.9872 111.108C20.3392 110.903 20.5152 110.587 20.5152 110.162C20.5152 110.001 20.6032 109.92 20.7792 109.92H22.4732C22.6052 109.92 22.6859 109.993 22.7152 110.14C22.7739 111.123 22.4219 111.893 21.6592 112.45C20.8965 112.993 19.8185 113.264 18.4252 113.264ZM16.0712 106.466H20.7352V106.356C20.7352 105.476 20.5445 104.831 20.1632 104.42C19.7819 104.009 19.2025 103.804 18.4252 103.804C17.6332 103.804 17.0392 104.017 16.6432 104.442C16.2619 104.867 16.0712 105.505 16.0712 106.356V106.466ZM25.9363 113C25.775 113 25.6943 112.919 25.6943 112.758V104.882C25.6943 104.457 25.6796 104.053 25.6503 103.672C25.6356 103.276 25.599 102.88 25.5403 102.484C25.511 102.308 25.5916 102.22 25.7823 102.22H27.3443C27.4323 102.22 27.491 102.235 27.5203 102.264C27.5643 102.293 27.5936 102.352 27.6083 102.44C27.667 102.704 27.711 103.012 27.7403 103.364C27.7696 103.716 27.7843 104.017 27.7843 104.266L27.8943 105.476V112.758C27.8943 112.919 27.8136 113 27.6523 113H25.9363ZM27.6523 106.29L27.5643 104.288C27.8723 103.833 28.2243 103.437 28.6203 103.1C29.0163 102.748 29.4196 102.469 29.8303 102.264C30.241 102.059 30.6223 101.956 30.9743 101.956C31.2236 101.956 31.4216 101.978 31.5683 102.022C31.6416 102.037 31.6856 102.066 31.7003 102.11C31.7296 102.154 31.7516 102.213 31.7663 102.286C31.7956 102.609 31.803 102.953 31.7883 103.32C31.7883 103.672 31.7663 104.009 31.7223 104.332C31.7076 104.405 31.671 104.464 31.6123 104.508C31.5683 104.537 31.5023 104.545 31.4143 104.53C31.3116 104.501 31.1943 104.479 31.0623 104.464C30.9303 104.449 30.791 104.442 30.6443 104.442C30.2923 104.442 29.9403 104.523 29.5883 104.684C29.2363 104.831 28.8916 105.043 28.5543 105.322C28.2316 105.586 27.931 105.909 27.6523 106.29ZM37.0367 113.264C35.658 113.264 34.6313 112.978 33.9567 112.406C33.282 111.819 32.9593 110.939 32.9887 109.766C32.9887 109.619 33.0693 109.546 33.2307 109.546H34.9247C35.0567 109.546 35.1227 109.619 35.1227 109.766C35.1227 110.367 35.2767 110.807 35.5847 111.086C35.8927 111.35 36.384 111.482 37.0587 111.482C37.7187 111.482 38.21 111.372 38.5327 111.152C38.87 110.932 39.0387 110.609 39.0387 110.184C39.0387 109.861 38.936 109.597 38.7307 109.392C38.54 109.187 38.232 108.989 37.8067 108.798L35.2987 107.742C34.5067 107.419 33.942 107.045 33.6047 106.62C33.282 106.18 33.1207 105.615 33.1207 104.926C33.1207 103.943 33.436 103.203 34.0667 102.704C34.6973 102.205 35.6507 101.956 36.9267 101.956C38.2467 101.956 39.2513 102.22 39.9407 102.748C40.6447 103.276 40.9967 104.031 40.9967 105.014C40.9967 105.161 40.916 105.234 40.7547 105.234H39.0607C38.9873 105.234 38.9287 105.205 38.8847 105.146C38.8407 105.087 38.8187 104.999 38.8187 104.882C38.8187 104.515 38.6573 104.237 38.3347 104.046C38.0267 103.841 37.5867 103.738 37.0147 103.738C36.4427 103.738 36.0173 103.841 35.7387 104.046C35.46 104.237 35.3207 104.53 35.3207 104.926C35.3207 105.219 35.4013 105.447 35.5627 105.608C35.724 105.755 36.0467 105.938 36.5307 106.158L39.0387 107.192C39.816 107.515 40.3733 107.903 40.7107 108.358C41.0627 108.798 41.2387 109.37 41.2387 110.074C41.2387 111.101 40.8793 111.893 40.1607 112.45C39.442 112.993 38.4007 113.264 37.0367 113.264ZM48.0982 113.264C46.5875 113.264 45.4289 112.897 44.6222 112.164C43.8155 111.431 43.4122 110.323 43.4122 108.842V106.378C43.4122 104.897 43.8082 103.789 44.6002 103.056C45.4069 102.323 46.5729 101.956 48.0982 101.956C49.6089 101.956 50.7602 102.323 51.5522 103.056C52.3589 103.789 52.7622 104.897 52.7622 106.378V108.842C52.7622 110.323 52.3662 111.431 51.5742 112.164C50.7822 112.897 49.6235 113.264 48.0982 113.264ZM48.0982 111.35C48.9635 111.35 49.5869 111.13 49.9682 110.69C50.3642 110.25 50.5622 109.568 50.5622 108.644V106.576C50.5622 105.667 50.3642 104.992 49.9682 104.552C49.5869 104.097 48.9635 103.87 48.0982 103.87C47.2182 103.87 46.5802 104.097 46.1842 104.552C45.8029 104.992 45.6122 105.667 45.6122 106.576V108.644C45.6122 109.568 45.8029 110.25 46.1842 110.69C46.5802 111.13 47.2182 111.35 48.0982 111.35ZM62.7736 113C62.6122 113 62.5316 112.919 62.5316 112.758V105.85C62.5316 105.175 62.3922 104.684 62.1136 104.376C61.8496 104.053 61.4316 103.892 60.8596 103.892C60.3169 103.892 59.7816 104.053 59.2536 104.376C58.7256 104.684 58.0949 105.205 57.3616 105.938L57.3176 104.156C57.7869 103.657 58.2416 103.247 58.6816 102.924C59.1216 102.601 59.5689 102.359 60.0236 102.198C60.4929 102.037 60.9842 101.956 61.4976 101.956C62.5536 101.956 63.3529 102.264 63.8956 102.88C64.4529 103.481 64.7316 104.391 64.7316 105.608V112.758C64.7316 112.919 64.6582 113 64.5116 113H62.7736ZM55.7996 113C55.6382 113 55.5576 112.919 55.5576 112.758V104.948C55.5576 104.537 55.5356 104.105 55.4916 103.65C55.4622 103.181 55.4329 102.807 55.4036 102.528C55.3742 102.323 55.4549 102.22 55.6456 102.22H57.2076C57.2956 102.22 57.3542 102.235 57.3836 102.264C57.4276 102.293 57.4569 102.352 57.4716 102.44C57.5009 102.572 57.5302 102.755 57.5596 102.99C57.5889 103.225 57.6182 103.474 57.6476 103.738C57.6769 104.002 57.6916 104.229 57.6916 104.42L57.7576 105.124V112.758C57.7576 112.919 57.6769 113 57.5156 113H55.7996ZM74.0957 113C74.0077 113 73.9417 112.971 73.8977 112.912C73.8683 112.853 73.839 112.78 73.8097 112.692C73.795 112.56 73.7583 112.311 73.6997 111.944C73.6557 111.577 73.6263 111.233 73.6117 110.91L73.5017 110.052V105.674C73.5017 104.985 73.3623 104.501 73.0837 104.222C72.8197 103.929 72.3503 103.782 71.6757 103.782C70.4437 103.782 69.835 104.215 69.8497 105.08C69.8497 105.241 69.7763 105.322 69.6297 105.322H67.9357C67.7743 105.322 67.6863 105.19 67.6717 104.926C67.5983 104.017 67.9283 103.298 68.6617 102.77C69.395 102.227 70.4217 101.956 71.7417 101.956C73.091 101.956 74.0883 102.264 74.7337 102.88C75.379 103.481 75.7017 104.405 75.7017 105.652V110.294C75.7017 110.793 75.7163 111.247 75.7457 111.658C75.775 112.069 75.8117 112.428 75.8557 112.736C75.885 112.912 75.8043 113 75.6137 113H74.0957ZM69.8937 113.264C69.0283 113.264 68.3683 113.007 67.9137 112.494C67.459 111.966 67.2317 111.211 67.2317 110.228C67.2317 109.465 67.3783 108.842 67.6717 108.358C67.965 107.874 68.4417 107.5 69.1017 107.236C69.7763 106.972 70.671 106.796 71.7857 106.708L73.8537 106.532L73.8317 108.028L71.8517 108.204C70.9277 108.277 70.2823 108.446 69.9157 108.71C69.5637 108.974 69.3877 109.414 69.3877 110.03C69.3877 110.499 69.483 110.851 69.6737 111.086C69.8643 111.321 70.1577 111.438 70.5537 111.438C71.0083 111.438 71.485 111.284 71.9837 110.976C72.4823 110.668 73.1277 110.103 73.9197 109.282L73.9637 110.976C73.465 111.504 72.9957 111.937 72.5557 112.274C72.1303 112.611 71.6977 112.861 71.2577 113.022C70.8323 113.183 70.3777 113.264 69.8937 113.264ZM79.0242 113C78.8629 113 78.7822 112.919 78.7822 112.758V98.216C78.7822 98.0547 78.8629 97.974 79.0242 97.974H80.7402C80.9015 97.974 80.9822 98.0547 80.9822 98.216V112.758C80.9822 112.919 80.9015 113 80.7402 113H79.0242ZM89.084 113C88.9227 113 88.842 112.919 88.842 112.758V98.832C88.842 98.6707 88.9227 98.59 89.084 98.59H91.878C92.0247 98.59 92.12 98.6487 92.164 98.766L96.036 106.576C96.3 107.104 96.5347 107.588 96.74 108.028C96.96 108.468 97.1507 108.886 97.312 109.282C97.488 109.678 97.6494 110.059 97.796 110.426H97.84C97.84 110.133 97.8327 109.817 97.818 109.48C97.818 109.143 97.8107 108.805 97.796 108.468C97.796 108.116 97.796 107.779 97.796 107.456C97.796 107.119 97.796 106.796 97.796 106.488V98.832C97.796 98.6707 97.8694 98.59 98.016 98.59H99.732C99.8934 98.59 99.974 98.6707 99.974 98.832V112.758C99.974 112.919 99.8934 113 99.732 113H96.96C96.828 113 96.74 112.941 96.696 112.824L92.912 105.234C92.6774 104.765 92.45 104.303 92.23 103.848C92.0247 103.393 91.8194 102.946 91.614 102.506C91.4087 102.051 91.2107 101.611 91.02 101.186H90.976C90.976 101.553 90.976 101.912 90.976 102.264C90.9907 102.601 90.998 102.946 90.998 103.298C91.0127 103.635 91.02 103.98 91.02 104.332C91.02 104.684 91.02 105.043 91.02 105.41V112.758C91.02 112.919 90.9394 113 90.778 113H89.084ZM107.653 113.264C106.142 113.264 104.984 112.897 104.177 112.164C103.37 111.431 102.967 110.323 102.967 108.842V106.378C102.967 104.897 103.363 103.789 104.155 103.056C104.962 102.323 106.128 101.956 107.653 101.956C109.164 101.956 110.315 102.323 111.107 103.056C111.914 103.789 112.317 104.897 112.317 106.378V108.842C112.317 110.323 111.921 111.431 111.129 112.164C110.337 112.897 109.178 113.264 107.653 113.264ZM107.653 111.35C108.518 111.35 109.142 111.13 109.523 110.69C109.919 110.25 110.117 109.568 110.117 108.644V106.576C110.117 105.667 109.919 104.992 109.523 104.552C109.142 104.097 108.518 103.87 107.653 103.87C106.773 103.87 106.135 104.097 105.739 104.552C105.358 104.992 105.167 105.667 105.167 106.576V108.644C105.167 109.568 105.358 110.25 105.739 110.69C106.135 111.13 106.773 111.35 107.653 111.35ZM119.116 113.264C118.31 113.264 117.672 113.139 117.202 112.89C116.733 112.626 116.388 112.23 116.168 111.702C115.963 111.159 115.86 110.485 115.86 109.678V104.09H114.188C114.042 104.09 113.968 104.009 113.968 103.848V102.462C113.968 102.301 114.042 102.22 114.188 102.22H115.926L116.19 99.58C116.205 99.4333 116.293 99.36 116.454 99.36H117.796C117.958 99.36 118.038 99.4333 118.038 99.58L118.06 102.22H121.206C121.368 102.22 121.448 102.301 121.448 102.462V103.848C121.448 104.009 121.368 104.09 121.206 104.09H118.06V109.59C118.06 110.235 118.17 110.697 118.39 110.976C118.625 111.24 119.021 111.372 119.578 111.372C119.857 111.372 120.136 111.343 120.414 111.284C120.708 111.211 120.964 111.123 121.184 111.02C121.272 110.991 121.338 110.998 121.382 111.042C121.441 111.071 121.47 111.123 121.47 111.196V112.626C121.47 112.758 121.412 112.846 121.294 112.89C121.016 112.993 120.693 113.081 120.326 113.154C119.974 113.227 119.571 113.264 119.116 113.264ZM127.695 113.264C126.199 113.264 125.062 112.927 124.285 112.252C123.522 111.577 123.141 110.573 123.141 109.238V106.312C123.141 104.889 123.522 103.811 124.285 103.078C125.047 102.33 126.177 101.956 127.673 101.956C129.154 101.956 130.276 102.315 131.039 103.034C131.801 103.753 132.183 104.801 132.183 106.18V107.896C132.183 108.057 132.109 108.138 131.963 108.138H125.341V108.842C125.341 109.737 125.531 110.389 125.913 110.8C126.294 111.211 126.91 111.416 127.761 111.416C128.406 111.416 128.905 111.313 129.257 111.108C129.609 110.903 129.785 110.587 129.785 110.162C129.785 110.001 129.873 109.92 130.049 109.92H131.743C131.875 109.92 131.955 109.993 131.985 110.14C132.043 111.123 131.691 111.893 130.929 112.45C130.166 112.993 129.088 113.264 127.695 113.264ZM125.341 106.466H130.005V106.356C130.005 105.476 129.814 104.831 129.433 104.42C129.051 104.009 128.472 103.804 127.695 103.804C126.903 103.804 126.309 104.017 125.913 104.442C125.531 104.867 125.341 105.505 125.341 106.356V106.466Z" fill="#423F49"/>
<path d="M38.33 133C38.2367 133 38.19 132.953 38.19 132.86V123.97C38.19 123.877 38.2367 123.83 38.33 123.83H43.314C43.4073 123.83 43.454 123.877 43.454 123.97V124.768C43.454 124.861 43.4073 124.908 43.314 124.908H39.38V127.82H42.978C43.0713 127.82 43.118 127.867 43.118 127.96V128.716C43.118 128.809 43.0713 128.856 42.978 128.856H39.38V131.922H43.314C43.4073 131.922 43.454 131.969 43.454 132.062V132.86C43.454 132.953 43.4073 133 43.314 133H38.33ZM47.2788 133C47.1948 133 47.1388 132.963 47.1108 132.888L44.8288 126.322C44.8008 126.219 44.8382 126.168 44.9408 126.168H45.9068C45.9908 126.168 46.0468 126.205 46.0748 126.28L47.3208 130.2C47.4235 130.517 47.5262 130.839 47.6288 131.166C47.7315 131.483 47.8295 131.805 47.9228 132.132H47.9508C48.0442 131.805 48.1422 131.483 48.2448 131.166C48.3475 130.849 48.4502 130.531 48.5528 130.214L49.7988 126.28C49.8268 126.205 49.8828 126.168 49.9668 126.168H50.9328C51.0355 126.168 51.0728 126.219 51.0448 126.322L48.7488 132.888C48.7208 132.963 48.6648 133 48.5808 133H47.2788ZM54.9274 133.168C54.0314 133.168 53.3408 132.958 52.8554 132.538C52.3794 132.118 52.1414 131.497 52.1414 130.676V128.716C52.1414 127.829 52.3794 127.157 52.8554 126.7C53.3314 126.233 54.0221 126 54.9274 126C55.8328 126 56.5188 126.229 56.9854 126.686C57.4614 127.134 57.6994 127.787 57.6994 128.646V129.738C57.6994 129.831 57.6528 129.878 57.5594 129.878H53.3314V130.326C53.3314 130.951 53.4621 131.409 53.7234 131.698C53.9848 131.978 54.4094 132.118 54.9974 132.118C55.4361 132.118 55.7721 132.048 56.0054 131.908C56.2481 131.759 56.3694 131.544 56.3694 131.264C56.3694 131.161 56.4208 131.11 56.5234 131.11H57.4334C57.5081 131.11 57.5548 131.152 57.5734 131.236C57.6108 131.833 57.3914 132.305 56.9154 132.65C56.4394 132.995 55.7768 133.168 54.9274 133.168ZM53.3314 128.856H56.5094V128.772C56.5094 128.184 56.3788 127.75 56.1174 127.47C55.8561 127.19 55.4641 127.05 54.9414 127.05C54.4001 127.05 53.9941 127.195 53.7234 127.484C53.4621 127.773 53.3314 128.207 53.3314 128.786V128.856ZM59.7232 133C59.6299 133 59.5832 132.953 59.5832 132.86V127.834C59.5832 127.573 59.5739 127.321 59.5552 127.078C59.5459 126.826 59.5225 126.574 59.4852 126.322C59.4665 126.219 59.5132 126.168 59.6252 126.168H60.4792C60.5259 126.168 60.5585 126.177 60.5772 126.196C60.6052 126.215 60.6239 126.247 60.6332 126.294C60.6705 126.471 60.6985 126.677 60.7172 126.91C60.7359 127.134 60.7452 127.325 60.7452 127.484L60.7732 128.226V132.86C60.7732 132.953 60.7265 133 60.6332 133H59.7232ZM60.6192 128.646L60.5912 127.498C60.7872 127.209 61.0112 126.952 61.2632 126.728C61.5245 126.504 61.7859 126.327 62.0472 126.196C62.3179 126.065 62.5652 126 62.7892 126C62.9572 126 63.0832 126.014 63.1672 126.042C63.2139 126.051 63.2419 126.07 63.2512 126.098C63.2699 126.117 63.2839 126.145 63.2932 126.182C63.3119 126.378 63.3165 126.579 63.3072 126.784C63.3072 126.989 63.2932 127.185 63.2652 127.372C63.2559 127.419 63.2325 127.451 63.1952 127.47C63.1672 127.489 63.1299 127.493 63.0832 127.484C63.0085 127.465 62.9292 127.451 62.8452 127.442C62.7612 127.433 62.6725 127.428 62.5792 127.428C62.3459 127.428 62.1125 127.479 61.8792 127.582C61.6459 127.685 61.4219 127.829 61.2072 128.016C60.9925 128.193 60.7965 128.403 60.6192 128.646ZM65.8269 135.59C65.7149 135.59 65.6822 135.534 65.7289 135.422L66.7229 132.916L64.1329 126.336C64.0862 126.224 64.1189 126.168 64.2309 126.168H65.2249C65.2995 126.168 65.3509 126.205 65.3789 126.28L66.6389 129.668C66.7509 129.957 66.8582 130.256 66.9609 130.564C67.0729 130.872 67.1802 131.175 67.2829 131.474H67.2969C67.3995 131.175 67.5069 130.872 67.6189 130.564C67.7402 130.256 67.8522 129.957 67.9549 129.668L69.2149 126.28C69.2429 126.205 69.2989 126.168 69.3829 126.168H70.3209C70.3675 126.168 70.4002 126.187 70.4189 126.224C70.4469 126.252 70.4515 126.289 70.4329 126.336L66.8909 135.478C66.8629 135.553 66.8115 135.59 66.7369 135.59H65.8269ZM75.0253 133C74.932 133 74.8853 132.953 74.8853 132.86V123.97C74.8853 123.877 74.932 123.83 75.0253 123.83H77.4753C78.9126 123.83 79.986 124.166 80.6953 124.838C81.4046 125.501 81.7593 126.509 81.7593 127.862V128.562C81.7593 130.055 81.4046 131.171 80.6953 131.908C79.9953 132.636 78.922 133 77.4753 133H75.0253ZM76.0753 131.992H77.3913C78.4833 131.992 79.286 131.721 79.7993 131.18C80.3126 130.639 80.5693 129.794 80.5693 128.646V127.778C80.5693 126.77 80.3126 126.028 79.7993 125.552C79.286 125.076 78.4833 124.838 77.3913 124.838H76.0753V131.992ZM87.5393 133C87.4833 133 87.446 132.981 87.4273 132.944C87.4087 132.907 87.39 132.86 87.3713 132.804C87.362 132.729 87.3387 132.571 87.3013 132.328C87.2733 132.076 87.2547 131.852 87.2453 131.656L87.2033 131.124V128.338C87.2033 127.871 87.11 127.54 86.9233 127.344C86.7367 127.148 86.41 127.05 85.9433 127.05C85.1033 127.05 84.6833 127.339 84.6833 127.918C84.6833 128.011 84.6413 128.058 84.5573 128.058H83.6333C83.54 128.058 83.4887 127.969 83.4793 127.792C83.4327 127.26 83.638 126.831 84.0953 126.504C84.562 126.168 85.192 126 85.9853 126C86.7973 126 87.3993 126.191 87.7913 126.574C88.1927 126.957 88.3933 127.535 88.3933 128.31V131.306C88.3933 131.633 88.4027 131.927 88.4213 132.188C88.44 132.44 88.4633 132.659 88.4913 132.846C88.51 132.949 88.4633 133 88.3513 133H87.5393ZM84.8653 133.168C84.324 133.168 83.9087 133.005 83.6193 132.678C83.3393 132.351 83.1993 131.875 83.1993 131.25C83.1993 130.765 83.2927 130.368 83.4793 130.06C83.6753 129.752 83.9833 129.514 84.4033 129.346C84.8327 129.178 85.402 129.066 86.1113 129.01L87.4273 128.898V129.808L86.0833 129.92C85.4393 129.976 84.996 130.093 84.7533 130.27C84.5107 130.447 84.3893 130.746 84.3893 131.166C84.3893 131.483 84.4547 131.721 84.5853 131.88C84.716 132.039 84.912 132.118 85.1733 132.118C85.4813 132.118 85.8033 132.015 86.1393 131.81C86.4753 131.595 86.9187 131.203 87.4693 130.634V131.684C87.1427 132.039 86.8347 132.328 86.5453 132.552C86.2653 132.767 85.99 132.921 85.7193 133.014C85.4487 133.117 85.164 133.168 84.8653 133.168ZM91.3386 135.59C91.2266 135.59 91.1939 135.534 91.2406 135.422L92.2346 132.916L89.6446 126.336C89.5979 126.224 89.6306 126.168 89.7426 126.168H90.7366C90.8113 126.168 90.8626 126.205 90.8906 126.28L92.1506 129.668C92.2626 129.957 92.3699 130.256 92.4726 130.564C92.5846 130.872 92.6919 131.175 92.7946 131.474H92.8086C92.9113 131.175 93.0186 130.872 93.1306 130.564C93.2519 130.256 93.3639 129.957 93.4666 129.668L94.7266 126.28C94.7546 126.205 94.8106 126.168 94.8946 126.168H95.8326C95.8793 126.168 95.9119 126.187 95.9306 126.224C95.9586 126.252 95.9633 126.289 95.9446 126.336L92.4026 135.478C92.3746 135.553 92.3233 135.59 92.2486 135.59H91.3386Z" fill="#B0ADB8"/>
</svg>
