<svg width="17" height="19" viewBox="0 0 17 19" fill="none" xmlns="http://www.w3.org/2000/svg">
<path d="M2.78124 18.8214C2.66255 18.7946 2.54339 18.7699 2.42531 18.7408C1.17719 18.4329 0.286107 17.3112 0.284697 16.022C0.280561 12.3515 0.279527 8.68095 0.285073 5.0104C0.287377 3.47963 1.52108 2.24194 3.05406 2.21801C3.17547 2.21613 3.22346 2.17463 3.26906 2.06863C3.66042 1.15894 4.61825 0.655136 5.57997 0.845648C6.54189 1.03625 7.24575 1.88752 7.24861 2.87905C7.25294 4.38006 7.25312 5.88117 7.24866 7.38219C7.24523 8.53913 6.31453 9.46424 5.16746 9.46189C4.03031 9.45954 3.10557 8.53373 3.09862 7.38713C3.09533 6.8477 3.09631 6.30826 3.09857 5.76883C3.1004 5.34099 3.40072 5.02831 3.80318 5.02916C4.2062 5.03001 4.50285 5.3416 4.50478 5.77208C4.50713 6.29393 4.50412 6.81578 4.50581 7.33763C4.50713 7.75024 4.78559 8.05032 5.16647 8.05413C5.55497 8.05803 5.84156 7.7557 5.84193 7.33462C5.84316 5.86877 5.84306 4.40286 5.84198 2.937C5.84165 2.52167 5.56719 2.2214 5.18739 2.21435C4.80491 2.20725 4.52085 2.4968 4.50525 2.90974C4.48922 3.33307 4.1976 3.6159 3.77107 3.62121C3.48975 3.62469 3.20527 3.60185 2.92766 3.63555C2.19019 3.72509 1.69133 4.31839 1.69109 5.08218C1.68997 8.70581 1.69053 12.3294 1.69114 15.9531C1.69114 16.0349 1.69217 16.1179 1.70505 16.1984C1.82078 16.9195 2.38917 17.4114 3.12052 17.4128C4.80918 17.4161 6.49789 17.4139 8.18655 17.4139C10.0394 17.4139 11.8923 17.414 13.7452 17.4139C14.6537 17.4138 15.2203 16.8813 15.2727 15.9794C15.2953 15.59 15.6052 15.2972 15.988 15.3032C16.3693 15.3092 16.6701 15.6143 16.679 16.0041C16.7098 17.3437 15.657 18.5813 14.3134 18.786C14.2686 18.7928 14.2253 18.8093 14.1813 18.8213C10.3812 18.8214 6.58123 18.8214 2.78124 18.8214Z" fill="#423F49"/>
<path d="M16.6793 8.68099C16.6794 9.94143 16.6816 11.2019 16.6784 12.4623C16.677 12.9697 16.2217 13.3075 15.7563 13.1555C15.4641 13.06 15.2744 12.7979 15.273 12.4726C15.2703 11.7867 15.2721 11.1007 15.2721 10.4148C15.2721 8.65607 15.2724 6.89733 15.272 5.13853C15.2717 4.2107 14.6839 3.62177 13.7582 3.62149C12.3042 3.62106 10.8504 3.62285 9.39645 3.62055C8.87888 3.6197 8.53658 3.16116 8.69541 2.69083C8.79525 2.39526 9.059 2.21462 9.40125 2.21443C10.8962 2.21354 12.3912 2.20983 13.8861 2.21862C14.1234 2.22003 14.3666 2.25631 14.5965 2.31686C15.8187 2.63889 16.6712 3.74097 16.6778 5.00518C16.6843 6.23042 16.6793 7.4557 16.6793 8.68099Z" fill="#423F49"/>
<path d="M8.45977 13.1917C6.91833 13.1917 5.37689 13.1932 3.83545 13.1908C3.31905 13.19 2.97713 12.7286 3.13751 12.2592C3.22852 11.9929 3.47407 11.8048 3.75676 11.786C3.79761 11.7833 3.83878 11.7844 3.87982 11.7844C6.951 11.7843 10.0221 11.7851 13.0933 11.7832C13.4172 11.783 13.6649 11.9034 13.8018 12.2034C14.0116 12.6628 13.6832 13.1793 13.172 13.1895C12.7267 13.1984 12.2812 13.1917 11.8357 13.1917C10.7104 13.1918 9.58508 13.1918 8.45977 13.1917Z" fill="#423F49"/>
<path d="M7.07325 16.0064C5.98917 16.0063 4.90504 16.0091 3.82096 16.0052C3.31631 16.0033 2.98022 15.5417 3.13609 15.0775C3.23189 14.7923 3.49122 14.6026 3.80516 14.6002C4.29736 14.5964 4.78964 14.599 5.28188 14.599C6.95785 14.599 8.63378 14.5979 10.3097 14.5998C10.8274 14.6004 11.1698 15.0569 11.0123 15.5276C10.9135 15.8229 10.6487 16.0055 10.308 16.0059C9.22971 16.0073 8.15145 16.0064 7.07325 16.0064Z" fill="#423F49"/>
<path d="M10.945 10.3768C10.2068 10.3767 9.46863 10.3794 8.73046 10.3755C8.38939 10.3737 8.12371 10.1566 8.0431 9.83016C7.97029 9.53539 8.10355 9.21119 8.37914 9.06849C8.48918 9.01152 8.62319 8.97424 8.74649 8.97368C10.2111 8.96728 11.6758 8.96818 13.1404 8.97043C13.554 8.97109 13.8636 9.27667 13.8641 9.67222C13.8646 10.0679 13.5555 10.3738 13.142 10.3758C12.4096 10.3793 11.6773 10.3768 10.945 10.3768Z" fill="#423F49"/>
</svg>
