<svg width="19" height="19" viewBox="0 0 19 19" fill="none" xmlns="http://www.w3.org/2000/svg">
<path d="M-0.09375 16.4472C-0.09375 11.1303 -0.09375 5.81344 -0.09375 0.496498C0.0594229 0.0486321 0.377685 -0.109776 0.841378 -0.108883C5.12356 -0.10061 9.40573 -0.104041 13.6879 -0.103947C14.3124 -0.103947 14.593 0.174888 14.593 0.795733C14.5931 3.69713 14.5931 6.59853 14.5931 9.49992C14.5931 9.5724 14.5931 9.64489 14.5931 9.72917C14.6851 9.72917 14.7528 9.72917 14.8205 9.72917C15.9753 9.72917 17.1302 9.72761 18.2849 9.73001C18.7353 9.73095 19.0709 10.0115 19.0815 10.4302C19.0981 11.0863 19.1004 11.7436 19.0817 12.3995C19.0674 12.9028 18.5611 13.2268 18.0903 13.0625C17.7906 12.958 17.5965 12.6832 17.5919 12.3403C17.5869 11.974 17.5907 11.6076 17.5907 11.245C16.5769 11.245 15.5885 11.245 14.5958 11.245C14.5958 12.8914 14.582 14.5232 14.6021 16.1547C14.6111 16.8865 15.1519 17.4752 15.8305 17.5812C16.7666 17.7275 17.5193 17.1022 17.5899 16.1199C17.6231 15.6563 17.9464 15.3426 18.3719 15.361C18.7991 15.3795 19.096 15.7213 19.0871 16.1843C19.0608 17.5529 18.0823 18.7405 16.7338 19.0407C16.632 19.0633 16.5306 19.0881 16.429 19.112C11.8082 19.112 7.18733 19.112 2.56648 19.112C2.53257 19.0998 2.49959 19.0823 2.46464 19.0763C1.42916 18.8998 0.665969 18.3446 0.209922 17.3991C0.0665537 17.1021 0.00509692 16.7657 -0.09375 16.4472ZM13.5074 17.6107C13.0643 16.8853 13.0923 16.12 13.0928 15.3559C13.096 10.7847 13.0944 6.21355 13.0944 1.64234C13.0944 1.56384 13.0944 1.48539 13.0944 1.41169C9.1828 1.41169 5.2977 1.41169 1.4049 1.41169C1.4049 1.46325 1.4049 1.50043 1.4049 1.53757C1.4049 6.3714 1.40434 11.2052 1.40739 16.0391C1.40748 16.1934 1.42573 16.3532 1.46782 16.5012C1.66781 17.2046 2.22791 17.6099 2.99302 17.6102C6.42644 17.6114 9.85981 17.6107 13.2932 17.6107C13.3485 17.6107 13.4037 17.6107 13.5074 17.6107Z" fill="#423F49"/>
<path d="M7.2741 2.89866C8.42916 2.89866 9.58422 2.89815 10.7393 2.8989C11.2992 2.89923 11.5959 3.1947 11.5964 3.75279C11.5973 4.67217 11.5973 5.59154 11.5964 6.51097C11.5958 7.06901 11.2992 7.36458 10.7391 7.36467C8.42278 7.36519 6.10642 7.36529 3.79011 7.36458C3.24258 7.36444 2.94294 7.06577 2.94229 6.52013C2.94111 5.59451 2.94111 4.66888 2.94229 3.74325C2.94299 3.19776 3.24267 2.89941 3.7903 2.89894C4.9515 2.898 6.1128 2.89866 7.2741 2.89866ZM4.44901 5.85045C6.33888 5.85045 8.21331 5.85045 10.0827 5.85045C10.0827 5.35995 10.0827 4.88275 10.0827 4.40974C8.19745 4.40974 6.32743 4.40974 4.44901 4.40974C4.44901 4.8922 4.44901 5.36488 4.44901 5.85045Z" fill="#423F49"/>
<path d="M4.82006 10.2921C4.45803 10.2921 4.09595 10.2949 3.73397 10.2914C3.27468 10.287 2.94254 9.97098 2.94141 9.54347C2.94028 9.11587 3.27234 8.79449 3.73017 8.79209C4.46671 8.78819 5.2033 8.78786 5.93984 8.79224C6.3965 8.79496 6.72715 9.12019 6.72283 9.54907C6.71861 9.97061 6.39153 10.2856 5.9436 10.2911C5.56913 10.2957 5.19457 10.2921 4.82006 10.2921Z" fill="#423F49"/>
<path d="M9.70622 8.79118C10.0682 8.79118 10.4303 8.78883 10.7924 8.79174C11.2639 8.79555 11.5984 9.11377 11.5939 9.54942C11.5895 9.97768 11.2585 10.2894 10.7957 10.2914C10.0654 10.2946 9.33504 10.2949 8.60473 10.2913C8.14437 10.289 7.81353 9.97204 7.8125 9.54345C7.81152 9.11481 8.14235 8.79682 8.60131 8.79202C8.96963 8.78812 9.33794 8.79118 9.70622 8.79118Z" fill="#423F49"/>
<path d="M4.82626 13.2193C4.46422 13.2193 4.10214 13.2217 3.74016 13.2187C3.27834 13.2148 2.9461 12.9039 2.94145 12.4768C2.93676 12.0425 3.27276 11.7209 3.74279 11.719C4.46685 11.716 5.19091 11.7162 5.91498 11.7188C6.38951 11.7206 6.72367 12.0345 6.72288 12.47C6.72208 12.9053 6.38787 13.2157 5.9124 13.2188C5.55037 13.2212 5.18833 13.2193 4.82626 13.2193Z" fill="#423F49"/>
<path d="M9.7057 13.2195C9.33743 13.2195 8.96906 13.2226 8.60084 13.2187C8.14207 13.2139 7.81124 12.8955 7.8125 12.4668C7.81382 12.0382 8.14461 11.7217 8.6052 11.7194C9.33551 11.7158 10.0659 11.7161 10.7962 11.7193C11.2588 11.7213 11.5898 12.0335 11.5939 12.4618C11.5981 12.8974 11.2636 13.2152 10.7918 13.2189C10.4298 13.2219 10.0677 13.2196 9.7057 13.2195Z" fill="#423F49"/>
<path d="M4.81734 16.1094C4.45531 16.1094 4.09323 16.1125 3.73124 16.1087C3.27299 16.104 2.94089 15.7857 2.94141 15.3581C2.94188 14.9306 3.27398 14.6116 3.73284 14.6094C4.46938 14.6057 5.20597 14.6051 5.94252 14.6097C6.39087 14.6124 6.718 14.9289 6.72283 15.3504C6.72776 15.7792 6.39711 16.1032 5.94092 16.1086C5.56641 16.113 5.19185 16.1094 4.81734 16.1094Z" fill="#423F49"/>
<path d="M9.69375 16.1095C9.33172 16.1095 8.96964 16.1122 8.60761 16.1088C8.14616 16.1045 7.81514 15.7919 7.81252 15.3635C7.80989 14.9347 8.14053 14.6121 8.59846 14.6095C9.335 14.6054 10.0716 14.6054 10.8082 14.6095C11.266 14.6121 11.5967 14.9349 11.5939 15.3637C11.5911 15.7921 11.2601 16.1046 10.7986 16.1088C10.4303 16.1122 10.062 16.1095 9.69375 16.1095Z" fill="#423F49"/>
</svg>
